<svg width="22" height="15" viewBox="0 0 22 15" fill="none" xmlns="http://www.w3.org/2000/svg">
<path fill-rule="evenodd" clip-rule="evenodd" d="M0.49988 7.51025C0.49988 7.70917 0.578897 7.89993 0.719549 8.04058C0.860202 8.18124 1.05097 8.26025 1.24988 8.26025L18.9394 8.26025L14.2189 12.9793C14.078 13.1201 13.9989 13.3111 13.9989 13.5103C13.9989 13.7094 14.078 13.9004 14.2189 14.0413C14.3597 14.1821 14.5507 14.2612 14.7499 14.2612C14.949 14.2612 15.14 14.1821 15.2809 14.0413L21.2809 8.04125C21.3507 7.97159 21.4061 7.88882 21.4439 7.7977C21.4818 7.70659 21.5012 7.60891 21.5012 7.51025C21.5012 7.4116 21.4818 7.31392 21.4439 7.22281C21.4061 7.13169 21.3507 7.04892 21.2809 6.97925L15.2809 0.979255C15.2111 0.909523 15.1284 0.854209 15.0373 0.81647C14.9461 0.778731 14.8485 0.759308 14.7499 0.759308C14.5507 0.759308 14.3597 0.838425 14.2189 0.979255C14.0781 1.12008 13.9989 1.31109 13.9989 1.51025C13.9989 1.70942 14.0781 1.90043 14.2189 2.04126L18.9394 6.76025L1.24988 6.76025C1.05097 6.76025 0.860203 6.83927 0.719549 6.97992C0.578897 7.12058 0.49988 7.31134 0.49988 7.51025Z" fill="#0AA7F5"/>
</svg>
