<svg width="38" height="38" viewBox="0 0 38 38" fill="none" xmlns="http://www.w3.org/2000/svg">
<g clip-path="url(#clip0_2507_317)">
<path d="M17.2757 30.9467C17.8133 30.9084 18.3491 30.8758 18.8885 30.891C19.4274 30.9062 19.9645 30.9697 20.4963 31.055C21.1996 31.1676 21.9057 31.3304 22.5076 31.7313C22.9645 32.0357 23.38 32.397 23.8291 32.7121C24.4464 33.1452 25.1306 33.459 25.8329 33.7257C26.3188 33.9102 26.8336 34.0657 27.3469 34.1516C27.613 34.1961 27.8845 34.2426 28.1547 34.2506C28.3102 34.2553 28.5611 34.2136 28.6997 34.2765L26.8434 35.2739C26.2222 35.5822 25.5947 35.877 24.9422 36.1137C24.0879 36.4236 23.2042 36.6343 22.3112 36.7955C21.7747 36.8924 21.2327 36.9807 20.6889 37.0241C19.4433 37.1234 18.165 37.1267 16.9219 36.9928C16.3109 36.927 15.7036 36.8102 15.1027 36.6841C14.3565 36.5273 13.6203 36.3382 12.9019 36.0806C12.4679 35.9251 12.0515 35.7287 11.6292 35.5449C10.0256 34.8467 8.53026 33.9463 7.1969 32.8114C7.27087 32.7407 7.38705 32.7032 7.4818 32.6682L8.00188 32.4786C9.38893 31.9301 10.9701 31.8141 12.4502 31.8771L13.1321 31.9206C13.39 31.9455 13.6788 31.9861 13.9352 31.9467C14.1333 31.9163 14.3289 31.7896 14.5086 31.7022L15.0755 31.4559C15.7879 31.1831 16.5226 31.0455 17.2757 30.9467Z" fill="#0A44AF"/>
<path d="M27.7014 18.2571L28.6501 18.0482L29.3986 17.8724L32.0426 17.4782C33.2351 17.3442 34.4155 17.2591 35.6157 17.3507C36.1165 17.389 36.628 17.4448 37.1117 17.5846C37.1693 18.4615 37.1804 19.3863 37.1172 20.2642L36.939 21.8773C36.9358 22.254 36.837 22.6402 36.7639 23.0091C36.6457 23.6058 36.5051 24.2012 36.3143 24.7795L35.9885 25.6231C35.5201 26.7979 34.9466 27.8916 34.2583 28.9506L33.7336 29.6947C33.6414 29.8161 33.5502 29.9516 33.442 30.0584C33.2923 30.3027 33.0557 30.5336 32.8655 30.7492C31.8479 31.9022 30.6968 32.96 29.4182 33.8203C29.1855 33.9768 28.9474 34.1456 28.6997 34.2764C28.561 34.2135 28.3102 34.2552 28.1547 34.2506C27.8845 34.2425 27.6129 34.196 27.3468 34.1515C26.8336 34.0656 26.3187 33.9101 25.8329 33.7256C25.1306 33.4589 24.4464 33.1451 23.8291 32.712C23.38 32.3969 22.9645 32.0357 22.5076 31.7313C21.9057 31.3303 21.1995 31.1676 20.4963 31.0549C19.9645 30.9696 19.4274 30.9062 18.8885 30.891C18.3491 30.8757 17.8133 30.9083 17.2756 30.9466C17.374 30.8646 17.4152 30.7494 17.5086 30.6602L18.1342 30.0677L19.3481 28.7535L19.9687 28.0231L20.589 27.3504C20.6705 27.242 20.7804 27.1568 20.8708 27.0551L22.686 25.1983C22.7462 25.1785 23.0436 24.8332 23.1003 24.7732L24.2401 23.5964C24.324 23.4825 24.4958 23.305 24.5102 23.1637C24.5879 23.0308 24.7296 22.9138 24.8385 22.804L25.4243 22.1924C25.3689 22.1027 25.3973 21.8131 25.3969 21.7006L25.3983 20.1103L25.3997 19.0673C25.4126 18.9936 25.4013 18.8955 25.4018 18.8195L25.4057 18.3134C25.4066 18.2237 25.3974 18.1189 25.4376 18.0368L25.4654 18.0393C25.6567 18.0557 25.8482 18.0432 26.0398 18.049C26.3173 18.0574 26.5951 18.0821 26.8706 18.1161C27.0609 18.1396 27.2451 18.1854 27.4332 18.2207C27.5186 18.2367 27.615 18.2636 27.7014 18.2571Z" fill="url(#paint0_linear_2507_317)"/>
<path d="M25.9952 31.8862C26.0303 31.8955 26.0419 31.9014 26.0687 31.928C26.0984 31.9576 26.0901 31.9436 26.0898 31.9878L26.0458 31.9976L25.932 31.9418L25.9371 31.9126L25.9952 31.8862Z" fill="#36ADF5"/>
<path d="M23.4935 31.7564C23.5287 31.7457 23.5245 31.7517 23.5552 31.7675C23.5561 31.8268 23.5361 31.8364 23.4995 31.8812L23.4618 31.8923L23.4354 31.8677C23.4386 31.8087 23.4559 31.8003 23.4935 31.7564Z" fill="#36ADF5"/>
<path d="M31.507 29.1772C31.5687 29.185 31.6121 29.1771 31.6558 29.2231L31.6265 29.2569C31.5801 29.2801 31.5777 29.2863 31.528 29.2753L31.4938 29.2215L31.507 29.1772Z" fill="#62C4FF"/>
<path d="M21.9698 30.7357C22.0232 30.7323 22.1062 30.755 22.15 30.7857L22.1443 30.8284C22.0686 30.8439 22.0197 30.8204 21.9529 30.7817L21.9698 30.7357Z" fill="#36ADF5"/>
<path d="M23.4696 31.4222C23.5287 31.4126 23.5433 31.409 23.6017 31.43L23.6153 31.4593L23.5738 31.5051C23.5265 31.5146 23.4999 31.5224 23.453 31.5058L23.4409 31.4686L23.4696 31.4222Z" fill="#36ADF5"/>
<path d="M32.6321 29.1589L32.6753 29.1504C32.7062 29.1679 32.7198 29.1732 32.7566 29.1738C32.8015 29.1746 32.8018 29.1862 32.8357 29.2146L32.814 29.2684L32.7676 29.2702L32.6422 29.196L32.6321 29.1589Z" fill="#62C4FF"/>
<path d="M24.4056 28.9362L24.455 28.9297C24.4673 28.9686 24.4849 29.005 24.5015 29.0423C24.5393 29.0667 24.5655 29.0789 24.5841 29.1218L24.5571 29.1721C24.504 29.1496 24.505 29.1221 24.4829 29.0704C24.4353 29.0502 24.392 29.0378 24.3633 28.9919L24.4056 28.9362Z" fill="#62C4FF"/>
<path d="M23.707 31.6821L23.7137 31.6825C23.7717 31.6947 23.8098 31.6971 23.8695 31.6907L23.8892 31.6884L23.9136 31.7192L23.9032 31.7563L23.8501 31.7601C23.8201 31.7917 23.7853 31.8152 23.75 31.8403L23.7222 31.8341L23.719 31.775C23.7108 31.7362 23.7024 31.7269 23.707 31.6821Z" fill="#36ADF5"/>
<path d="M21.4221 30.8286C21.4686 30.8364 21.4615 30.8619 21.4956 30.8751C21.5289 30.888 21.5435 30.8677 21.5842 30.8936C21.5428 30.9603 21.5107 30.9553 21.4372 30.9773C21.3974 31.0079 21.419 30.9956 21.3721 31.0142L21.3513 30.9771L21.4221 30.8286Z" fill="#36ADF5"/>
<path d="M31.6423 29.4571L31.6734 29.4409L31.7046 29.4647C31.7086 29.5324 31.6802 29.5682 31.6452 29.6224L31.6079 29.6017C31.589 29.5729 31.5807 29.5671 31.5486 29.5517C31.5171 29.5365 31.4959 29.5233 31.4687 29.5018L31.491 29.4706L31.6423 29.4571Z" fill="#62C4FF"/>
<path d="M33.5873 29.103L33.6207 29.1065L33.621 29.1307L33.5933 29.1308C33.5931 29.1967 33.5968 29.2004 33.5562 29.2513L33.4078 29.2367C33.379 29.2187 33.3712 29.2084 33.3521 29.1816L33.3706 29.1423C33.4401 29.1143 33.5135 29.1108 33.5873 29.103Z" fill="#36ADF5"/>
<path d="M31.1391 27.8228C31.2203 27.8415 31.2771 27.9398 31.3208 28.0083L31.3051 28.0454L31.2368 28.0535C31.1717 28.026 31.2237 28.0231 31.1906 27.9847C31.1521 27.9402 31.0931 27.9371 31.0522 27.8877C31.0763 27.8479 31.0991 27.8435 31.1391 27.8228Z" fill="#62C4FF"/>
<path d="M25.4376 18.0371L25.4654 18.0396C25.6567 18.056 25.8482 18.0435 26.0398 18.0493C26.3173 18.0577 26.5951 18.0824 26.8706 18.1164C27.0609 18.1399 27.2452 18.1856 27.4332 18.221C27.5186 18.237 27.615 18.2639 27.7015 18.2574C27.9812 18.3759 28.2655 18.466 28.5557 18.5542C28.7391 18.61 28.9459 18.6599 29.117 18.7456C29.16 18.7671 29.1874 18.8077 29.2144 18.8458C28.7799 19.0297 28.4445 19.3216 28.0932 19.629L26.7998 20.8524L25.9158 21.6898L25.4243 22.1927C25.369 22.103 25.3974 21.8134 25.3969 21.7009L25.3983 20.1106L25.3997 19.0676C25.4126 18.9939 25.4013 18.8958 25.4018 18.8198L25.4057 18.3137C25.4067 18.224 25.3975 18.1192 25.4376 18.0371Z" fill="#0A44AF"/>
<path d="M27.7015 18.2571L28.6501 18.0482L29.3987 17.8724L32.0426 17.4782C33.2352 17.3442 34.4155 17.2591 35.6157 17.3507C36.1166 17.389 36.628 17.4448 37.1117 17.5846C37.1693 18.4615 37.1804 19.3863 37.1172 20.2642L36.939 21.8773L36.9053 21.9169L36.2932 21.506L35.458 20.966C35.2884 20.8549 35.1181 20.7152 34.9366 20.6261C34.6887 20.4256 34.3685 20.2564 34.0931 20.0912C33.5975 19.7939 33.1022 19.4879 32.582 19.2348C32.2574 19.0768 31.9243 18.9411 31.5868 18.8136C31.2216 18.6757 30.8341 18.5513 30.439 18.5578C30.0088 18.5649 29.6154 18.7064 29.2145 18.8455C29.1874 18.8074 29.16 18.7668 29.117 18.7453C28.9459 18.6596 28.7392 18.6097 28.5557 18.5539C28.2655 18.4658 27.9812 18.3756 27.7015 18.2571Z" fill="#1E91F9"/>
<path d="M0.844238 19.4962C0.858632 19.4958 0.84981 19.497 0.871521 19.4873C0.900229 19.4745 0.915612 19.4817 0.946259 19.4855L0.974091 19.5101L1.04304 19.4962L1.06686 19.4915C1.16174 19.4719 1.31255 19.4681 1.41013 19.4681C1.44953 19.4681 1.48249 19.4648 1.52136 19.4592L1.5281 19.436L1.63269 19.4267L1.64039 19.3989L1.66062 19.4173L1.67223 19.3896L1.69226 19.385L1.72092 19.3664C1.7616 19.3436 1.78307 19.3298 1.81644 19.295C1.83557 19.2121 1.92685 19.1279 1.98118 19.0604C2.4652 18.4579 3.0255 17.9443 3.5694 17.3979L4.88151 16.0514L5.47217 15.414C5.6023 15.2666 5.72164 15.1124 5.86474 14.9766C6.10051 14.7529 6.49871 14.5471 6.82656 14.5575C6.99168 14.5628 7.14877 14.5881 7.29197 14.6757C7.51457 14.8119 7.70378 15.0191 7.88631 15.2036L9.04343 16.4667C9.1507 16.5841 9.27197 16.687 9.38281 16.8008L9.91679 17.376L11.4862 19.1929L11.8041 19.5738C11.8612 19.6454 11.916 19.734 11.9865 19.7924L17.0106 19.7564L17.0081 18.5513C17.0078 18.3469 16.9895 18.1234 17.0181 17.9214L25.3277 17.9444C25.3585 17.9699 25.3826 17.9899 25.4032 18.0245L25.4376 18.037C25.3974 18.1191 25.4066 18.2239 25.4057 18.3136L25.4018 18.8196C25.4013 18.8957 25.4126 18.9938 25.3997 19.0675L25.3983 20.1105L25.3968 21.7008C25.3973 21.8133 25.3689 22.1028 25.4243 22.1926L24.8385 22.8042C24.7296 22.9139 24.5879 23.031 24.5102 23.1638C24.4958 23.3051 24.324 23.4827 24.2401 23.5966L23.1003 24.7733C23.0436 24.8333 22.7461 25.1787 22.686 25.1985L20.8708 27.0553C20.7804 27.1569 20.6704 27.2421 20.589 27.3506L19.9687 28.0233L19.3481 28.7536L18.1342 30.0679L17.5086 30.6604C17.4152 30.7496 17.374 30.8648 17.2756 30.9468C16.5226 31.0456 15.7878 31.1832 15.0754 31.456L14.5086 31.7022C14.3288 31.7897 14.1333 31.9164 13.9351 31.9468C13.6788 31.9862 13.39 31.9456 13.132 31.9206L12.4502 31.8772C10.9701 31.8142 9.38889 31.9301 8.00184 32.4787L7.48177 32.6683C7.38702 32.7033 7.27084 32.7408 7.19687 32.8115C6.93126 32.5952 6.68951 32.3522 6.43983 32.1184C4.40077 30.2088 2.79544 27.8408 1.87753 25.1938L1.29987 23.0536C1.17379 22.491 1.06145 21.9103 0.990157 21.3379L0.844238 19.4962Z" fill="#62C4FF"/>
<path d="M17.0181 17.9214L25.3277 17.9443C25.3585 17.9699 25.3827 17.9899 25.4032 18.0245L25.4376 18.037C25.3974 18.1191 25.4067 18.2239 25.4057 18.3136L25.4018 18.8196C25.4013 18.8957 25.4126 18.9938 25.3997 19.0675L25.3983 20.1105L25.3969 21.7008C25.3974 21.8133 25.3689 22.1028 25.4243 22.1926L24.8385 22.8041C24.7296 22.9139 24.5879 23.031 24.5102 23.1638C24.4958 23.3051 24.324 23.4827 24.2401 23.5966L23.1003 24.7733C23.0436 24.8333 22.7462 25.1787 22.686 25.1985L20.8708 27.0553C20.7804 27.1569 20.6705 27.2421 20.589 27.3506L19.9687 28.0233C19.8821 27.8703 19.6754 27.7305 19.5357 27.624L19.0246 27.2953C18.8671 27.221 18.695 27.1404 18.5454 27.0527C18.4864 27.0181 18.4357 26.9708 18.377 26.9361C18.2152 26.8409 17.9782 26.7431 17.7978 26.6954L17.3891 26.5443L17.1675 26.4897L16.472 26.3339L16.2985 26.3151L15.9142 26.2635C15.8043 26.2439 15.6856 26.2032 15.5748 26.2006L14.7774 26.1228C14.8544 26.0967 15.1022 26.0872 15.18 26.1131C15.2294 26.1296 15.2804 26.1155 15.3296 26.1319C15.3616 26.1426 15.3399 26.1386 15.3833 26.1415C15.4307 26.1447 15.4745 26.1525 15.521 26.1621C15.5409 26.1022 15.5641 26.061 15.6022 26.0102L15.6137 25.9951L15.6139 25.9672C15.6498 25.9433 15.6415 25.949 15.651 25.9116C15.679 25.8906 15.6978 25.8786 15.7138 25.8467C15.7279 25.8187 15.7203 25.8263 15.744 25.8049L15.8814 25.6826C15.9054 25.6354 15.9814 25.5558 16.0282 25.5324C16.0612 25.5158 16.0439 25.5294 16.0731 25.4944C16.0986 25.4639 16.0893 25.469 16.1203 25.4503C16.1396 25.4388 16.1569 25.4287 16.175 25.4153L16.1506 25.3567L15.9848 25.4949C15.9271 25.539 15.86 25.5876 15.8178 25.6474C15.7802 25.7006 15.7422 25.7271 15.6881 25.7623C15.6506 25.7867 15.6438 25.8186 15.6332 25.8615L15.6273 25.888L15.5885 25.9102C15.5891 25.8604 15.6069 25.8113 15.6195 25.7632C15.6665 25.7251 15.7343 25.6769 15.7622 25.6216C15.8085 25.5299 15.868 25.511 15.9411 25.4485L16.0646 25.3349C16.136 25.2573 16.2227 25.2163 16.3018 25.1503L16.3839 25.086C16.4419 25.0561 16.3819 25.1021 16.4365 25.0564L16.5415 24.9746L16.7224 24.8448C16.752 24.8257 16.7887 24.8077 16.8198 24.789L17.2307 24.524L17.2745 24.4923C17.3364 24.46 17.4021 24.4384 17.4632 24.4012L17.4972 24.3809C17.5285 24.3678 17.561 24.3584 17.5898 24.3392C17.6334 24.3101 17.6742 24.3066 17.7197 24.279L17.7476 24.2604L17.8032 24.2419C17.836 24.222 17.8642 24.2119 17.8992 24.1931L17.9285 24.1768L18.2208 24.047L18.3136 24.0099L18.4434 23.9542L18.4712 23.945L18.4898 23.9264C18.6016 23.9172 18.7273 23.8466 18.8331 23.8058L18.9072 23.778L18.9351 23.7594C18.9682 23.7624 18.9792 23.7615 19.0099 23.7461C19.0421 23.7299 19.0279 23.7332 19.0568 23.726C19.0764 23.7212 19.0926 23.7162 19.1113 23.7083C19.1382 23.697 19.162 23.6855 19.1907 23.6796L19.2598 23.6665V23.3138L14.924 23.32L14.9393 23.3315C14.9743 23.3538 15.0019 23.3515 15.0407 23.3401L15.0655 23.3315L15.1081 23.3561C15.1203 23.3928 15.133 23.4207 15.1559 23.4517L15.1782 23.4812C15.1751 23.4963 15.1698 23.5183 15.1705 23.5334C15.1729 23.5815 15.1832 23.6164 15.1793 23.6671L15.1777 23.6851C15.236 23.741 15.3189 23.8251 15.3648 23.891C15.4263 23.9791 15.4971 24.0588 15.5656 24.1414C15.588 24.1684 15.6097 24.1911 15.6299 24.2203L15.8662 24.5685C15.9112 24.6391 15.953 24.7019 16.0085 24.7653L15.9983 24.8066C15.8702 24.758 15.7356 24.4411 15.6539 24.3252C15.403 23.9694 15.0883 23.6505 14.8225 23.3037L14.4088 22.785C14.5449 22.6094 14.7237 22.4583 14.8768 22.2966C15.0616 22.1014 15.2336 21.8846 15.4323 21.7044L15.518 21.6087C15.7145 21.4547 15.8988 21.212 16.0724 21.0279L17.0365 20.0152C16.9992 19.9443 17.0116 19.8358 17.0106 19.7564L17.0081 18.5513C17.0078 18.3469 16.9895 18.1234 17.0181 17.9214Z" fill="#94ECFF"/>
<path d="M19.8244 21.7505C19.9398 21.7784 20.0649 21.7695 20.1832 21.7699L20.8787 21.7631C21.5387 21.7631 22.2209 21.8045 22.8776 21.7519L22.9172 21.7817L22.9461 21.8205L23.5794 22.5494C23.7373 22.7408 23.881 22.9571 24.076 23.1127L22.9528 23.0896C22.1153 23.1269 21.261 23.2071 20.4385 23.3737L19.6479 23.5702L19.2812 23.6883C19.2929 23.5761 19.2721 23.4554 19.2772 23.3418C19.285 23.1651 19.2962 22.9973 19.2801 22.8192L19.2782 21.7476L19.8244 21.7505Z" fill="#62C4FF"/>
<path d="M17.0365 20.0152L17.5273 19.5158C17.9473 19.0569 18.3388 18.6009 18.9432 18.3791L18.9722 18.3689C19.0888 18.3267 19.1896 18.3291 19.312 18.3319L19.3166 20.084L19.3131 20.1048C19.2749 20.3527 19.2931 20.6274 19.2903 20.8789C19.287 21.1661 19.2701 21.4597 19.2827 21.7463L16.3669 21.7468C16.1895 21.7455 15.566 21.781 15.4324 21.7044L15.5181 21.6087C15.7146 21.4547 15.8989 21.212 16.0724 21.0279L17.0365 20.0152Z" fill="white"/>
<path d="M17.0181 17.9214L25.3277 17.9443C25.3585 17.9699 25.3826 17.9899 25.4032 18.0245L25.4376 18.037C25.3974 18.1191 25.4066 18.2239 25.4057 18.3136L25.4018 18.8196C25.4013 18.8957 25.4126 18.9938 25.3997 19.0675L25.3983 20.1105L25.3968 21.7008C25.3973 21.8133 25.3689 22.1028 25.4243 22.1926L24.8385 22.8041C24.7296 22.9139 24.5879 23.031 24.5102 23.1638L24.0759 23.1127C23.8809 22.9571 23.7372 22.7408 23.5794 22.5494L22.946 21.8205L22.9171 21.7818L22.8776 21.7519L20.9598 19.7662C20.9205 19.7541 20.8357 19.6444 20.7999 19.608L20.2 19.0047C19.9326 18.7369 19.6838 18.4491 19.3119 18.3319C19.1895 18.3291 19.0887 18.3267 18.9722 18.3689L18.9431 18.3791C18.3388 18.6009 17.9473 19.0569 17.5273 19.5158L17.0364 20.0152C16.9992 19.9443 17.0116 19.8358 17.0106 19.7564L17.0081 18.5513C17.0078 18.3469 16.9895 18.1234 17.0181 17.9214Z" fill="#36ADF5"/>
<path d="M20.9598 19.7661C21.0841 19.7331 21.257 19.7484 21.3866 19.7493L22.2146 19.7547L24.2888 19.7474C24.6406 19.747 25.0045 19.7275 25.3549 19.7559L25.3808 19.7581L25.3975 19.089L25.3997 19.0674L25.3984 20.1104L25.3969 21.7007C25.3974 21.8132 25.369 22.1027 25.4243 22.1925L24.8385 22.8041C24.7297 22.9138 24.5879 23.0309 24.5102 23.1637L24.0759 23.1127C23.8809 22.957 23.7373 22.7407 23.5794 22.5493L22.946 21.8205L22.9172 21.7817L22.8776 21.7518L20.9598 19.7661Z" fill="#1E91F9"/>
<path d="M25.3984 20.1104L25.3969 21.7006C25.3974 21.8131 25.369 22.1027 25.4243 22.1924L24.8385 22.804C24.7296 22.9138 24.5879 23.0308 24.5102 23.1637L24.0759 23.1126C23.8809 22.957 23.7372 22.7406 23.5794 22.5493L22.946 21.8204L22.9172 21.7816L22.9435 21.7495L25.3812 21.727L25.3984 20.1104Z" fill="#247ED0"/>
<path d="M22.9528 23.0898L24.0759 23.113L24.5102 23.1641C24.4959 23.3054 24.324 23.483 24.2402 23.5969L23.1003 24.7736C23.0436 24.8336 22.7462 25.179 22.6861 25.1987L20.8709 27.0556C20.7804 27.1572 20.6705 27.2424 20.589 27.3508L19.9688 28.0235C19.8821 27.8706 19.6755 27.7307 19.5357 27.6243L19.0247 27.2955C18.8671 27.2213 18.6951 27.1406 18.5454 27.0529C18.4865 27.0183 18.4358 26.971 18.377 26.9364C18.2152 26.8411 17.9783 26.7434 17.7979 26.6956L17.3892 26.5446L17.1676 26.49L16.4721 26.3341L16.2986 26.3154L15.9142 26.2637C15.8043 26.2441 15.6857 26.2035 15.5748 26.2009L14.7775 26.1231C14.8544 26.097 15.1022 26.0874 15.1801 26.1134C15.2294 26.1298 15.2804 26.1157 15.3297 26.1322C15.3616 26.1428 15.3399 26.1389 15.3833 26.1418C15.4307 26.1449 15.4746 26.1528 15.521 26.1624C15.541 26.1025 15.5641 26.0612 15.6022 26.0105L15.6138 25.9954L15.614 25.9675C15.6498 25.9435 15.6415 25.9493 15.6511 25.9119C15.6791 25.8909 15.6978 25.8789 15.7139 25.8469C15.7279 25.819 15.7203 25.8266 15.744 25.8052L15.8814 25.6829C15.9484 25.6546 16.009 25.5884 16.064 25.5413L16.3802 25.2827C16.5141 25.1601 16.6762 25.0577 16.8233 24.951L16.9176 24.8843C16.9541 24.8222 17.1426 24.748 17.2095 24.7087C17.3462 24.6282 17.477 24.5237 17.6177 24.453C17.6866 24.4184 17.7596 24.392 17.8311 24.3631C17.912 24.3304 17.9975 24.3172 18.0828 24.3004L18.1433 24.2403C18.2121 24.1775 18.2889 24.1593 18.3807 24.166L18.397 24.1675L18.4149 24.1523C18.3833 24.1286 18.361 24.1169 18.3181 24.126C18.2993 24.1299 18.2825 24.1408 18.2636 24.1445C18.2304 24.1512 18.1844 24.1583 18.1558 24.177C18.1173 24.2022 18.0871 24.2623 18.0491 24.2837C18.0294 24.2948 17.9726 24.2854 17.9471 24.293C17.8631 24.318 17.9555 24.2991 17.8917 24.3118C17.8597 24.3182 17.8354 24.3231 17.8053 24.3368L17.7476 24.3625L17.7261 24.3511L18.2984 24.0881L18.2933 24.0575L19.2812 23.6886L19.6479 23.5704L20.4385 23.374C21.261 23.2074 22.1153 23.1272 22.9528 23.0898Z" fill="url(#paint1_linear_2507_317)"/>
<path d="M20.0682 26.7466L20.1162 26.7471C20.153 26.7836 20.1768 26.8117 20.2016 26.8582L20.1782 26.9129L20.1611 26.9085C20.1352 26.8793 20.1119 26.8536 20.0816 26.8287L20.0597 26.8115L20.0682 26.7466Z" fill="#94ECFF"/>
<path d="M16.2985 26.3152C16.3169 26.2611 16.3176 26.2297 16.3652 26.1963C16.4196 26.2135 16.4292 26.2424 16.4557 26.2929C16.4693 26.3188 16.4658 26.3103 16.472 26.334L16.2985 26.3152Z" fill="#62C4FF"/>
<path d="M18.7643 26.3756L18.8266 26.3696C18.8754 26.3668 18.931 26.3517 18.9679 26.3849C18.9349 26.4348 18.9317 26.4287 18.8724 26.4421L18.8656 26.4399L18.8237 26.4978L18.768 26.4907C18.751 26.435 18.7445 26.4294 18.7643 26.3756Z" fill="#94ECFF"/>
<path d="M20.322 27.0804C20.3681 27.0717 20.4093 27.0668 20.4566 27.0659L20.4994 27.1158C20.5094 27.1865 20.4926 27.1962 20.4566 27.2556L20.4133 27.2823L20.3879 27.2475L20.4068 27.1917C20.3953 27.1636 20.3909 27.1531 20.3658 27.1348C20.3415 27.117 20.3354 27.1069 20.322 27.0804Z" fill="#94ECFF"/>
<path d="M16.8105 25.0581L16.8662 25.0628C16.9105 25.0773 16.9198 25.0894 16.9724 25.0915L16.9901 25.092L17.026 25.148L17.0092 25.2164C17.0032 25.25 16.9899 25.2581 16.9683 25.2838L16.9526 25.29C16.8936 25.2681 16.9457 25.257 16.931 25.2158C16.9229 25.1931 16.9001 25.1787 16.8847 25.1602C16.8397 25.1453 16.8043 25.13 16.7641 25.1045L16.7598 25.0683L16.8105 25.0581Z" fill="#94ECFF"/>
<path d="M17.1044 25.1206L17.1276 25.1277C17.1794 25.1339 17.2065 25.0942 17.242 25.063L17.3169 25.1509C17.3102 25.1882 17.3111 25.2191 17.2865 25.2487C17.2501 25.2275 17.2574 25.2178 17.2466 25.1789C17.1984 25.2101 17.1971 25.2076 17.1817 25.2623L17.1976 25.3081C17.1713 25.3446 17.1276 25.3596 17.1111 25.39C17.0963 25.4175 17.0762 25.43 17.0518 25.4481L17.0231 25.4201C17.0298 25.3869 17.0395 25.3719 17.0609 25.3459L17.0333 25.3181C17.0511 25.2912 17.0664 25.2756 17.0889 25.2531L17.0848 25.238C17.0735 25.1928 17.0634 25.1724 17.0871 25.1309L17.1044 25.1206Z" fill="#94ECFF"/>
<path d="M17.2994 26.3718C17.3388 26.3895 17.365 26.3991 17.3836 26.4424C17.3894 26.456 17.3895 26.4765 17.3904 26.4912C17.4099 26.4587 17.4013 26.4794 17.408 26.4457C17.4146 26.4128 17.4275 26.4112 17.4414 26.3846C17.4464 26.3749 17.4487 26.3584 17.4507 26.3474C17.488 26.3226 17.4875 26.3297 17.5295 26.3335C17.5294 26.3669 17.5273 26.3795 17.5156 26.4124L17.5527 26.4402C17.5848 26.4322 17.5841 26.4375 17.6061 26.4101C17.6244 26.3872 17.6431 26.3677 17.6641 26.3474L17.6642 26.3288L17.6364 26.301L17.6826 26.2641C17.7281 26.295 17.7471 26.3136 17.8056 26.2974C17.8205 26.2932 17.8341 26.2812 17.846 26.2719L17.8492 26.2361C17.8702 26.2156 17.9674 26.1856 17.998 26.183C18.0384 26.1796 18.0591 26.2007 18.0908 26.2214L18.1323 26.216L18.1223 26.2493C18.1509 26.2777 18.1484 26.2737 18.1836 26.2825L18.165 26.299L18.1372 26.2827L18.1356 26.3168L18.165 26.3383C18.1928 26.3597 18.1999 26.3801 18.2112 26.4124L18.1836 26.4308L18.1478 26.4216L18.1349 26.3995C18.1149 26.3674 18.1241 26.3787 18.0908 26.3566L18.0351 26.352L18.0221 26.3703C17.9927 26.411 17.9707 26.4454 17.9255 26.4701C17.92 26.4978 17.9147 26.5786 17.902 26.602C17.8889 26.6261 17.8207 26.6747 17.7978 26.6952L17.3891 26.5441L17.1675 26.4895L17.2086 26.4683C17.2128 26.4221 17.2171 26.3846 17.2094 26.3383C17.1774 26.3363 17.1552 26.3325 17.1257 26.3199L17.1147 26.2732L17.1474 26.2221C17.1886 26.2183 17.2103 26.2144 17.2465 26.2361C17.2521 26.2667 17.253 26.2822 17.2449 26.3133L17.2373 26.3381L17.2994 26.3718Z" fill="#62C4FF"/>
<path d="M19.8164 27.3079L19.8332 27.3268C19.8516 27.3491 19.8566 27.3594 19.8628 27.3866L19.8906 27.4052C19.9015 27.3908 19.9084 27.3738 19.9185 27.3589C19.947 27.3166 19.9784 27.3299 19.9834 27.266L19.9789 27.1825L19.9929 27.1546C20.0713 27.1421 20.1155 27.1753 20.1876 27.1888C20.2277 27.1963 20.2404 27.2034 20.271 27.2287L20.2942 27.2237C20.3054 27.2541 20.3088 27.2607 20.3034 27.2938C20.3142 27.3243 20.3159 27.3507 20.3422 27.3704L20.4102 27.4237L20.4231 27.4101C20.4512 27.3806 20.4711 27.3545 20.5123 27.3448L20.5216 27.317C20.5487 27.3402 20.5459 27.343 20.5827 27.3486L20.589 27.3505L19.9688 28.0232C19.8821 27.8702 19.6755 27.7304 19.5357 27.6239L19.0247 27.2952L19.0829 27.2874L19.0783 27.2605C19.0742 27.233 19.0739 27.2175 19.0789 27.191L19.0959 27.2547L19.1392 27.272L19.159 27.2582L19.1869 27.2398L19.2136 27.2199C19.258 27.1893 19.3277 27.1934 19.3796 27.191L19.4173 27.2104C19.4039 27.2352 19.3967 27.2692 19.3679 27.2768C19.3373 27.2849 19.3095 27.2822 19.2783 27.2807L19.2478 27.3124L19.2505 27.3454C19.3369 27.3993 19.3544 27.4149 19.4546 27.4143C19.4999 27.3601 19.4444 27.3217 19.501 27.2847C19.5906 27.3022 19.5672 27.401 19.6587 27.3425L19.6622 27.2953L19.6067 27.2382C19.6269 27.2008 19.6128 27.2158 19.6494 27.1933L19.8022 27.2179L19.7873 27.2371L19.6823 27.2433C19.6663 27.2884 19.6891 27.2913 19.6861 27.3306C19.6849 27.3465 19.662 27.3846 19.6541 27.4005H19.719C19.7087 27.3558 19.7001 27.3518 19.719 27.3077L19.7793 27.2753L19.8164 27.3079Z" fill="#62C4FF"/>
<path d="M1.87756 25.1939L1.90412 25.18C2.0409 25.0998 2.07359 24.8398 2.16181 24.715L2.27314 24.548L2.40303 24.381C2.45641 24.3116 2.52435 24.2558 2.57675 24.1861C2.63557 24.1078 2.75423 23.9801 2.83897 23.9358C2.89407 23.907 2.9501 23.8578 3.00596 23.8245C3.02807 23.8112 3.04278 23.7973 3.06668 23.7853C3.12881 23.7542 3.20937 23.7066 3.26563 23.6666L3.28419 23.6483L3.33995 23.6203L3.53472 23.5224C3.57025 23.5046 3.55426 23.5122 3.5916 23.4997C3.62195 23.4896 3.62965 23.476 3.65528 23.4627L3.69248 23.4534C3.76195 23.4262 3.83903 23.3977 3.90523 23.3647C3.93585 23.3494 3.94713 23.3485 3.98017 23.3512L4.00782 23.3328L4.04502 23.3235L4.0676 23.3183C4.09176 23.3135 4.11327 23.3135 4.1377 23.3141L4.15626 23.2957C4.20023 23.2957 4.25447 23.3085 4.28614 23.2772C4.35396 23.2771 4.47266 23.295 4.52735 23.2586C4.57326 23.2585 4.59929 23.2662 4.63868 23.2401C4.68873 23.24 4.70573 23.2447 4.75001 23.2215C4.7868 23.2023 4.84052 23.2027 4.88197 23.1843C4.92266 23.1662 4.88212 23.1834 4.93556 23.1658L5.00987 23.1379C5.09854 23.1017 5.19799 23.0522 5.27765 22.9991C5.30571 22.9805 5.33297 22.9681 5.36241 22.9524C5.463 22.8986 5.53401 22.8364 5.60362 22.7483C5.65004 22.6895 5.7006 22.6499 5.73351 22.5813L5.76141 22.5441C5.82529 22.456 5.87442 22.3501 5.92004 22.2517L5.95616 22.1731C6.02123 22.0221 6.16615 21.9096 6.3087 21.8391L6.33705 21.8246C6.39875 21.7938 6.46426 21.7725 6.53126 21.757C6.60998 21.7388 6.68143 21.7152 6.76337 21.7184L6.79103 21.7C6.84639 21.7 6.95055 21.6852 7.00008 21.6999C7.0833 21.7246 7.18305 21.8169 7.2497 21.8706C7.50407 22.0758 7.73826 22.3008 7.96957 22.5314L10.382 24.9586L11.8914 26.4782L11.91 26.4682C12.3435 26.2426 12.8786 26.1956 13.3574 26.1645L14.2426 26.1271L14.6407 26.1256C14.6795 26.1255 14.7429 26.1347 14.7775 26.123L15.5748 26.2008C15.6857 26.2034 15.8043 26.244 15.9142 26.2636L16.2986 26.3153L16.4721 26.334L17.1676 26.4898L17.3892 26.5445L17.7979 26.6955C17.9783 26.7433 18.2152 26.841 18.377 26.9363C18.4358 26.9709 18.4865 27.0182 18.5454 27.0528C18.6951 27.1405 18.8671 27.2211 19.0247 27.2954L19.5357 27.6242C19.6755 27.7306 19.8821 27.8705 19.9688 28.0234L19.3482 28.7538L18.1342 30.068L17.5087 30.6605C17.4152 30.7497 17.3741 30.8649 17.2757 30.9469C16.5226 31.0457 15.7879 31.1833 15.0755 31.4561L14.5086 31.7024C14.3289 31.7899 14.1333 31.9165 13.9352 31.947C13.6788 31.9863 13.39 31.9458 13.1321 31.9208L12.4502 31.8773C10.9701 31.8143 9.38893 31.9303 8.00188 32.4789L7.4818 32.6685C7.38705 32.7034 7.27087 32.7409 7.1969 32.8116C6.9313 32.5953 6.68954 32.3523 6.43987 32.1185C4.40081 30.2089 2.79548 27.841 1.87756 25.1939Z" fill="url(#paint2_linear_2507_317)"/>
<path d="M6.45626 5.60023C6.54592 5.4801 6.68184 5.37402 6.79267 5.27219C7.28182 4.8227 7.80195 4.42489 8.34013 4.03689C8.93176 3.61032 9.54629 3.25323 10.1894 2.91034C10.7232 2.62575 11.2532 2.35482 11.8152 2.12752C12.567 1.82347 13.3422 1.58188 14.1229 1.36565C15.0291 1.11464 15.9685 0.911408 16.903 0.801411C18.2096 0.64759 19.5653 0.644879 20.874 0.77634C21.2116 0.810248 21.5464 0.8309 21.8821 0.885486C22.526 0.989397 23.1734 1.11248 23.8026 1.28607L24.7464 1.58602C25.3529 1.77807 25.9605 1.98068 26.5458 2.23147C26.9773 2.41637 27.3864 2.63081 27.8002 2.85133C28.3364 3.13708 28.8726 3.43979 29.3749 3.78225C31.1374 4.98397 32.6778 6.558 33.9236 8.28433C34.2814 8.78006 34.601 9.30395 34.9043 9.83422C35.496 10.8687 36.0141 11.9596 36.3611 13.1022C36.5825 13.8315 36.7384 14.5693 36.8665 15.3199C36.9943 16.0693 37.089 16.8244 37.1117 17.585C36.628 17.4453 36.1165 17.3894 35.6157 17.3511C34.4155 17.2596 33.2351 17.3446 32.0426 17.4787L29.3986 17.8728L28.6501 18.0486L27.7014 18.2576C27.615 18.264 27.5186 18.2371 27.4332 18.2211C27.2451 18.1858 27.0609 18.14 26.8706 18.1165C26.5951 18.0825 26.3173 18.0578 26.0398 18.0494C25.8482 18.0437 25.6567 18.0561 25.4654 18.0397L25.4376 18.0372L25.4032 18.0248C25.3826 17.9901 25.3585 17.9701 25.3277 17.9446L17.0181 17.9216C16.9895 18.1236 17.0078 18.3471 17.0081 18.5515L17.0106 19.7567L11.9865 19.7926C11.916 19.7343 11.8612 19.6456 11.8041 19.574L11.4862 19.1931L9.91679 17.3762L9.38281 16.801C9.27197 16.6873 9.1507 16.5843 9.04343 16.467L7.88631 15.2038C7.70378 15.0194 7.51457 14.8122 7.29197 14.6759C7.14877 14.5883 6.99168 14.563 6.82656 14.5577C6.49871 14.5474 6.10051 14.7531 5.86474 14.9769C5.72164 15.1126 5.6023 15.2668 5.47217 15.4142L4.88151 16.0517L3.5694 17.3981C3.0255 17.9445 2.4652 18.4581 1.98118 19.0606C1.92685 19.1282 1.83557 19.2123 1.81644 19.2952C1.78307 19.3301 1.7616 19.3439 1.72092 19.3667L1.69226 19.3852L1.67223 19.3899L1.66062 19.4175L1.64039 19.3991L1.63269 19.4269L1.5281 19.4362L1.52136 19.4595C1.48249 19.465 1.44953 19.4684 1.41013 19.4684C1.31255 19.4684 1.16174 19.4722 1.06686 19.4918L1.04304 19.4964L0.974091 19.5103L0.946259 19.4858C0.915612 19.482 0.900229 19.4747 0.871521 19.4875C0.84981 19.4972 0.858632 19.4961 0.844238 19.4964L0.860601 17.4758C0.902198 16.6839 1.01374 15.8958 1.16462 15.1177C1.44195 13.6873 1.8693 12.3115 2.50334 10.9976C2.77833 10.4277 3.09614 9.87771 3.42287 9.33636C4.24868 7.96801 5.26559 6.67319 6.45626 5.60023Z" fill="url(#paint3_linear_2507_317)"/>
<path d="M17.0109 10.0942C17.3283 10.1783 17.5762 10.3887 17.8249 10.5949C18.0662 10.7949 18.2773 11.0242 18.4965 11.2474L19.1234 11.8656L21.7304 14.4311C21.6569 14.4533 21.5652 14.4401 21.4881 14.4379L20.9575 14.42L19.2442 14.4159H17.0304L17.022 14.3651L17.0139 11.8955C16.9821 11.6938 16.9969 11.4759 16.9979 11.272L17.0109 10.0942Z" fill="#94ECFF"/>
<path d="M12.4179 14.4119L15.6274 10.707C15.9659 10.3878 16.5382 10.0824 17.0109 10.0941L16.9979 11.2718C16.9969 11.4757 16.9821 11.6936 17.0139 11.8953L17.022 14.365L17.0304 14.4157L17.0173 14.5201L17.0148 14.5406C16.9926 14.7334 17.0051 14.9358 17.0056 15.1298L17.0121 16.1809L14.8761 16.1915L11.7638 16.175C11.609 16.1744 11.45 16.1663 11.2956 16.1739C11.1721 16.18 11.1016 16.2287 10.9705 16.1842C10.9398 16.2111 10.9151 16.2335 10.8785 16.2527C11.0153 16.0335 11.2163 15.8355 11.381 15.6351C11.7213 15.2209 12.0462 14.7989 12.4179 14.4119Z" fill="white"/>
<path d="M17.0173 14.52L17.0297 16.1829L17.0286 17.3926C17.0286 17.5624 17.0488 17.7559 17.0181 17.9212C16.9896 18.1231 17.0078 18.3466 17.0081 18.551L17.0106 19.7562L11.9865 19.7921C11.9161 19.7338 11.8612 19.6451 11.8041 19.5735L11.4862 19.1926L9.91681 17.3758L10.6491 16.5156C10.7225 16.4302 10.7911 16.3231 10.8785 16.2526C10.9151 16.2334 10.9398 16.211 10.9705 16.1841C11.1016 16.2286 11.1721 16.1799 11.2956 16.1738C11.45 16.1662 11.6089 16.1743 11.7638 16.1749L14.8761 16.1914L17.0121 16.1807L17.0056 15.1297C17.005 14.9357 16.9926 14.7333 17.0147 14.5405L17.0173 14.52Z" fill="url(#paint4_linear_2507_317)"/>
<path d="M19.2442 14.416L20.9575 14.4201L21.4881 14.4381C21.5652 14.4403 21.6569 14.4535 21.7304 14.4313L23.4845 16.169L25.3277 17.9446L17.0181 17.9216C17.0488 17.7563 17.0286 17.5628 17.0286 17.393L17.0298 16.1833L17.0173 14.5205L17.0304 14.416H19.2442Z" fill="#62C4FF"/>
</g>
<defs>
<linearGradient id="paint0_linear_2507_317" x1="27.7116" y1="34.3454" x2="26.5178" y2="18.8473" gradientUnits="userSpaceOnUse">
<stop stop-color="#0091FF"/>
<stop offset="1" stop-color="#D4FFFE"/>
</linearGradient>
<linearGradient id="paint1_linear_2507_317" x1="18.8478" y1="27.3229" x2="20.4649" y2="21.95" gradientUnits="userSpaceOnUse">
<stop stop-color="#4CE0FD"/>
<stop offset="1" stop-color="white"/>
</linearGradient>
<linearGradient id="paint2_linear_2507_317" x1="6.08795" y1="31.7493" x2="14.3342" y2="22.8314" gradientUnits="userSpaceOnUse">
<stop stop-color="#1994FF"/>
<stop offset="1" stop-color="#27DDFE"/>
</linearGradient>
<linearGradient id="paint3_linear_2507_317" x1="20.2374" y1="22.2346" x2="14.4353" y2="1.26471" gradientUnits="userSpaceOnUse">
<stop stop-color="#21A8FF"/>
<stop offset="1" stop-color="#B2FFFD"/>
</linearGradient>
<linearGradient id="paint4_linear_2507_317" x1="14.7713" y1="20.4923" x2="13.0038" y2="15.4632" gradientUnits="userSpaceOnUse">
<stop stop-color="#5DD7FE"/>
<stop offset="1" stop-color="#D8FFFD"/>
</linearGradient>
<clipPath id="clip0_2507_317">
<rect width="38" height="38" fill="white"/>
</clipPath>
</defs>
</svg>
