<svg width="24" height="24" viewBox="0 0 24 24" fill="none" xmlns="http://www.w3.org/2000/svg">
<path fill-rule="evenodd" clip-rule="evenodd" d="M22.5001 12C22.5001 11.8011 22.4211 11.6104 22.2805 11.4697C22.1398 11.329 21.949 11.25 21.7501 11.25H4.06062L8.78112 6.53103C8.92195 6.3902 9.00107 6.19919 9.00107 6.00003C9.00107 5.80087 8.92195 5.60986 8.78112 5.46903C8.64029 5.3282 8.44928 5.24908 8.25012 5.24908C8.05096 5.24908 7.85995 5.3282 7.71912 5.46903L1.71912 11.469C1.64928 11.5387 1.59386 11.6215 1.55605 11.7126C1.51824 11.8037 1.49878 11.9014 1.49878 12C1.49878 12.0987 1.51824 12.1964 1.55605 12.2875C1.59386 12.3786 1.64928 12.4614 1.71912 12.531L7.71912 18.531C7.78885 18.6008 7.87164 18.6561 7.96274 18.6938C8.05385 18.7316 8.1515 18.751 8.25012 18.751C8.44928 18.751 8.64029 18.6719 8.78112 18.531C8.92195 18.3902 9.00107 18.1992 9.00107 18C9.00107 17.8009 8.92195 17.6099 8.78112 17.469L4.06062 12.75H21.7501C21.949 12.75 22.1398 12.671 22.2805 12.5304C22.4211 12.3897 22.5001 12.1989 22.5001 12Z" fill="#1039A5"/>
</svg>
