<svg width="127" height="36" viewBox="0 0 127 36" fill="none" xmlns="http://www.w3.org/2000/svg">
<g clip-path="url(#clip0)">
<path d="M19.8 3.6C19.8 3.93 19.755 4.245 19.6725 4.545L26.22 8.2875C26.8725 7.6125 27.7875 7.2 28.8 7.2C30.7875 7.2 32.4 8.8125 32.4 10.8C32.4 12.48 31.2525 13.89 29.7 14.2875V21.7125C31.2525 22.11 32.4 23.52 32.4 25.2C32.4 27.1875 30.7875 28.8 28.8 28.8C27.7875 28.8 26.8725 28.38 26.22 27.7125L19.6725 31.455C19.755 31.755 19.8 32.0775 19.8 32.4C19.8 34.3875 18.1875 36 16.2 36C14.2125 36 12.6 34.3875 12.6 32.4C12.6 32.07 12.645 31.755 12.7275 31.455L6.18 27.7125C5.5275 28.3875 4.6125 28.8 3.6 28.8C1.6125 28.8 0 27.1875 0 25.2C0 23.52 1.1475 22.11 2.7 21.7125V14.2875C1.1475 13.89 0 12.48 0 10.8C0 8.8125 1.6125 7.2 3.6 7.2C4.6125 7.2 5.5275 7.62 6.18 8.2875L12.7275 4.545C12.645 4.245 12.6 3.9225 12.6 3.6C12.6 1.6125 14.2125 0 16.2 0C18.1875 0 19.8 1.6125 19.8 3.6ZM15.3 7.0875C14.6475 6.9225 14.07 6.5775 13.62 6.1125L7.0725 9.855C7.155 10.155 7.2 10.4775 7.2 10.8C7.2 12.48 6.0525 13.89 4.5 14.2875V21.7125C5.1525 21.8775 5.73 22.2225 6.18 22.6875L12.7275 18.945C12.645 18.645 12.6 18.3225 12.6 18C12.6 16.32 13.7475 14.91 15.3 14.5125V7.0875ZM17.1 7.0875V14.5125C18.6525 14.91 19.8 16.32 19.8 18C19.8 18.33 19.755 18.645 19.6725 18.945L26.22 22.6875C26.67 22.2225 27.2475 21.8775 27.9 21.7125V14.2875C26.3475 13.89 25.2 12.48 25.2 10.8C25.2 10.47 25.245 10.155 25.3275 9.855L18.78 6.1125C18.33 6.5775 17.7525 6.9225 17.1 7.0875ZM16.2 21.6C15.1875 21.6 14.2725 21.18 13.62 20.5125L7.0725 24.255C7.155 24.555 7.2 24.8775 7.2 25.2C7.2 25.5225 7.155 25.845 7.0725 26.145L13.62 29.8875C14.2725 29.2125 15.1875 28.8 16.2 28.8C17.2125 28.8 18.1275 29.22 18.78 29.8875L25.3275 26.145C25.245 25.845 25.2 25.5225 25.2 25.2C25.2 24.8775 25.245 24.555 25.3275 24.255L18.78 20.5125C18.1275 21.18 17.2125 21.6 16.2 21.6Z" fill="#111111"/>
<path d="M39.6226 6.1875C39.6001 6.24 39.6001 6.315 39.6001 6.45V29.52C39.6001 29.685 39.6001 29.775 39.6301 29.835C39.6601 29.895 39.7051 29.94 39.7576 29.9625C39.8251 29.9925 39.9076 29.9925 40.0726 29.9925H51.4501C55.5076 29.9925 58.8001 26.7 58.8001 22.6425C58.8001 20.445 57.8326 18.465 56.3026 17.1225C57.1201 15.975 57.6001 14.5725 57.6001 13.05C57.6001 9.1575 54.4426 6 50.5501 6H40.0501C39.9076 6 39.8401 6 39.7876 6.0225C39.7126 6.0525 39.6526 6.1125 39.6226 6.1875ZM44.4001 20.1H51.4501C52.8601 20.1 54.0001 21.24 54.0001 22.65C54.0001 24.06 52.8601 25.2 51.4501 25.2H44.4001V20.1ZM50.5501 10.8C51.7951 10.8 52.8001 11.805 52.8001 13.05C52.8001 14.295 51.7951 15.3 50.5501 15.3H44.4001V10.8H50.5501Z" fill="#111111"/>
<path d="M63.7499 10.2C65.3249 10.2 66.5999 8.925 66.5999 7.35C66.5999 5.775 65.3249 4.5 63.7499 4.5C62.1749 4.5 60.8999 5.775 60.8999 7.35C60.8999 8.925 62.1749 10.2 63.7499 10.2Z" fill="#111111"/>
<path d="M61.23 12.1648C61.2 12.2323 61.2 12.3148 61.2 12.4798V29.5198C61.2 29.6848 61.2 29.7748 61.23 29.8348C61.26 29.8948 61.305 29.9398 61.3575 29.9623C61.425 29.9923 61.5075 29.9923 61.6725 29.9923H65.8125C65.9775 29.9923 66.0675 29.9923 66.1275 29.9623C66.1875 29.9323 66.2325 29.8873 66.255 29.8348C66.285 29.7673 66.285 29.6848 66.285 29.5198V12.4798C66.285 12.3148 66.285 12.2248 66.255 12.1648C66.225 12.1048 66.18 12.0598 66.1275 12.0373C66.06 12.0073 65.9775 12.0073 65.8125 12.0073H61.6725C61.5075 12.0073 61.4175 12.0073 61.3575 12.0373C61.305 12.0598 61.26 12.1048 61.23 12.1648Z" fill="#111111"/>
<path d="M69.3 6.47982C69.3 6.31482 69.3 6.22482 69.33 6.16482C69.36 6.10482 69.405 6.05982 69.4575 6.03732C69.525 6.00732 69.6075 6.00732 69.7725 6.00732H73.6125C73.7775 6.00732 73.8675 6.00732 73.9275 6.03732C73.9875 6.06732 74.0325 6.11232 74.055 6.16482C74.085 6.23232 74.085 6.31482 74.085 6.47982V12.7723C75.4875 11.9023 77.13 11.3998 78.885 11.3998C84.0225 11.3998 88.185 15.6973 88.185 20.9998C88.185 26.3023 84.0225 30.5998 78.885 30.5998C76.98 30.5998 75.21 30.0073 73.74 28.9948L72.0975 29.9323C72.06 29.9548 72.0375 29.9698 72.015 29.9773C71.9925 29.9848 71.9775 29.9923 71.955 29.9923C71.9325 29.9923 71.91 29.9923 71.8575 29.9923H69.765C69.6 29.9923 69.51 29.9923 69.45 29.9623C69.39 29.9323 69.345 29.8873 69.3225 29.8348C69.2925 29.7673 69.2925 29.6848 69.2925 29.5198V6.47982H69.3ZM78.75 25.7998C81.315 25.7998 83.4 23.6473 83.4 20.9998C83.4 18.3523 81.315 16.1998 78.75 16.1998C76.185 16.1998 74.1 18.3523 74.1 20.9998C74.1 23.6473 76.185 25.7998 78.75 25.7998Z" fill="#111111"/>
<path d="M99.6 30.5999C104.903 30.5999 109.2 26.3024 109.2 20.9999C109.2 15.6974 104.903 11.3999 99.6 11.3999C94.2975 11.3999 90 15.6974 90 20.9999C90 26.3024 94.2975 30.5999 99.6 30.5999ZM99.6 25.7999C96.9525 25.7999 94.8 23.6474 94.8 20.9999C94.8 18.3524 96.9525 16.1999 99.6 16.1999C102.248 16.1999 104.4 18.3524 104.4 20.9999C104.4 23.6474 102.248 25.7999 99.6 25.7999Z" fill="#111111"/>
<path d="M108.6 12H114.375L117.6 16.7475L120.825 12H126.6L120.488 21L126.6 30H120.825L117.6 25.2525L114.375 30H108.6L114.713 21L108.6 12Z" fill="#111111"/>
<path fill-rule="evenodd" clip-rule="evenodd" d="M99.6 30.5999C104.903 30.5999 109.2 26.3024 109.2 20.9999C109.2 15.6974 104.903 11.3999 99.6 11.3999C94.2975 11.3999 90 15.6974 90 20.9999C90 26.3024 94.2975 30.5999 99.6 30.5999Z" fill="#247BFF"/>
<path d="M99.5025 14.355C99.345 14.31 99.18 14.4075 99.135 14.565L98.745 16.0125L97.2975 15.6225C97.14 15.5775 96.975 15.675 96.93 15.8325L96.6225 16.995C96.5775 17.1525 96.675 17.3175 96.8325 17.3625L97.7025 17.595L96.3075 22.8075L95.4375 22.575C95.28 22.53 95.115 22.6275 95.07 22.785L94.7625 23.9475C94.7175 24.105 94.815 24.27 94.9725 24.315L96.42 24.705L96.03 26.1525C95.985 26.31 96.0825 26.475 96.24 26.52L96.8175 26.6775C96.975 26.7225 97.14 26.625 97.185 26.4675L97.575 25.02L98.73 25.3275L98.34 26.775C98.295 26.9325 98.3925 27.0975 98.55 27.1425L99.1275 27.3C99.285 27.345 99.45 27.2475 99.495 27.09L99.885 25.6425L100.282 25.7475C101.745 26.1375 103.245 25.275 103.635 23.8125C103.867 22.935 103.65 22.0425 103.117 21.3825C103.5 21.0525 103.792 20.61 103.935 20.085C104.295 18.7425 103.53 17.3625 102.217 16.95L102.607 15.5025C102.652 15.345 102.555 15.18 102.397 15.135L101.82 14.9775C101.662 14.9325 101.497 15.03 101.452 15.1875L101.062 16.635L99.9 16.3275L100.29 14.88C100.335 14.7225 100.237 14.5575 100.08 14.5125L99.5025 14.355ZM98.565 21.3225L101.212 22.0275C101.752 22.17 102.075 22.725 101.925 23.265C101.782 23.805 101.227 24.1275 100.687 23.9775L98.04 23.2725L98.565 21.3225ZM101.58 18.6375C102.037 18.7575 102.315 19.2375 102.187 19.695C102.067 20.1525 101.587 20.43 101.13 20.3025L98.9925 19.7325L99.4425 18.0675L101.58 18.6375Z" fill="white"/>
</g>
<defs>
<clipPath id="clip0">
<rect width="126.6" height="36" fill="white"/>
</clipPath>
</defs>
</svg>
