<svg width="38" height="38" viewBox="0 0 38 38" fill="none" xmlns="http://www.w3.org/2000/svg">
<path d="M22.8148 35.9421C20.3657 36.545 17.8264 36.5023 15.3726 35.9632C14.539 35.78 13.7177 35.5517 12.9198 35.2471C12.2473 34.9904 11.6071 34.6831 10.9717 34.3465C9.79293 33.7221 8.69414 32.9392 7.68368 32.072L6.73902 31.2367C5.32609 29.8679 4.12778 28.2277 3.25982 26.4635C3.00395 25.9434 2.73007 25.3859 2.55933 24.8315C2.97877 25.1042 3.46496 25.2787 3.92844 25.4643C3.94803 25.4843 3.95305 25.4946 3.98002 25.5028L4.34422 25.6613L4.84288 25.8839L5.08409 25.9952L5.33574 26.1211C5.368 26.1371 5.35311 26.131 5.38205 26.1388C5.41209 26.1468 5.44207 26.1689 5.47374 26.1808C5.50427 26.1923 5.53114 26.21 5.5583 26.2276C5.58611 26.2456 5.59422 26.2443 5.62218 26.255L5.67774 26.2825L5.70619 26.2964L5.81688 26.3562L5.91905 26.4034L5.93696 26.4165C5.95948 26.4324 5.97002 26.4301 5.99327 26.4404L6.03953 26.4675L6.06749 26.4777L6.0854 26.4905C6.18614 26.5608 6.32671 26.6144 6.43908 26.6712L6.93441 26.9477C7.45682 27.2529 7.97219 27.622 8.46139 27.9786L10.0087 29.1714C11.0468 30.0553 12.0053 31.0582 13.1881 31.7567C13.3192 31.834 13.4731 31.9384 13.6152 31.9906C14.4956 32.4524 15.4035 32.6696 16.3811 32.8106L17.8288 33.0016C18.9407 33.1863 20.0225 33.5296 21.0038 34.0863C21.3606 34.2887 21.7139 34.5176 22.0033 34.8114C22.3238 35.137 22.5955 35.542 22.8148 35.9421Z" fill="#62C4FF"/>
<path d="M11.3234 2.99873C12.0521 2.58476 12.8657 2.28017 13.6564 2.00915C15.3393 1.43237 17.1551 1.07381 18.9387 1.06026C19.3158 1.05739 19.6919 1.08623 20.0677 1.11279C21.1945 1.19244 22.3246 1.37627 23.4148 1.67429C23.9892 1.83132 24.5356 2.03087 25.0897 2.24634C27.0016 2.98976 28.7734 4.0201 30.3063 5.38924C30.824 5.8109 31.2904 6.30891 31.7387 6.80162C32.3116 7.4311 32.8512 8.07304 33.3421 8.76936C34.165 9.93653 34.8345 11.2236 35.3534 12.5525L35.6568 13.3983C35.708 13.5468 35.7828 13.7138 35.8035 13.869C35.955 14.3346 36.058 14.8167 36.1608 15.2947C36.1933 15.4459 36.2447 15.6056 36.262 15.7584C36.375 16.2339 36.4282 16.7237 36.4736 17.2099C36.5644 18.1828 36.5831 19.1727 36.5071 20.1475C36.4936 20.32 36.4964 20.5076 36.4619 20.6761L36.433 21.0166L36.4304 21.0177L36.4166 20.9765C36.3572 20.9632 36.2794 21.0024 36.223 21.0239L35.6968 21.2211L34.9066 21.4651C34.0012 21.6967 33.0936 21.8022 32.164 21.8691C31.2867 21.9322 30.3972 21.9239 29.5205 21.8565C29.107 21.8247 28.6917 21.7953 28.2816 21.7312C26.9994 21.5307 25.7532 21.1746 24.5278 20.7536C23.9874 20.5679 23.4376 20.3978 22.9151 20.165L21.8634 19.643L20.9994 19.19C20.2809 18.7667 19.5847 18.2869 18.9028 17.8071L17.6271 16.8964L16.6752 16.1013C16.4077 15.8252 16.0954 15.5807 15.857 15.2781C15.6267 14.9859 15.4112 14.6644 15.3154 14.3C15.2177 13.9287 15.2187 13.5302 15.1874 13.15C15.1716 12.9573 15.1691 12.7306 15.1148 12.5457L15.1089 12.527C15.2565 11.8517 15.0593 11.1323 14.7172 10.5444C14.5908 10.3273 14.4474 10.1425 14.2553 9.97933C13.9325 9.70526 13.5223 9.51195 13.1378 9.34228C12.2876 8.96718 11.4244 8.71038 10.5134 8.52845C9.86123 8.39817 9.2087 8.33449 8.56274 8.16596L7.75242 7.90174L7.58167 7.85405L7.4603 7.81793L7.01696 7.66899C6.69906 7.56538 6.39773 7.41982 6.10422 7.26129C6.10254 7.25416 6.00873 7.19652 5.99487 7.18731C6.26364 6.93032 6.49412 6.64408 6.74443 6.37016L7.56416 5.54352C7.95702 5.16703 8.4105 4.83085 8.85353 4.51545C9.40849 4.12038 9.97325 3.74908 10.5644 3.41012C10.8103 3.2691 11.0641 3.11289 11.3234 2.99873Z" fill="url(#paint0_linear_2506_31)"/>
<path d="M33.1849 21.1616L33.2305 21.1718L33.2409 21.2172L33.1851 21.2174L33.1849 21.1616Z" fill="#62C4FF"/>
<path d="M24.2601 8.13643L24.3159 8.13623L24.3161 8.19204L24.2703 8.18487L24.2601 8.13643Z" fill="#94ECFF"/>
<path d="M15.8333 11.4204L15.8735 11.4388V11.4904L15.8179 11.4632L15.8333 11.4204Z" fill="#62C4FF"/>
<path d="M18.6181 6.78174L18.6658 6.7899L18.6755 6.83745L18.6196 6.8376L18.6181 6.78174Z" fill="#62C4FF"/>
<path d="M20.1035 5.31612L20.1597 5.31592L20.1784 5.37173C20.1542 5.37188 20.1374 5.36842 20.114 5.36282L20.1035 5.31612Z" fill="#62C4FF"/>
<path d="M18.7717 2.21746C18.8051 2.21183 18.7863 2.2111 18.827 2.22811L18.8125 2.27313L18.7681 2.26239L18.7717 2.21746Z" fill="#94ECFF"/>
<path d="M29.1947 11.7915L29.2329 11.8091V11.8659C29.2124 11.8629 29.1963 11.8552 29.1773 11.8474L29.1947 11.7915Z" fill="#94ECFF"/>
<path d="M30.6614 14.3708L30.7359 14.3706L30.736 14.4264L30.6616 14.4266L30.6614 14.3708Z" fill="#62C4FF"/>
<path d="M20.3149 8.72998C20.3391 8.73117 20.3483 8.7373 20.3693 8.74849L20.3452 8.79866L20.321 8.804L20.2951 8.77664L20.3149 8.72998Z" fill="#62C4FF"/>
<path d="M24.6111 9.2496C24.6432 9.24509 24.6259 9.24386 24.6624 9.25875L24.6684 9.30541C24.6316 9.31273 24.6264 9.31362 24.5928 9.30521L24.6111 9.2496Z" fill="#62C4FF"/>
<path d="M23.5736 8.00644L23.6103 7.99951C23.6212 8.04686 23.6145 8.04107 23.5923 8.08086L23.5719 8.09238L23.5449 8.05315L23.5736 8.00644Z" fill="#62C4FF"/>
<path d="M32.1145 17.7663C32.1642 17.7635 32.1414 17.7576 32.1832 17.7833L32.183 17.822C32.1413 17.8291 32.1449 17.8265 32.1089 17.8121L32.1145 17.7663Z" fill="#62C4FF"/>
<path d="M21.9222 5.31607L21.9572 5.31592L21.9595 5.40899H21.9073C21.9004 5.36302 21.9068 5.35778 21.9222 5.31607Z" fill="#94ECFF"/>
<path d="M19.5017 4.83339C19.5339 4.825 19.5376 4.82514 19.5723 4.83339L19.5113 4.88905L19.4636 4.89284L19.4517 4.8705L19.5017 4.83339Z" fill="#94ECFF"/>
<path d="M30.067 20.271L30.078 20.281C30.1039 20.3241 30.1068 20.3385 30.0909 20.3823L30.058 20.3722L30.04 20.3177L30.067 20.271Z" fill="#62C4FF"/>
<path d="M16.001 12.7378C16.0282 12.7503 16.0433 12.7642 16.0654 12.7839L16.0442 12.8305L16.0092 12.8241C15.9954 12.7834 15.9855 12.7798 16.001 12.7378Z" fill="#62C4FF"/>
<path d="M19.8441 6.00248C19.8815 5.99521 19.8917 6.00001 19.9269 6.01124L19.937 6.04835C19.9069 6.06344 19.8956 6.06047 19.8628 6.05835L19.8441 6.00248Z" fill="#62C4FF"/>
<path d="M26.4752 14.9087C26.5029 14.9136 26.5194 14.9287 26.5425 14.9442V14.9858C26.4985 14.9891 26.5047 14.9842 26.472 14.9592L26.4752 14.9087Z" fill="#62C4FF"/>
<path d="M22.6125 16.8384L22.6423 16.8399C22.6738 16.8676 22.6734 16.8712 22.6829 16.9126C22.6424 16.9151 22.6435 16.9107 22.6101 16.8922L22.6125 16.8384Z" fill="#62C4FF"/>
<path d="M19.9993 7.64795L20.1133 7.66304L20.1226 7.67744L20.0913 7.68031L20.0806 7.71915L20.069 7.72598L20.053 7.7048L20.0205 7.7187L19.988 7.6955L19.9993 7.64795Z" fill="#62C4FF"/>
<path d="M24.6749 13.4243L24.7209 13.4244L24.7368 13.4614L24.6871 13.488L24.6313 13.4648C24.6436 13.4467 24.6577 13.4375 24.6749 13.4243Z" fill="#62C4FF"/>
<path d="M18.7943 3.40498C18.8363 3.39383 18.8148 3.39305 18.8585 3.41081L18.8468 3.46065C18.8092 3.47462 18.8294 3.47278 18.7861 3.46216L18.7943 3.40498Z" fill="#94ECFF"/>
<path d="M22.602 6.09521L22.6309 6.10536C22.6325 6.1538 22.6286 6.18062 22.6091 6.22505L22.5987 6.215C22.5829 6.15617 22.581 6.15192 22.602 6.09521Z" fill="#94ECFF"/>
<path d="M27.7726 13.7768C27.8077 13.771 27.8103 13.7721 27.8414 13.7848L27.8397 13.8324C27.7936 13.8449 27.8165 13.8463 27.7711 13.8261L27.7726 13.7768Z" fill="#62C4FF"/>
<path d="M21.1201 12.478C21.1546 12.4806 21.1716 12.4995 21.1999 12.5185L21.2032 12.5708L21.1813 12.5692C21.1433 12.5338 21.1349 12.5272 21.1201 12.478Z" fill="#62C4FF"/>
<path d="M23.6039 16.2263C23.6396 16.2141 23.6421 16.2187 23.6771 16.2263L23.6851 16.2703C23.6471 16.2893 23.6517 16.2851 23.6133 16.2794L23.6039 16.2263Z" fill="#62C4FF"/>
<path d="M20.5696 8.78557C20.611 8.77973 20.6011 8.78142 20.6314 8.80418L20.6235 8.86904C20.5979 8.85974 20.5815 8.84782 20.5594 8.83228L20.5696 8.78557Z" fill="#62C4FF"/>
<path d="M19.5675 9.17518C19.6055 9.17087 19.6151 9.1682 19.6512 9.18413L19.6354 9.23079C19.5941 9.23767 19.6023 9.24227 19.5613 9.2201L19.5675 9.17518Z" fill="#62C4FF"/>
<path d="M28.5267 21.3286L28.5605 21.3338C28.5861 21.3844 28.586 21.3845 28.5743 21.4399C28.5531 21.4272 28.5274 21.3859 28.5107 21.3657L28.5267 21.3286Z" fill="#62C4FF"/>
<path d="M26.2224 14.2036L26.2596 14.2074L26.2716 14.2407L26.2413 14.2778L26.1975 14.2697L26.1758 14.2321L26.2224 14.2036Z" fill="#62C4FF"/>
<path d="M26.5965 10.1401L26.6018 10.1434C26.6354 10.1776 26.6474 10.1846 26.6537 10.2329L26.6108 10.2309L26.5716 10.1868L26.5965 10.1401Z" fill="#94ECFF"/>
<path d="M26.8874 17.1725L26.9295 17.1719C26.9432 17.2134 26.9322 17.2139 26.9136 17.2513C26.8722 17.2461 26.8798 17.2459 26.853 17.2189L26.8874 17.1725Z" fill="#62C4FF"/>
<path d="M30.6541 20.7534C30.7032 20.7485 30.7062 20.7469 30.7481 20.7719L30.7571 20.8277L30.7433 20.8293C30.702 20.8072 30.6815 20.7916 30.6541 20.7534Z" fill="#62C4FF"/>
<path d="M15.699 9.62059C15.7175 9.61603 15.7338 9.619 15.7526 9.62059L15.8139 9.73192C15.7621 9.72232 15.7284 9.66205 15.699 9.62059Z" fill="#62C4FF"/>
<path d="M25.9805 10.1956C26.0158 10.1904 26.0516 10.1955 26.0871 10.1979L26.0972 10.2343C26.0511 10.2382 26.0135 10.2398 25.9673 10.2329L25.9805 10.1956Z" fill="#62C4FF"/>
<path d="M23.0765 4.79639L23.1011 4.80475L23.1147 4.8335L23.0695 4.88916L23.0278 4.87901L23.028 4.84277L23.0765 4.79639Z" fill="#94ECFF"/>
<path d="M28.7389 17.2281L28.7878 17.2173L28.8149 17.2466L28.8035 17.3023L28.7691 17.3174L28.7389 17.2281Z" fill="#62C4FF"/>
<path d="M31.3246 19.4917C31.369 19.4855 31.3656 19.4765 31.4039 19.5054L31.3853 19.5497L31.3478 19.5733L31.3111 19.5293L31.3246 19.4917Z" fill="#62C4FF"/>
<path d="M25.4483 15.4468L25.4903 15.4492L25.5124 15.4839L25.4848 15.5277C25.4434 15.5217 25.4523 15.5306 25.423 15.4931L25.4483 15.4468Z" fill="#62C4FF"/>
<path d="M20.2327 14.2776C20.2743 14.2655 20.2651 14.269 20.3001 14.2869L20.3081 14.3383L20.2707 14.3637C20.241 14.331 20.241 14.3217 20.2327 14.2776Z" fill="#62C4FF"/>
<path d="M22.3556 17.1912C22.397 17.1845 22.3953 17.1773 22.4337 17.2001L22.4231 17.2468C22.379 17.2552 22.3878 17.2615 22.3455 17.2358L22.3556 17.1912Z" fill="#62C4FF"/>
<path d="M22.8128 6.91159C22.8508 6.91065 22.8317 6.90619 22.8687 6.92994L22.8501 7.00451C22.8261 7.02173 22.8408 7.01619 22.8036 7.01371C22.791 6.96903 22.7992 6.95671 22.8128 6.91159Z" fill="#94ECFF"/>
<path d="M20.026 1.77193L20.0675 1.76367L20.0954 1.79049L20.0683 1.84615C20.0299 1.85137 20.0363 1.84776 20.0065 1.8276L20.026 1.77193Z" fill="#94ECFF"/>
<path d="M26.4867 15.5952C26.5333 15.6196 26.5443 15.6608 26.5636 15.7065L26.5237 15.7117L26.4843 15.6762L26.4867 15.5952Z" fill="#62C4FF"/>
<path d="M23.6107 6.0583L23.6575 6.05811C23.6973 6.08562 23.7092 6.0874 23.7245 6.13252C23.6782 6.13688 23.6607 6.12802 23.6209 6.10501L23.6107 6.0583Z" fill="#94ECFF"/>
<path d="M15.392 12.8306L15.4319 12.8408L15.4653 12.9613L15.4251 12.957C15.407 12.9134 15.3917 12.8789 15.392 12.8306Z" fill="#62C4FF"/>
<path d="M21.7327 1.82764L21.7518 1.83218C21.779 1.87762 21.7692 1.88804 21.7645 1.93896L21.7225 1.93359C21.7116 1.88284 21.7142 1.8766 21.7327 1.82764Z" fill="#94ECFF"/>
<path d="M27.2103 16.4116C27.2449 16.4113 27.2786 16.4254 27.3117 16.4353L27.3218 16.4719L27.2835 16.4889L27.229 16.4674L27.2103 16.4116Z" fill="#62C4FF"/>
<path d="M30.322 18.7124L30.3557 18.7139L30.3698 18.7495L30.3277 18.7886L30.2642 18.7739L30.257 18.7495L30.322 18.7124Z" fill="#62C4FF"/>
<path d="M12.8307 6.8374L12.8698 6.83948L12.8847 6.86758L12.8491 6.91692L12.796 6.91434L12.7857 6.88376L12.8307 6.8374Z" fill="#62C4FF"/>
<path d="M30.9583 21.0876L31.0052 21.085L31.0154 21.1154L30.977 21.162L30.9214 21.1806C30.9211 21.1288 30.9255 21.1286 30.9583 21.0876Z" fill="#62C4FF"/>
<path d="M25.9224 14.9828L25.9522 14.9819L25.9715 15.0385L25.9488 15.0803L25.9082 15.0729L25.8887 15.0385L25.9224 14.9828Z" fill="#62C4FF"/>
<path d="M28.0241 17.061L28.0449 17.0698L28.0729 17.1627L28.0454 17.1983L27.9898 17.1392L28.0241 17.061Z" fill="#62C4FF"/>
<path d="M29.3812 12.8307L29.5298 12.8306V12.868C29.4736 12.8761 29.4194 12.8708 29.3629 12.868L29.3812 12.8307Z" fill="#62C4FF"/>
<path d="M18.2593 9.39774L18.2964 9.3877L18.3413 9.4161L18.3384 9.45335L18.2946 9.48195L18.2626 9.46107L18.2593 9.39774Z" fill="#62C4FF"/>
<path d="M25.5928 16.0962L25.6071 16.1053C25.6315 16.1571 25.644 16.1686 25.6333 16.2263C25.5878 16.1978 25.5859 16.1924 25.5638 16.1429L25.5928 16.0962Z" fill="#62C4FF"/>
<path d="M26.9882 15.6323C27.0193 15.6375 27.0536 15.6664 27.0805 15.6833V15.7297L27.0281 15.7263C26.9966 15.6866 26.9925 15.6824 26.9882 15.6323Z" fill="#62C4FF"/>
<path d="M30.1869 16.8013C30.2246 16.8007 30.2297 16.8118 30.26 16.8324L30.2535 16.8771C30.2064 16.8845 30.21 16.8849 30.1714 16.857L30.1869 16.8013Z" fill="#62C4FF"/>
<path d="M10.6121 6.15097L10.6652 6.14795L10.7149 6.19357L10.7159 6.24379L10.7087 6.2431C10.6524 6.22533 10.6439 6.19753 10.6121 6.15097Z" fill="#62C4FF"/>
<path d="M27.0421 18.6754C27.0768 18.6637 27.0579 18.6661 27.0991 18.6712L27.1034 18.7032L27.0642 18.7496L27.0239 18.7599L26.9944 18.731L27.0421 18.6754Z" fill="#62C4FF"/>
<path d="M18.5651 7.25119C18.5834 7.24407 18.6026 7.24184 18.6219 7.23828C18.6422 7.27851 18.6667 7.31324 18.6567 7.3597L18.6235 7.35673L18.5651 7.25119Z" fill="#62C4FF"/>
<path d="M27.1921 16.0776L27.2294 16.0797C27.2635 16.1163 27.2779 16.1233 27.2847 16.172L27.2445 16.1727C27.2051 16.1328 27.1918 16.1329 27.1921 16.0776Z" fill="#62C4FF"/>
<path d="M26.2397 10.0658L26.2802 10.0649C26.3078 10.1098 26.3012 10.1368 26.3012 10.1887C26.2672 10.1658 26.2545 10.1463 26.231 10.1133L26.2397 10.0658Z" fill="#94ECFF"/>
<path d="M33.3248 15.9292C33.3727 15.932 33.4151 15.9371 33.4622 15.9477L33.4449 15.9771C33.3948 15.981 33.3578 15.995 33.3149 15.9665L33.3248 15.9292Z" fill="#62C4FF"/>
<path d="M19.6771 3.38647L19.7036 3.38428L19.7373 3.4143L19.7329 3.49487L19.7068 3.49916L19.6761 3.46997L19.6771 3.38647Z" fill="#94ECFF"/>
<path d="M26.0092 9.15674C26.0707 9.15649 26.0713 9.17069 26.1136 9.21246L26.0983 9.24956C26.0584 9.24333 26.0364 9.22473 26.0044 9.20122L26.0092 9.15674Z" fill="#94ECFF"/>
<path d="M29.4349 11.5502L29.4927 11.5405L29.523 11.5777L29.4946 11.6244C29.4513 11.6234 29.4499 11.6163 29.4153 11.5934L29.4349 11.5502Z" fill="#94ECFF"/>
<path d="M22.0134 10.5112C22.0372 10.503 22.0225 10.5046 22.0569 10.5206C22.0604 10.5777 22.0682 10.5854 22.0337 10.6298C22.0121 10.628 21.9959 10.6201 21.9759 10.6122C21.9973 10.5858 22.0037 10.5743 22.0098 10.5397L22.0134 10.5112Z" fill="#62C4FF"/>
<path d="M21.9593 6.09523C21.9972 6.09503 21.9781 6.09043 22.0152 6.11358V6.22526L21.9873 6.23906L21.9594 6.22526L21.9593 6.09523Z" fill="#94ECFF"/>
<path d="M13.2173 6.89283L13.2669 6.88477C13.292 6.92529 13.2789 6.94008 13.2716 6.98565L13.2365 6.98575L13.2028 6.94854L13.2173 6.89283Z" fill="#62C4FF"/>
<path d="M9.84247 7.18994C9.89111 7.1936 9.88685 7.20513 9.91753 7.24021L9.90679 7.28276C9.85217 7.27623 9.8541 7.27806 9.81818 7.23665L9.84247 7.18994Z" fill="#62C4FF"/>
<path d="M19.7338 10.7896C19.8027 10.8038 19.8048 10.8213 19.8472 10.8749L19.835 10.9009L19.8234 10.9121C19.7748 10.8773 19.7586 10.8417 19.7338 10.7896Z" fill="#62C4FF"/>
<path d="M23.6478 8.17335C23.6997 8.1731 23.6997 8.17726 23.7407 8.21026V8.28483L23.7222 8.29413C23.6799 8.25341 23.6574 8.23272 23.6478 8.17335Z" fill="#62C4FF"/>
<path d="M30.9378 18.6011L30.9734 18.6028L31.0018 18.6382L30.9736 18.6938L30.9347 18.7178C30.9157 18.6582 30.9144 18.6588 30.9378 18.6011Z" fill="#62C4FF"/>
<path d="M26.514 17.1538L26.5458 17.1564C26.5594 17.1808 26.5741 17.199 26.5935 17.219L26.6167 17.2428L26.5988 17.2836L26.5009 17.1986L26.514 17.1538Z" fill="#62C4FF"/>
<path d="M10.4579 8.02513L10.5151 8.02246L10.5278 8.06224L10.4739 8.09935L10.4307 8.10534L10.4036 8.08075L10.4579 8.02513Z" fill="#62C4FF"/>
<path d="M24.0861 10.5775C24.0682 10.6154 24.0716 10.6074 24.0376 10.6235C23.997 10.5969 23.9994 10.5954 23.9856 10.5482L24.057 10.4976L24.0861 10.5775Z" fill="#62C4FF"/>
<path d="M30.2491 19.0094C30.2867 19.0053 30.3198 19.0231 30.3547 19.0358L30.3648 19.0776C30.3105 19.0947 30.3109 19.0891 30.2584 19.065L30.2491 19.0094Z" fill="#62C4FF"/>
<path d="M19.2012 8.13638L19.2475 8.13623L19.2788 8.17349L19.2691 8.23321L19.2194 8.22871C19.1938 8.18447 19.1914 8.18596 19.2012 8.13638Z" fill="#62C4FF"/>
<path d="M19.7508 1.45654L19.7705 1.46095C19.7931 1.5163 19.7825 1.52995 19.7679 1.58643L19.7279 1.58295C19.711 1.51723 19.7211 1.5145 19.7508 1.45654Z" fill="#94ECFF"/>
<path d="M22.0114 2.51416C22.064 2.52236 22.0694 2.54824 22.1007 2.58838L22.0708 2.62656L22.0667 2.62316C22.0294 2.60113 22.0066 2.5863 21.9781 2.55301L22.0114 2.51416Z" fill="#94ECFF"/>
<path d="M28.4079 19.1206L28.4394 19.1231C28.489 19.1851 28.4979 19.1821 28.4907 19.2654L28.4725 19.2649C28.433 19.2233 28.4233 19.1741 28.4079 19.1206Z" fill="#62C4FF"/>
<path d="M32.2005 15.0757L32.2573 15.094L32.2481 15.1221L32.1831 15.1501H32.1089L32.1087 15.1128L32.2005 15.0757Z" fill="#62C4FF"/>
<path d="M17.3735 13.9624L17.3961 13.9714C17.4284 14.014 17.4583 14.0377 17.4627 14.0922L17.416 14.0905L17.3579 14.0047L17.3735 13.9624Z" fill="#62C4FF"/>
<path d="M18.8421 6.48486C18.8556 6.52128 18.8498 6.5435 18.8423 6.5808L18.7867 6.61549C18.7695 6.60366 18.7656 6.58684 18.7566 6.56838C18.7804 6.52499 18.8 6.5103 18.8421 6.48486Z" fill="#62C4FF"/>
<path d="M28.0521 21.0874L28.0691 21.0911C28.1049 21.1067 28.1257 21.128 28.1434 21.1616L28.1196 21.2074L28.0728 21.2172C28.0709 21.1677 28.0506 21.1372 28.0521 21.0874Z" fill="#62C4FF"/>
<path d="M27.0775 14.3336L27.1182 14.3262C27.1605 14.3682 27.1604 14.3788 27.1734 14.4379L27.1504 14.4438L27.0816 14.3893L27.0775 14.3336Z" fill="#62C4FF"/>
<path d="M24.4614 14.1479C24.4987 14.1619 24.5356 14.1851 24.571 14.2036L24.5757 14.2411L24.5496 14.2456C24.5086 14.2482 24.4725 14.2163 24.4414 14.1944L24.4614 14.1479Z" fill="#62C4FF"/>
<path d="M26.4277 10.4927L26.4494 10.5031L26.4522 10.5229C26.4555 10.5732 26.4234 10.6073 26.3941 10.6446L26.3533 10.6226C26.3616 10.569 26.3953 10.534 26.4277 10.4927Z" fill="#62C4FF"/>
<path d="M17.366 7.20863C17.4151 7.20453 17.4267 7.2211 17.467 7.24574L17.4507 7.28151L17.4136 7.27365L17.4063 7.27206L17.2931 7.2549V7.2406L17.366 7.20863Z" fill="#62C4FF"/>
<path d="M16.6344 1.80908C16.6848 1.81518 16.6859 1.81947 16.7228 1.85508L16.6899 1.89578L16.6175 1.8833L16.6056 1.84619L16.6344 1.80908Z" fill="#94ECFF"/>
<path d="M35.8453 17.6177C35.868 17.6234 35.8573 17.6184 35.8802 17.6383C35.9081 17.6627 35.9 17.6752 35.9027 17.7104L35.8637 17.7476L35.823 17.729C35.8195 17.6762 35.8228 17.6658 35.8453 17.6177Z" fill="#94ECFF"/>
<path d="M18.1768 1.79051L18.2292 1.78027C18.2598 1.80929 18.2724 1.8265 18.2856 1.86664C18.2315 1.87025 18.2181 1.87533 18.1716 1.84932L18.1768 1.79051Z" fill="#94ECFF"/>
<path d="M28.2044 20.2525C28.2371 20.2449 28.2504 20.2471 28.2827 20.2525L28.2944 20.2896L28.2495 20.3154C28.2121 20.32 28.185 20.3182 28.1478 20.3143L28.1465 20.2896L28.2044 20.2525Z" fill="#62C4FF"/>
<path d="M14.8523 6.93018L14.9087 6.93191L14.9261 6.96729L14.8716 7.02508C14.8393 7.04596 14.8576 7.03898 14.8159 7.04388C14.8098 6.99163 14.8273 6.97545 14.8523 6.93018Z" fill="#62C4FF"/>
<path d="M23.9759 10.9007C23.9992 10.8929 24.0133 10.8933 24.0376 10.8937C24.0699 10.9362 24.0712 10.9402 24.0738 10.9935L24.046 11.0133L24.0191 11.0045L23.9759 10.9007Z" fill="#62C4FF"/>
<path d="M22.7444 10.938L22.789 10.9382C22.8461 10.9768 22.8759 10.9799 22.8898 11.0493L22.8479 11.0502C22.7974 11.0183 22.7755 10.9869 22.7444 10.938Z" fill="#62C4FF"/>
<path d="M24.2756 15.4097L24.3531 15.4019L24.3885 15.4312L24.3826 15.4839C24.3386 15.4793 24.2985 15.4787 24.2603 15.4542L24.2756 15.4097Z" fill="#62C4FF"/>
<path d="M24.1115 18.2856L24.1538 18.2994L24.1826 18.3868L24.1424 18.397C24.1097 18.3727 24.0817 18.3467 24.0528 18.3182L24.1115 18.2856Z" fill="#62C4FF"/>
<path d="M27.8961 14.7229C27.9286 14.7116 27.9111 14.7128 27.9486 14.7229L27.9712 14.8526L27.9288 14.8528C27.8835 14.7971 27.892 14.7916 27.8961 14.7229Z" fill="#62C4FF"/>
<path d="M15.5583 11.0492C15.5952 11.0479 15.6168 11.0493 15.6509 11.0637C15.6845 11.1239 15.6927 11.1475 15.6882 11.2163L15.677 11.2082C15.6574 11.1806 15.6497 11.1527 15.6261 11.1255L15.5583 11.0492Z" fill="#62C4FF"/>
<path d="M14.5558 6.26221L14.5892 6.26839C14.5935 6.33133 14.5712 6.3484 14.5376 6.40035C14.501 6.38754 14.5049 6.38729 14.482 6.36037L14.5558 6.26221Z" fill="#62C4FF"/>
<path d="M31.8757 16.3745C31.8981 16.3769 31.8831 16.3739 31.9176 16.393C31.92 16.451 31.9221 16.4883 31.894 16.5415L31.8638 16.5271C31.8573 16.4694 31.8508 16.4295 31.8757 16.3745Z" fill="#62C4FF"/>
<path d="M32.1199 14.3337L32.174 14.3267L32.2194 14.3534C32.2634 14.3749 32.2787 14.3903 32.313 14.4267L32.2782 14.444L32.248 14.4173C32.1834 14.3837 32.1659 14.3979 32.1199 14.3337Z" fill="#94ECFF"/>
<path d="M17.4076 7.46849C17.448 7.45518 17.448 7.45261 17.4869 7.46849L17.5003 7.5056L17.4623 7.54271L17.395 7.55151L17.3708 7.51485L17.4076 7.46849Z" fill="#62C4FF"/>
<path d="M26.3507 16.8198L26.3903 16.8383L26.395 16.933L26.357 16.9491C26.3434 16.921 26.3342 16.9092 26.3098 16.8882L26.2871 16.8697L26.2863 16.8438L26.3507 16.8198Z" fill="#62C4FF"/>
<path d="M27.5778 10.8081C27.6247 10.8307 27.6553 10.8637 27.6929 10.8989V10.9381H27.6407C27.6065 10.9095 27.5867 10.8831 27.563 10.8454L27.5778 10.8081Z" fill="#94ECFF"/>
<path d="M33.4062 19.399C33.4534 19.3989 33.4927 19.3977 33.5376 19.4151L33.5005 19.447C33.4473 19.4684 33.4194 19.4641 33.3644 19.4568L33.3557 19.4274L33.4062 19.399Z" fill="#62C4FF"/>
<path d="M21.1868 12.1997L21.2123 12.2012L21.224 12.2276L21.1822 12.2943L21.1245 12.2823L21.0773 12.2646L21.0745 12.2368C21.1069 12.2306 21.1337 12.2246 21.164 12.2109L21.1868 12.1997Z" fill="#62C4FF"/>
<path d="M27.4238 12.478L27.4702 12.5106L27.4829 12.5981L27.4516 12.6282C27.4222 12.6208 27.4164 12.6136 27.3948 12.5934L27.4238 12.478Z" fill="#62C4FF"/>
<path d="M23.9075 8.52603L23.9726 8.52588C23.9947 8.54463 24.0059 8.55428 24.0353 8.56012L24.0562 8.56299V8.619L24.03 8.63493L24.0005 8.619C23.9738 8.60341 23.9593 8.59099 23.928 8.58476L23.9077 8.58189L23.9075 8.52603Z" fill="#62C4FF"/>
<path d="M23.0729 10.2145C23.096 10.2128 23.1077 10.2231 23.1282 10.2331L23.1191 10.2702L23.1469 10.2715L23.176 10.3247L23.1469 10.3628C23.1252 10.3498 23.1046 10.3318 23.0844 10.3164L23.0913 10.298L23.0647 10.2611L23.0729 10.2145Z" fill="#62C4FF"/>
<path d="M31.9205 18.0073C31.9753 18.0164 31.9843 18.0408 32.0205 18.0815L32.003 18.1372C31.9582 18.133 31.9301 18.0844 31.8998 18.0517L31.9205 18.0073Z" fill="#62C4FF"/>
<path d="M18.6843 6.0582C18.7465 6.05236 18.7851 6.07112 18.8403 6.09531L18.8423 6.13425L18.835 6.13386C18.8086 6.12836 18.7857 6.12109 18.7582 6.12124C18.717 6.12154 18.7084 6.12416 18.67 6.10486L18.6843 6.0582Z" fill="#62C4FF"/>
<path d="M27.2946 21.3286C27.3476 21.3336 27.3586 21.357 27.396 21.3933V21.4416C27.3346 21.4347 27.3174 21.4231 27.2728 21.3843L27.2946 21.3286Z" fill="#62C4FF"/>
<path d="M18.385 9.65771C18.4425 9.67201 18.4475 9.70195 18.479 9.75044L18.4625 9.80615C18.444 9.80556 18.429 9.79784 18.4118 9.79131C18.3926 9.73936 18.3766 9.71308 18.385 9.65771Z" fill="#62C4FF"/>
<path d="M24.0556 9.97314C24.0796 9.97819 24.0703 9.97379 24.0901 9.98764C24.1239 10.0114 24.1497 10.0301 24.1907 10.04L24.2231 10.0472V10.0883L24.197 10.1011C24.1687 10.0893 24.1417 10.078 24.1152 10.0624L24.0718 10.0374L24.0562 10.029L24.0556 9.97314Z" fill="#62C4FF"/>
<path d="M16.8345 2.27295L16.8535 2.27323L16.8716 2.31006C16.8633 2.37567 16.8674 2.37938 16.8198 2.42388L16.7846 2.40602L16.7721 2.36572L16.8345 2.27295Z" fill="#94ECFF"/>
<path d="M27.854 20.7534L27.8822 20.7542C27.8951 20.7813 27.9032 20.7918 27.9275 20.8113L27.9492 20.8276L27.9526 20.8705L27.9173 20.8725C27.8733 20.8695 27.8455 20.8437 27.8242 20.809L27.854 20.7534Z" fill="#62C4FF"/>
<path d="M24.7243 10.0103L24.7783 9.99951L24.7927 10.0289C24.8159 10.071 24.828 10.0695 24.8726 10.0844L24.8727 10.1402L24.8139 10.1431L24.7243 10.0103Z" fill="#62C4FF"/>
<path d="M18.7412 1.36377C18.8033 1.36781 18.8378 1.35861 18.8851 1.40088L18.8708 1.45654C18.8233 1.4566 18.777 1.42445 18.7377 1.40088L18.7412 1.36377Z" fill="#94ECFF"/>
<path d="M32.1577 13.6099L32.194 13.6104C32.2383 13.6545 32.2591 13.6681 32.2759 13.7295C32.222 13.7132 32.1717 13.7057 32.1309 13.6656L32.1577 13.6099Z" fill="#94ECFF"/>
<path d="M27.8959 16.4859C27.9159 16.4814 27.9322 16.4818 27.9527 16.4821C27.9994 16.5449 28.0083 16.5485 28.0083 16.6305L27.9856 16.6337L27.9588 16.5973C27.9297 16.5588 27.9106 16.5322 27.8959 16.4859Z" fill="#62C4FF"/>
<path d="M23.6991 10.6412C23.7447 10.6381 23.7499 10.6375 23.7894 10.6598L23.7778 10.7739C23.7251 10.7638 23.7151 10.727 23.6851 10.6846L23.6991 10.6412Z" fill="#62C4FF"/>
<path d="M34.5859 17.2093L34.6418 17.1953C34.6712 17.2152 34.6752 17.2107 34.6863 17.2464L34.6324 17.3205L34.6184 17.3188L34.5582 17.2466L34.5859 17.2093Z" fill="#62C4FF"/>
<path d="M17.5038 8.22895L17.5427 8.22168C17.5898 8.27675 17.5986 8.28383 17.609 8.35889L17.5611 8.36007C17.5214 8.30683 17.5068 8.29719 17.5038 8.22895Z" fill="#62C4FF"/>
<path d="M20.7819 14.7417L20.7924 14.744C20.8443 14.7654 20.8514 14.8133 20.8741 14.862L20.8466 14.9086L20.8155 14.9029C20.7926 14.8452 20.7675 14.803 20.7819 14.7417Z" fill="#62C4FF"/>
<path d="M22.7746 10.5483C22.8169 10.5545 22.8701 10.5899 22.9058 10.6131V10.6697C22.8544 10.6618 22.7907 10.6296 22.755 10.5926L22.7746 10.5483Z" fill="#62C4FF"/>
<path d="M19.975 15.5953C20.0181 15.5891 20.0103 15.5828 20.0505 15.6088L19.9948 15.7252L19.9797 15.7391L19.9555 15.7376C19.9471 15.6688 19.9351 15.6545 19.975 15.5953Z" fill="#62C4FF"/>
<path d="M26.5393 12.0142C26.5623 12.0236 26.5486 12.0153 26.5698 12.0513L26.5441 12.1296L26.4895 12.1255L26.4497 12.0995L26.4467 12.0662L26.5393 12.0142Z" fill="#62C4FF"/>
<path d="M26.4824 14.5933H26.5212C26.5112 14.6673 26.4598 14.6948 26.4054 14.7417L26.3679 14.7387L26.3621 14.7127L26.4824 14.5933Z" fill="#62C4FF"/>
<path d="M29.8809 17.2652C29.9118 17.2524 29.9379 17.2541 29.9703 17.2666C30.0254 17.2879 30.0283 17.3068 30.0427 17.3579L30.0135 17.3645C29.9517 17.3382 29.909 17.3275 29.8809 17.2652Z" fill="#62C4FF"/>
<path d="M29.3853 18.2113L29.4372 18.1982L29.4675 18.2206L29.4637 18.2544C29.4276 18.2561 29.4033 18.257 29.37 18.2733L29.3482 18.2855L29.3062 18.2957L29.2813 18.267L29.2945 18.2299L29.3853 18.2113Z" fill="#62C4FF"/>
<path d="M25.545 16.6716L25.6023 16.667L25.6153 16.7087L25.5374 16.7644C25.4954 16.7725 25.5032 16.7782 25.4623 16.7549L25.4663 16.7185L25.545 16.6716Z" fill="#62C4FF"/>
<path d="M31.571 16.356C31.5981 16.3582 31.6176 16.3671 31.6427 16.3769C31.6628 16.4315 31.678 16.4662 31.6636 16.5254C31.6318 16.5136 31.639 16.522 31.6223 16.4979C31.5948 16.458 31.5641 16.4057 31.571 16.356Z" fill="#62C4FF"/>
<path d="M15.9996 11.2163C16.0381 11.2067 16.0348 11.2039 16.0767 11.2163C16.0671 11.2261 16.032 11.2689 16.0222 11.2719C15.967 11.2888 15.9642 11.2694 15.9106 11.3092L15.8504 11.3101L15.8259 11.2812C15.8679 11.2335 15.9358 11.2609 15.9996 11.2163Z" fill="#62C4FF"/>
<path d="M26.1898 10.938C26.2525 10.9244 26.2471 10.9292 26.3046 10.9566C26.3413 10.9741 26.3588 10.9798 26.3848 11.0123C26.323 11.0353 26.2625 11.003 26.2 10.9848L26.1898 10.938Z" fill="#62C4FF"/>
<path d="M18.4561 9.06398C18.4897 9.06438 18.4713 9.06067 18.5094 9.08249C18.5111 9.16695 18.5012 9.16952 18.4527 9.23404L18.4156 9.24696L18.4121 9.20856C18.4396 9.16542 18.4461 9.13182 18.4535 9.08244L18.4561 9.06398Z" fill="#62C4FF"/>
<path d="M19.0527 1.34542L19.1578 1.33398L19.1832 1.36397L19.1583 1.41964C19.1427 1.43259 19.1197 1.44385 19.1021 1.45436C19.0705 1.42051 19.0649 1.3889 19.0527 1.34542Z" fill="#94ECFF"/>
<path d="M22.3733 13.1645L22.4221 13.1572L22.5221 13.2689L22.5161 13.3001C22.4453 13.2879 22.4164 13.2526 22.3677 13.2022L22.3733 13.1645Z" fill="#62C4FF"/>
<path d="M32.2154 20.2153L32.2456 20.2119L32.2614 20.2339C32.2054 20.3325 32.2225 20.2625 32.146 20.2931C32.1318 20.2987 32.1032 20.3333 32.0905 20.3453C32.0673 20.3372 32.0814 20.344 32.053 20.3174C32.0728 20.2877 32.0844 20.2753 32.1181 20.2615C32.1477 20.2493 32.1638 20.2494 32.1929 20.2308L32.2154 20.2153Z" fill="#62C4FF"/>
<path d="M28.9525 15.4097L28.9927 15.3979L29.0328 15.4282L29.0386 15.5396L28.9857 15.545C28.9578 15.4886 28.9499 15.4748 28.9525 15.4097Z" fill="#62C4FF"/>
<path d="M32.0132 19.473L32.0513 19.4702C32.0772 19.5356 32.1476 19.6031 32.146 19.6701C32.0867 19.6415 32.0371 19.5667 31.9945 19.5172L32.0132 19.473Z" fill="#62C4FF"/>
<path d="M35.3723 17.1724L35.4117 17.1814L35.4161 17.2172C35.3713 17.251 35.3246 17.2762 35.2752 17.3023L35.2268 17.3023L35.224 17.2652C35.2751 17.2432 35.313 17.2187 35.3569 17.1845L35.3723 17.1724Z" fill="#94ECFF"/>
<path d="M23.8855 20.2896L23.9304 20.3037C23.9006 20.3553 23.8964 20.3238 23.8523 20.3453C23.8383 20.352 23.8084 20.396 23.7964 20.4098L23.7607 20.3991L23.7353 20.3453C23.7818 20.3041 23.8256 20.303 23.8855 20.2896Z" fill="#62C4FF"/>
<path d="M14.4425 7.98779L14.4686 7.98957C14.5167 8.04553 14.5689 8.08467 14.5971 8.15474L14.5476 8.16003C14.4962 8.10189 14.4459 8.06805 14.4425 7.98779Z" fill="#62C4FF"/>
<path d="M26.8988 14.8161L26.9692 14.8018L26.995 14.8346L26.9321 14.9399C26.899 14.9723 26.918 14.9622 26.8765 14.9727C26.8605 14.9197 26.8993 14.8795 26.8988 14.8161Z" fill="#62C4FF"/>
<path d="M15.9653 2.95957L16.022 2.94971C16.0637 2.99745 16.0705 3.01759 16.0777 3.0806L16.0398 3.08946L15.9615 3.02098L15.9653 2.95957Z" fill="#94ECFF"/>
<path d="M20.5681 5.33429C20.5961 5.33275 20.6034 5.33696 20.6282 5.34824C20.6295 5.39401 20.6328 5.42088 20.6143 5.46422L20.5864 5.46437L20.5495 5.55695L20.5145 5.55709C20.512 5.51024 20.5118 5.51093 20.54 5.47337L20.5451 5.43636L20.5586 5.42691L20.5863 5.40851L20.5681 5.33429Z" fill="#62C4FF"/>
<path d="M25.958 10.8452C25.9719 10.8525 25.9828 10.8577 25.9953 10.8683C26.0413 10.9079 26.072 10.9521 26.0786 11.0124L26.0462 11.0077C26.0256 10.9911 26.0071 10.976 25.9833 10.9641C25.956 10.9503 25.9529 10.9278 25.9394 10.9008L25.958 10.8452Z" fill="#62C4FF"/>
<path d="M18.0534 7.59834L18.0851 7.59814C18.1271 7.6545 18.1569 7.69057 18.1558 7.76157C18.1312 7.75865 18.1105 7.7495 18.0874 7.74099C18.0555 7.67944 18.0396 7.66821 18.0534 7.59834Z" fill="#62C4FF"/>
<path d="M26.7789 16.3005L26.8303 16.2852L26.8707 16.3073C26.8926 16.319 26.9102 16.3284 26.9287 16.3455C26.9743 16.3879 26.9693 16.3887 26.9708 16.4489C26.9415 16.4421 26.9229 16.4155 26.9038 16.3938C26.8572 16.3405 26.8166 16.3712 26.7789 16.3005Z" fill="#62C4FF"/>
<path d="M18.3972 4.09149C18.424 4.08333 18.407 4.08629 18.4491 4.09153C18.4828 4.16157 18.4929 4.19166 18.4712 4.26856L18.4452 4.27303C18.4375 4.23169 18.4312 4.20195 18.4083 4.16606C18.384 4.12777 18.3907 4.13348 18.3972 4.09149Z" fill="#94ECFF"/>
<path d="M24.056 9.45376L24.1029 9.45361C24.1246 9.48676 24.1212 9.47039 24.1212 9.50027C24.0823 9.51333 24.0536 9.52165 24.0208 9.54792L24.0005 9.56529L23.9657 9.58266C23.9383 9.55846 23.9346 9.55326 23.9229 9.51873L23.9449 9.50552C23.9799 9.49384 23.9927 9.50131 24.0265 9.47627L24.056 9.45376Z" fill="#62C4FF"/>
<path d="M32.1599 16.82C32.1967 16.8166 32.2232 16.8276 32.2589 16.8374C32.2751 16.8815 32.2782 16.9221 32.2817 16.9684L32.2412 16.9698L32.2141 16.922C32.1829 16.8803 32.1695 16.8747 32.1599 16.82Z" fill="#62C4FF"/>
<path d="M17.2346 8.41468L17.2713 8.41211C17.3362 8.44645 17.3733 8.48272 17.4191 8.53972L17.4136 8.58153C17.3851 8.56678 17.3947 8.57445 17.3727 8.55288C17.3308 8.51186 17.3054 8.48331 17.2488 8.46357L17.2281 8.45689L17.2346 8.41468Z" fill="#62C4FF"/>
<path d="M32.5938 20.6979C32.6421 20.6856 32.6814 20.6904 32.7305 20.6935C32.7783 20.7321 32.8176 20.7485 32.8327 20.8092C32.7991 20.8097 32.7873 20.811 32.763 20.7867C32.716 20.7397 32.6497 20.7419 32.5938 20.6979Z" fill="#62C4FF"/>
<path d="M16.4403 7.35693L16.4593 7.36154C16.4796 7.42086 16.4686 7.47192 16.4676 7.53293L16.4673 7.55935L16.4271 7.56099C16.4052 7.55188 16.3925 7.54639 16.3762 7.52818C16.3501 7.49904 16.4224 7.44788 16.4348 7.41824C16.4427 7.39929 16.4385 7.37737 16.4403 7.35693Z" fill="#62C4FF"/>
<path d="M20.1268 2.23584L20.1606 2.24121L20.1867 2.28223C20.1758 2.36749 20.1451 2.38044 20.0856 2.43994L20.0506 2.44008C20.0454 2.38147 20.1004 2.3675 20.1217 2.31934C20.1288 2.30313 20.1256 2.25562 20.1268 2.23584Z" fill="#94ECFF"/>
<path d="M18.0594 1.69775L18.0934 1.71631L17.9702 1.86265C17.9406 1.84661 17.9551 1.85744 17.9286 1.82764C17.9543 1.74938 17.9908 1.73679 18.0594 1.69775Z" fill="#94ECFF"/>
<path d="M20.8741 7.28271C20.9237 7.31255 20.9523 7.36584 20.9846 7.41255L20.9575 7.45639C20.9053 7.43293 20.8687 7.38083 20.8306 7.33833L20.8531 7.31097L20.8741 7.28271Z" fill="#62C4FF"/>
<path d="M19.0787 6.3366L19.1215 6.32324L19.1518 6.35521C19.1249 6.39895 19.112 6.42309 19.065 6.44778C19.0254 6.42522 19.0101 6.40691 18.9796 6.37371C19.0119 6.33912 19.0337 6.34412 19.0787 6.3366Z" fill="#62C4FF"/>
<path d="M29.6473 14.3149L29.6785 14.3188C29.6917 14.3345 29.6977 14.3391 29.7045 14.3614C29.7226 14.4201 29.7104 14.4631 29.6782 14.5101C29.6592 14.5029 29.6438 14.4927 29.6265 14.482C29.6488 14.421 29.6247 14.3773 29.6473 14.3149Z" fill="#62C4FF"/>
<path d="M23.9506 15.0386C23.9827 15.0452 23.9685 15.0371 23.991 15.0664C23.9817 15.0766 23.9735 15.0848 23.9665 15.0974C23.9347 15.1544 23.9186 15.1868 23.8707 15.2337C23.8377 15.2168 23.8512 15.2297 23.8336 15.1918C23.8693 15.1344 23.9017 15.0855 23.9506 15.0386Z" fill="#62C4FF"/>
<path d="M22.4141 13.9625L22.4582 13.9604C22.5237 14.0135 22.5533 14.0488 22.5791 14.1295L22.5532 14.1763C22.5263 14.1455 22.5102 14.1159 22.4988 14.0769C22.4906 14.0486 22.4862 14.0352 22.4697 14.0114L22.3986 14.0092L22.4141 13.9625Z" fill="#62C4FF"/>
<path d="M31.6808 16.6714C31.6951 16.6743 31.7129 16.6841 31.7265 16.6899C31.7217 16.7497 31.7258 16.749 31.6821 16.7891L31.6265 16.77C31.5948 16.7476 31.5765 16.735 31.5602 16.6992L31.5894 16.6758L31.6355 16.6929L31.6808 16.6714Z" fill="#62C4FF"/>
<path d="M23.9632 7.89502C24.0003 7.91333 24.0096 7.9206 24.0285 7.95989C24.0435 7.99126 24.0425 7.99304 24.0284 8.0251L23.9876 8.01273C23.9273 8.01649 23.8871 8.03079 23.8356 7.9971L23.8614 7.96573L23.917 7.96785C23.9557 7.94386 23.9494 7.93638 23.9632 7.89502Z" fill="#94ECFF"/>
<path d="M33.583 18.7866L33.6271 18.7867L33.6412 18.8237C33.6235 18.8433 33.6076 18.8621 33.5856 18.8771L33.5191 18.9231C33.4821 18.8954 33.4747 18.8955 33.4634 18.8515L33.4912 18.8284L33.5376 18.8341L33.583 18.7866Z" fill="#62C4FF"/>
<path d="M28.0918 11.8284C28.11 11.8266 28.1385 11.8346 28.1568 11.8377L28.1672 11.8728C28.2134 11.8754 28.202 11.8736 28.2308 11.9026C28.2082 11.928 28.1864 11.9415 28.1569 11.9583C28.146 11.9669 28.1323 11.9711 28.1196 11.977C28.1043 11.9369 28.0854 11.9027 28.064 11.8657L28.0918 11.8284Z" fill="#62C4FF"/>
<path d="M23.0734 10.9194L23.1219 10.9202L23.2187 11.0584L23.2027 11.0873C23.1547 11.0918 23.1499 11.1027 23.1099 11.0721C23.1276 10.9816 23.0721 10.996 23.0734 10.9194Z" fill="#62C4FF"/>
<path d="M20.7987 11.9956C20.8548 12.0255 20.9051 12.0531 20.9513 12.0973L20.9355 12.144L20.8756 12.1508C20.8575 12.1062 20.8295 12.0849 20.7938 12.0548L20.7786 12.0423L20.7987 11.9956Z" fill="#62C4FF"/>
<path d="M23.7013 15.6138C23.7457 15.6047 23.7527 15.6179 23.7919 15.6375C23.8237 15.6991 23.8298 15.7493 23.8361 15.8179C23.8026 15.828 23.803 15.8202 23.7732 15.8054L23.7693 15.7159C23.7423 15.6829 23.7223 15.6506 23.7013 15.6138Z" fill="#62C4FF"/>
<path d="M20.8926 18.8982L20.9188 18.8892C20.9643 18.9173 20.9805 18.9378 21.0082 18.9817L20.9621 19.0467L20.911 19.059L20.881 19.0343C20.9047 18.9934 20.8987 18.9619 20.8945 18.917L20.8926 18.8982Z" fill="#62C4FF"/>
<path d="M25.0957 9.86176C25.1277 9.85033 25.1328 9.85073 25.1695 9.85419C25.174 9.87433 25.1781 9.9198 25.188 9.93583C25.2157 9.98076 25.2463 9.96503 25.2624 10.0288C25.228 10.0323 25.2094 10.0276 25.1787 10.0108C25.1218 9.97967 25.1106 9.92039 25.0957 9.86176Z" fill="#62C4FF"/>
<path d="M35.486 16.0405L35.5508 16.0239C35.6022 16.0419 35.6188 16.0413 35.651 16.0869L35.6157 16.1402C35.558 16.1334 35.508 16.1007 35.4629 16.067L35.486 16.0405Z" fill="#94ECFF"/>
<path d="M21.1275 9.6208C21.1723 9.60887 21.15 9.60877 21.1942 9.6208L21.2129 9.69942C21.2447 9.70184 21.2727 9.70551 21.3036 9.71397L21.273 9.74954L21.2263 9.75795C21.1701 9.75865 21.1469 9.71402 21.1117 9.67641L21.1275 9.6208Z" fill="#62C4FF"/>
<path d="M27.6639 9.47231C27.6925 9.45831 27.6805 9.46093 27.7127 9.4584C27.7791 9.45331 27.7861 9.44618 27.8366 9.49027L27.8228 9.53678C27.7873 9.55464 27.7688 9.55553 27.73 9.55855C27.6902 9.52926 27.6853 9.51763 27.6639 9.47231Z" fill="#94ECFF"/>
<path d="M26.7199 17.6177L26.7587 17.6222C26.8 17.671 26.8394 17.7031 26.8939 17.7368L26.9115 17.7476L26.9059 17.7847L26.8668 17.8142C26.8058 17.7642 26.7368 17.6941 26.7199 17.6177Z" fill="#62C4FF"/>
<path d="M22.2514 12.8862C22.3113 12.8876 22.3877 12.9512 22.4358 12.9883L22.4234 13.0199L22.3677 13.0061L22.3372 12.9918C22.2834 12.9678 22.2473 12.9391 22.1914 12.9606V12.9401L22.2514 12.8862Z" fill="#62C4FF"/>
<path d="M35.0053 16.6714C35.0399 16.679 35.0412 16.6826 35.0651 16.7063C35.1312 16.7721 35.1693 16.7976 35.1704 16.8922C35.1028 16.8442 35.0511 16.7796 34.9962 16.718L35.0053 16.6714Z" fill="#94ECFF"/>
<path d="M21.731 13.4983C21.7639 13.4906 21.7638 13.4976 21.7925 13.5124C21.7968 13.5654 21.8027 13.5848 21.843 13.6205L21.8629 13.6371L21.8296 13.68L21.7987 13.6829C21.779 13.6619 21.7627 13.6419 21.7485 13.6166C21.717 13.5607 21.7132 13.5612 21.731 13.4983Z" fill="#62C4FF"/>
<path d="M20.8275 5.18604C20.8607 5.19267 20.8678 5.18905 20.8926 5.21389L20.8662 5.24175L20.9015 5.36144L20.8648 5.37178C20.8224 5.33032 20.7865 5.29162 20.7535 5.2419C20.7756 5.22987 20.7918 5.21924 20.8107 5.20202L20.8275 5.18604Z" fill="#94ECFF"/>
<path d="M30.2685 17.2093C30.3088 17.2082 30.2899 17.2027 30.3244 17.2279C30.3193 17.2805 30.3339 17.3285 30.3115 17.3763L30.272 17.361L30.2429 17.294L30.1606 17.2483L30.1695 17.2279L30.2685 17.2093Z" fill="#62C4FF"/>
<path d="M27.6003 12.7563L27.6468 12.7565C27.6753 12.7764 27.7022 12.7943 27.7334 12.8098L27.7577 12.8214L27.7646 12.848L27.73 12.8861C27.6908 12.8803 27.7029 12.8866 27.6745 12.8689L27.6518 12.8539C27.6112 12.8308 27.5959 12.826 27.5703 12.7848L27.6003 12.7563Z" fill="#62C4FF"/>
<path d="M15.3732 10.0101L15.4146 10.0059L15.4604 10.0378C15.4858 10.05 15.5067 10.0579 15.5317 10.0736C15.5658 10.1431 15.5891 10.1573 15.5636 10.2327C15.5174 10.2417 15.5391 10.2452 15.4982 10.222L15.514 10.1307L15.456 10.0583L15.4097 10.0563L15.3732 10.0101Z" fill="#62C4FF"/>
<path d="M18.3769 8.09912C18.461 8.12267 18.4606 8.16889 18.5354 8.20377C18.5484 8.23385 18.5529 8.23217 18.5452 8.26606L18.4987 8.26587L18.4576 8.22895C18.4213 8.2009 18.3894 8.17878 18.3566 8.14578L18.3769 8.09912Z" fill="#62C4FF"/>
<path d="M17.5422 1.92041L17.5749 1.93896C17.5684 2.02068 17.5085 2.05308 17.4507 2.10751L17.4153 2.0923L17.4097 2.05957C17.4492 2.00094 17.4848 1.9618 17.5422 1.92041Z" fill="#94ECFF"/>
<path d="M31.1135 19.1765L31.1617 19.1636L31.1733 19.1951C31.1516 19.22 31.1357 19.2401 31.1207 19.2699C31.0876 19.3361 31.0601 19.3486 30.9957 19.3815L30.9536 19.3833L30.9366 19.362C30.9667 19.314 31.0093 19.314 31.0513 19.2834C31.0971 19.25 31.0987 19.2286 31.1135 19.1765Z" fill="#62C4FF"/>
<path d="M23.8995 5.64997L23.9634 5.64502C24.0177 5.71419 24.0892 5.74645 24.1007 5.83551L24.0581 5.83987C24.0154 5.7565 23.9284 5.73819 23.8995 5.64997Z" fill="#94ECFF"/>
<path d="M28.4191 20.7534C28.4669 20.7532 28.4973 20.7643 28.5333 20.7974C28.5573 20.8195 28.5728 20.8373 28.6029 20.8524L28.6244 20.8616L28.6392 20.9056C28.5499 20.9145 28.4816 20.8501 28.4165 20.7989L28.4191 20.7534Z" fill="#62C4FF"/>
<path d="M29.6566 16.3744C29.7308 16.362 29.7038 16.3813 29.7618 16.4164C29.7827 16.4291 29.8379 16.4342 29.8638 16.4403L29.8885 16.4857L29.8618 16.5173L29.8082 16.5137C29.7456 16.4737 29.6871 16.4451 29.6566 16.3744Z" fill="#62C4FF"/>
<path d="M32.367 17.154L32.3988 17.147C32.4523 17.1717 32.4707 17.1923 32.5055 17.2375C32.5052 17.3061 32.5143 17.3508 32.48 17.4111L32.4379 17.3853C32.4589 17.358 32.4684 17.3351 32.4793 17.3025C32.4415 17.2665 32.4065 17.2337 32.3827 17.1865L32.367 17.154Z" fill="#62C4FF"/>
<path d="M23.9464 17.5435L23.9812 17.5471C24.0343 17.6083 24.0538 17.6612 24.0785 17.7378L24.0562 17.77C24.0011 17.7237 23.963 17.6482 23.9192 17.5899L23.9464 17.5435Z" fill="#62C4FF"/>
<path d="M19.3249 2.1985L19.3897 2.18408C19.3984 2.19609 19.4035 2.20175 19.4093 2.21705C19.4334 2.28023 19.4466 2.32436 19.4173 2.38404C19.3788 2.40232 19.381 2.40268 19.3404 2.39008C19.3583 2.29882 19.3646 2.28021 19.3249 2.1985Z" fill="#94ECFF"/>
<path d="M20.8089 2.81113L20.8352 2.81055C20.8893 2.84526 20.8523 2.82913 20.8649 2.87607C20.8728 2.90544 20.9372 2.96284 20.9594 2.9871L20.9391 3.03378L20.9186 3.03053C20.8814 2.99536 20.8359 2.95902 20.8094 2.91495C20.7827 2.87042 20.7938 2.85636 20.8089 2.81113Z" fill="#94ECFF"/>
<path d="M34.3159 17.6424C34.277 17.6805 34.2676 17.7038 34.2121 17.7073C34.1874 17.6758 34.1838 17.6571 34.1793 17.6176C34.2176 17.5622 34.2371 17.558 34.2969 17.5308C34.3061 17.5702 34.3138 17.6019 34.3159 17.6424Z" fill="#62C4FF"/>
<path d="M23.945 12.7379L24.0005 12.7241L24.0253 12.7518C24.0169 12.7684 24.0116 12.7853 24.0056 12.8028L24.0406 12.8285C24.0858 12.8695 24.1277 12.9362 24.1304 12.9975C24.0975 13.0138 24.1158 13.0097 24.0747 13.0062C24.0641 12.9334 24.0031 12.8981 23.9949 12.8301C23.9893 12.7835 23.9599 12.7842 23.945 12.7379Z" fill="#62C4FF"/>
<path d="M21.041 6.22492L21.0969 6.21582C21.1328 6.23972 21.1244 6.23383 21.1338 6.27134C21.108 6.30582 21.0849 6.32888 21.0503 6.35466C20.9944 6.34115 20.9901 6.34565 20.9575 6.29934C20.9774 6.25956 21.0049 6.24912 21.041 6.22492Z" fill="#62C4FF"/>
<path d="M34.6942 18.3971L34.7622 18.3809L34.8096 18.4342C34.8141 18.492 34.8107 18.4955 34.7806 18.5456L34.7428 18.5412C34.7193 18.5005 34.6902 18.4687 34.6588 18.4342L34.6942 18.3971Z" fill="#62C4FF"/>
<path d="M31.9155 19.0352C31.9299 19.0196 31.9661 18.9898 31.9739 18.9722C31.9788 18.9612 31.9722 18.9004 31.9773 18.8958C31.9869 18.887 32.0032 18.8935 32.0161 18.8923L32.0411 18.9351C32.0211 18.9893 31.9994 19.0416 31.9502 19.075L31.9387 19.0796C31.8853 19.0909 31.8492 19.0958 31.8054 19.0649L31.8306 19.0359L31.9155 19.0352Z" fill="#62C4FF"/>
<path d="M27.8941 12.4812C27.9592 12.4511 27.9657 12.4364 28.0362 12.4597C28.0734 12.5063 28.0736 12.5025 28.0686 12.5616L28.0313 12.598C27.9558 12.5614 27.9419 12.5501 27.8941 12.4812Z" fill="#62C4FF"/>
<path d="M28.3549 15.5767L28.3779 15.5737C28.4476 15.6161 28.4904 15.663 28.5427 15.7251L28.5363 15.7622C28.4927 15.7808 28.5157 15.7744 28.4671 15.7808C28.4381 15.7036 28.3626 15.6592 28.3549 15.5767Z" fill="#62C4FF"/>
<path d="M27.8044 14.3892L27.8506 14.3735C27.8621 14.3758 27.8771 14.3717 27.885 14.3803C27.8896 14.3853 27.8887 14.4408 27.8937 14.4515C27.9014 14.4679 27.9661 14.5101 27.9836 14.5242L27.9712 14.5469C27.9498 14.5582 27.9401 14.5565 27.9164 14.5562C27.8801 14.5102 27.8513 14.4839 27.8009 14.4537L27.7858 14.4449L27.8044 14.3892Z" fill="#62C4FF"/>
<path d="M16.3105 5.00066L16.3353 4.99902C16.3806 5.02223 16.4277 5.05088 16.4784 5.05929C16.5165 5.06567 16.52 5.07814 16.5472 5.10451L16.5413 5.13059L16.5179 5.13737C16.4353 5.10753 16.3673 5.11322 16.3033 5.04707L16.3105 5.00066Z" fill="#62C4FF"/>
<path d="M16.486 6.85596C16.5377 6.87758 16.581 6.92236 16.6235 6.95813C16.6284 6.98218 16.633 7.00326 16.643 7.02587L16.6506 7.0415L16.6157 7.09568C16.5995 7.08049 16.5907 7.06911 16.5822 7.04838C16.5651 7.00677 16.5568 6.9846 16.5186 6.95833C16.4889 6.93789 16.476 6.92642 16.4587 6.89307L16.486 6.85596Z" fill="#62C4FF"/>
<path d="M26.4313 15.0571L26.4868 15.0573C26.5323 15.1312 26.6297 15.2144 26.6325 15.2984C26.6029 15.3057 26.5999 15.2996 26.5726 15.289C26.551 15.2085 26.5176 15.1616 26.4462 15.1174L26.4231 15.1037L26.4313 15.0571Z" fill="#62C4FF"/>
<path d="M16.9627 5.2417L16.9966 5.24981C17.0406 5.28935 17.0899 5.32943 17.1144 5.3845C17.142 5.4463 17.1431 5.45891 17.1186 5.51997C17.0883 5.5217 17.0876 5.51141 17.0658 5.49216L17.0724 5.44575C17.0729 5.38078 16.9822 5.3223 16.9368 5.27935L16.9627 5.2417Z" fill="#62C4FF"/>
<path d="M35.4502 20.2339L35.4936 20.2374L35.5044 20.2988C35.5605 20.3337 35.5785 20.3503 35.6071 20.4097L35.5786 20.4511C35.5193 20.4189 35.4696 20.3702 35.4182 20.3266L35.4141 20.271L35.4502 20.2339Z" fill="#62C4FF"/>
<path d="M29.029 16.6899L29.0938 16.6719C29.1188 16.6959 29.1281 16.7017 29.1635 16.7087C29.2145 16.7189 29.1785 16.7073 29.2309 16.7285C29.2616 16.7798 29.2809 16.8158 29.2884 16.8755L29.253 16.8711C29.2093 16.7992 29.1588 16.7784 29.0819 16.7494C29.0537 16.7387 29.0458 16.7145 29.029 16.6899Z" fill="#62C4FF"/>
<path d="M34.7 18.8054L34.7532 18.791L34.7954 18.824L34.7898 18.9353L34.7251 18.9489C34.6853 18.9338 34.6586 18.9151 34.6251 18.8889L34.627 18.8546L34.7 18.8054Z" fill="#62C4FF"/>
<path d="M21.1994 13.2203C21.2347 13.2205 21.2154 13.2174 21.2562 13.2349C21.2235 13.2815 21.2183 13.3265 21.2089 13.3812L21.2048 13.4059L21.1616 13.4287C21.1225 13.3947 21.1097 13.3589 21.0878 13.3131C21.113 13.2554 21.1453 13.25 21.1994 13.2203Z" fill="#62C4FF"/>
<path d="M14.402 6.03976L14.4318 6.03857C14.4736 6.06089 14.5008 6.07173 14.5256 6.11398L14.5005 6.13704L14.3799 6.09775L14.3149 6.14337C14.2871 6.17914 14.2741 6.20146 14.2315 6.2209C14.2087 6.18607 14.2176 6.16979 14.2196 6.12937L14.402 6.03976Z" fill="#62C4FF"/>
<path d="M33.3529 18.3784L33.3965 18.3819C33.4266 18.4594 33.4467 18.5069 33.5181 18.5531L33.5376 18.5652L33.5602 18.5816L33.5739 18.5913L33.5376 18.6278C33.4948 18.6197 33.5128 18.6281 33.4776 18.6006C33.4431 18.5737 33.4086 18.5523 33.3706 18.5306C33.3649 18.5024 33.3575 18.4816 33.3458 18.4547L33.3323 18.4248L33.3529 18.3784Z" fill="#62C4FF"/>
<path d="M28.3982 16.0221C28.4189 16.0158 28.4316 16.0193 28.4527 16.0222L28.4694 16.0592C28.4453 16.1079 28.4369 16.1642 28.4249 16.2169C28.3901 16.2656 28.3404 16.2773 28.2867 16.2971C28.249 16.2764 28.2625 16.2909 28.2441 16.2558L28.2867 16.2291C28.3464 16.2 28.363 16.1768 28.4012 16.1231C28.3944 16.0937 28.3892 16.0725 28.3939 16.042L28.3982 16.0221Z" fill="#62C4FF"/>
<path d="M31.1332 15.8921C31.1637 15.8939 31.1579 15.8887 31.1787 15.9039C31.2313 15.9422 31.3162 16.0276 31.3273 16.0891L31.2739 16.112C31.262 16.1071 31.2496 16.1032 31.2407 16.0927C31.1887 16.0315 31.1778 16.0083 31.102 15.9652L31.0791 15.9525V15.9385C31.0959 15.9171 31.1111 15.9072 31.1332 15.8921Z" fill="#62C4FF"/>
<path d="M31.0747 15.1961C31.1315 15.1819 31.1406 15.1828 31.1951 15.21C31.2405 15.2327 31.2854 15.2807 31.3197 15.3173L31.3139 15.3816C31.2845 15.3769 31.2545 15.3756 31.2296 15.3578C31.1601 15.308 31.094 15.2812 31.0747 15.1961Z" fill="#62C4FF"/>
<path d="M23.4255 10.3257C23.4741 10.3287 23.4526 10.3197 23.4895 10.3535C23.4779 10.3911 23.4831 10.3856 23.4993 10.4184L23.5645 10.4186C23.6025 10.3932 23.597 10.401 23.6386 10.4093C23.6518 10.4491 23.6411 10.4548 23.6268 10.4926L23.5916 10.5058C23.5444 10.5161 23.4646 10.4805 23.4253 10.4577C23.414 10.4324 23.4205 10.4405 23.4016 10.4217L23.3884 10.4092C23.409 10.3878 23.4159 10.3793 23.4221 10.349L23.4255 10.3257Z" fill="#62C4FF"/>
<path d="M35.82 19.9926C35.893 19.9832 35.9102 19.9845 35.9786 20.0112L35.986 20.0668C35.9764 20.0861 35.9688 20.1016 35.9636 20.1226L35.9868 20.1041L36.0054 20.1318C36.0032 20.1615 35.9923 20.1872 35.9829 20.2153L35.9126 20.2358L35.8871 20.206C35.914 20.1649 35.9256 20.154 35.9312 20.1041C35.8845 20.0708 35.8444 20.0469 35.82 19.9926Z" fill="#62C4FF"/>
<path d="M19.1609 14.6858L19.2045 14.6743C19.3018 14.7181 19.3575 14.779 19.4313 14.8528L19.4175 14.9083L19.3793 14.9182L19.3454 14.8806C19.3041 14.8325 19.2728 14.7964 19.2134 14.769L19.1811 14.7552L19.1609 14.6858Z" fill="#62C4FF"/>
<path d="M20.8555 8.11768C20.9069 8.12574 20.9288 8.17235 20.9574 8.2105L20.9761 8.19209L20.9945 8.2105L20.9917 8.25686C21.0173 8.29209 21.0233 8.31624 21.0304 8.35894C20.9962 8.39332 20.9842 8.391 20.939 8.40342L20.8833 8.38674C20.8452 8.37145 20.8421 8.36824 20.8234 8.33118L20.8555 8.30797C20.902 8.30936 20.8805 8.31163 20.9202 8.30322C20.9236 8.26913 20.9225 8.25948 20.9067 8.22782L20.8927 8.2011C20.8824 8.16137 20.8801 8.15464 20.8555 8.11768Z" fill="#62C4FF"/>
<path d="M16.3376 5.46436L16.3609 5.46569C16.3998 5.47361 16.4401 5.50557 16.4641 5.53496L16.4859 5.56331C16.5122 5.58815 16.5361 5.5882 16.5549 5.62274C16.5912 5.68968 16.6218 5.71393 16.6157 5.79201L16.5661 5.77983L16.5588 5.76529L16.5469 5.74263C16.5142 5.67875 16.4727 5.63456 16.4234 5.58251C16.3746 5.57242 16.3595 5.55614 16.3263 5.51997L16.3376 5.46436Z" fill="#62C4FF"/>
<path d="M15.6882 2.0874L15.7401 2.08744L15.838 2.18018C15.865 2.21207 15.8657 2.25051 15.8606 2.29004C15.8532 2.34822 15.8802 2.38651 15.9029 2.43994L15.8875 2.46883L15.855 2.47686C15.8112 2.43713 15.7665 2.42467 15.7498 2.36572L15.8013 2.28223L15.7774 2.23584C15.7311 2.20855 15.6688 2.17674 15.6511 2.12451L15.6882 2.0874Z" fill="#94ECFF"/>
<path d="M29.2031 14.9346C29.166 14.8765 29.1018 14.8288 29.0875 14.7605L29.1123 14.7344L29.2392 14.827C29.2577 14.8595 29.2688 14.867 29.267 14.905C29.2633 14.9812 29.2884 15.0115 29.3408 15.0655L29.3607 15.0852C29.3707 15.1292 29.3661 15.1209 29.3442 15.1564C29.3 15.1455 29.32 15.1566 29.2895 15.1266C29.2629 15.1004 29.2354 15.0858 29.2019 15.0695C29.1741 15.0081 29.1858 14.9976 29.2031 14.9346Z" fill="#62C4FF"/>
<path d="M30.0955 15.0942C30.145 15.0669 30.234 15.0765 30.2906 15.0758C30.3201 15.1342 30.3621 15.1713 30.3976 15.2241C30.4226 15.2611 30.4278 15.2955 30.4624 15.3276C30.4919 15.3549 30.4861 15.3537 30.493 15.3911L30.4432 15.4282L30.4215 15.4349L30.3856 15.4096L30.3845 15.3354C30.3689 15.2985 30.3434 15.2837 30.3118 15.2616L30.2979 15.2519L30.2766 15.187C30.2462 15.1163 30.1795 15.1938 30.105 15.1616L30.0955 15.0942Z" fill="#62C4FF"/>
<path d="M35.9228 14.4779C35.9322 14.4598 35.9266 14.4269 35.9219 14.4079L35.9033 14.3615C35.896 14.3237 35.9021 14.2985 35.8874 14.2603C35.8722 14.2207 35.8779 14.2444 35.8706 14.2081C35.8651 14.1806 35.8572 14.156 35.8477 14.1295C35.8185 14.0486 35.7909 13.9526 35.8035 13.8691C35.9549 14.3347 36.058 14.8168 36.1608 15.2949C36.1933 15.446 36.2446 15.6057 36.262 15.7586L36.22 15.7151L36.2101 15.6788C36.1909 15.631 36.2004 15.5978 36.1725 15.549C36.1464 15.5029 36.154 15.4719 36.154 15.4191C36.1296 15.3826 36.1354 15.3776 36.1354 15.3356L36.1169 15.317C36.1183 15.2822 36.1195 15.2568 36.1082 15.2231C36.0858 15.1558 36.0835 15.0859 36.0611 15.0189C36.0496 14.9844 36.0405 14.9723 36.0467 14.9349L36.0518 14.9088L36.0055 14.8485L35.9683 14.8715C35.9919 14.9072 35.9868 14.8884 35.9868 14.9272H35.9404C35.8733 14.8741 35.8119 14.8546 35.7643 14.779C35.8263 14.7582 35.8032 14.8017 35.8477 14.8068C35.8541 14.8075 35.8659 14.7827 35.8755 14.7791C35.89 14.7737 35.9064 14.7791 35.9219 14.7791L35.9495 14.7975L35.9776 14.7698L36.0054 14.7697L35.9962 14.7325L35.987 14.6954C35.9652 14.6535 35.9684 14.6505 35.9684 14.6027L35.9405 14.584C35.928 14.5458 35.9217 14.5182 35.9228 14.4779Z" fill="#94ECFF"/>
<path d="M5.99484 7.1875C6.00869 7.1967 6.10251 7.25435 6.10419 7.26147C6.3977 7.42 6.69903 7.56557 7.01693 7.66918L7.46026 7.81811L7.58164 7.85423L7.75239 7.90193L8.56271 8.16615C9.20866 8.33468 9.86119 8.39836 10.5133 8.52863C11.4244 8.71057 12.2876 8.96737 13.1378 9.34247C13.5223 9.51213 13.9325 9.70545 14.2552 9.97951C14.4474 10.1427 14.5908 10.3274 14.7171 10.5446C15.0593 11.1325 15.2565 11.8519 15.1089 12.5271L15.1148 12.5458C15.1691 12.7308 15.1715 12.9575 15.1874 13.1501C15.2187 13.5303 15.2177 13.9288 15.3153 14.3002C15.4112 14.6646 15.6267 14.9861 15.8569 15.2783C16.0954 15.5809 16.4077 15.8254 16.6752 16.1015L17.6271 16.8966L18.9027 17.8073C19.5846 18.2871 20.2808 18.7669 20.9994 19.1902L21.8634 19.6431L22.915 20.1652C23.4375 20.398 23.9874 20.5681 24.5278 20.7538C25.7531 21.1748 26.9994 21.5309 28.2816 21.7314C28.6917 21.7955 29.107 21.8249 29.5205 21.8567C30.3972 21.924 31.2866 21.9324 32.164 21.8693C33.0936 21.8024 34.0012 21.6969 34.9065 21.4653L35.6968 21.2213L36.223 21.0241C36.2794 21.0026 36.3572 20.9633 36.4166 20.9767L36.4304 21.0179C36.3029 22.1775 36.0607 23.3005 35.6863 24.4057C35.6192 24.6037 35.5478 24.8716 35.4354 25.0461C35.2336 25.5266 35.0437 26.0039 34.8089 26.4703C34.3363 27.4096 33.7403 28.2893 33.1107 29.1293L32.8352 29.5031C32.8049 29.5439 32.7699 29.6075 32.7276 29.6354L32.2924 30.1314C31.7721 30.7328 31.2308 31.3141 30.6338 31.8415C29.6444 32.7154 28.5706 33.4432 27.4247 34.0944C25.9857 34.9122 24.4295 35.5625 22.8147 35.9421C22.5955 35.5419 22.3238 35.137 22.0032 34.8114C21.7138 34.5175 21.3606 34.2886 21.0038 34.0862C20.0224 33.5295 18.9407 33.1862 17.8288 33.0015L16.3811 32.8105C15.4035 32.6695 14.4956 32.4524 13.6152 31.9905C13.4731 31.9384 13.3192 31.834 13.1881 31.7566C12.0053 31.0581 11.0468 30.0552 10.0087 29.1714L8.46138 27.9786C7.97218 27.622 7.4568 27.2528 6.9344 26.9477L6.43906 26.6712C6.3267 26.6143 6.18613 26.5607 6.08539 26.4905L6.06747 26.4776L6.03952 26.4675L5.99326 26.4403C5.97 26.4301 5.95946 26.4324 5.93695 26.4164L5.91904 26.4033L5.81686 26.3561L5.70618 26.2963L5.67773 26.2825L5.62216 26.2549C5.59421 26.2442 5.58609 26.2455 5.55828 26.2275C5.53112 26.21 5.50425 26.1923 5.47372 26.1807C5.44206 26.1688 5.41207 26.1467 5.38204 26.1387C5.35309 26.131 5.36799 26.137 5.33573 26.1211L5.08408 25.9952L4.84286 25.8839L4.34421 25.6612L3.98 25.5028C3.95303 25.4946 3.94801 25.4843 3.92842 25.4643C3.93795 25.4499 3.93542 25.4583 3.93359 25.4386C3.90359 25.4147 3.9176 25.4211 3.87792 25.4108C3.81317 25.394 3.75439 25.3608 3.69237 25.3366C3.66205 25.3247 3.62925 25.302 3.60076 25.2949C3.48339 25.2655 3.36086 25.1955 3.24706 25.151C3.21674 25.1392 3.18394 25.1164 3.15545 25.1093C3.12132 25.1007 3.09516 25.0804 3.06122 25.0719C2.98982 25.054 2.8829 24.9967 2.8203 24.9562L2.78319 24.9284C2.74861 24.9118 2.72505 24.9068 2.69042 24.882L2.65795 24.8588L2.62548 24.8449L2.6162 24.817L2.58837 24.8078C2.56784 24.7622 2.55985 24.7129 2.53836 24.6698L2.48555 24.5474L2.47685 24.5202L2.43066 24.3717L2.42119 24.3254L2.40282 24.2977C2.40547 24.2658 2.40484 24.2533 2.39007 24.2237L2.3749 24.1956C2.34963 24.141 2.31298 24.0836 2.2958 24.0266L2.06896 23.3328C1.95181 23.0552 1.89674 22.7052 1.83443 22.4092C1.32965 20.0112 1.31821 17.5129 1.83293 15.1157L1.96402 14.4914C1.99318 14.3548 2.01099 14.2169 2.08867 14.098C2.56429 12.7406 3.10742 11.4118 3.85302 10.1771C3.97585 9.97372 4.09358 9.74325 4.24164 9.55844C4.25465 9.48126 4.38218 9.33153 4.42983 9.26107L4.91038 8.56634L5.39476 7.95646C5.59322 7.69847 5.77916 7.43198 5.99484 7.1875Z" fill="url(#paint1_linear_2506_31)"/>
<path d="M13.1847 26.8698C13.1535 26.8828 13.1331 26.8892 13.1089 26.9134C13.085 26.8776 13.0941 26.8983 13.0864 26.8678C13.0802 26.8429 13.0693 26.831 13.0534 26.8116L13.0578 26.7791L12.9987 26.7385L12.9187 26.677L12.9326 26.6636C13.0262 26.7282 13.1388 26.793 13.2206 26.8719L13.1847 26.8698Z" fill="#94ECFF"/>
<path d="M34.5561 25.087L35.4354 25.0459C35.2337 25.5264 35.0437 26.0037 34.809 26.4701C34.3363 27.4094 33.7403 28.2892 33.1107 29.1291L32.8353 29.5029C32.805 29.5438 32.7699 29.6073 32.7276 29.6352C32.6202 29.6189 32.505 29.7054 32.4037 29.7404L29.7564 30.7521L28.8942 31.0471C28.345 31.2172 27.7856 31.332 27.2195 31.4295C26.6248 31.5319 26.0307 31.6135 25.4276 31.6442C25.2362 31.6539 25.0284 31.6757 24.8385 31.6519C25.0279 31.6178 25.2545 31.6124 25.4478 31.6081C25.4847 31.5712 25.7081 31.5895 25.7725 31.5895C25.8181 31.5591 25.8932 31.571 25.9488 31.571L25.9673 31.5524H26.1621L26.19 31.5339C26.2299 31.5352 26.2719 31.5403 26.3097 31.5252L26.3291 31.5153L26.3617 31.5059L26.3477 31.4873L26.3245 31.5058C26.3059 31.4935 26.3148 31.4973 26.2912 31.4913L26.2736 31.4872L26.2735 31.4594L26.2273 31.4409C26.2323 31.4001 26.2322 31.3613 26.2318 31.3203L26.2179 31.2971L26.2133 31.2646L26.1994 31.2414L26.1993 31.2183L26.1622 31.2089C26.1621 31.163 26.1197 31.1387 26.0879 31.1069L26.0601 31.1068L26.0091 31.0466L25.9859 31.0696L25.9581 31.0419C25.958 31.0001 25.9446 31.0007 25.9163 30.9724C25.8941 30.989 25.9054 30.9862 25.8839 30.9862L25.8838 30.9585L25.8712 30.9463C25.8222 30.897 25.8376 30.8471 25.8376 30.7822L25.8189 30.7637L25.8005 30.6987C25.7838 30.6696 25.754 30.6503 25.7233 30.6401L25.6984 30.6337L25.6892 30.5874L25.6427 30.578C25.6298 30.5388 25.6402 30.5565 25.6068 30.5236C25.5833 30.5004 25.5629 30.4797 25.5499 30.4481L25.5407 30.4204C25.5256 30.3951 25.5085 30.3747 25.4942 30.3462L25.4572 30.3368C25.457 30.2982 25.4636 30.3156 25.4339 30.2859L25.4107 30.3089C25.3872 30.2854 25.3791 30.2643 25.3643 30.2348L25.3273 30.2255L25.3272 30.1977C25.3098 30.1771 25.3028 30.1701 25.2762 30.162C25.2367 30.1501 25.2683 30.1635 25.2253 30.1421V30.0957L25.2068 30.0679C25.2074 30.0403 25.2081 30.0151 25.2026 29.9878L25.1974 29.9657C25.189 29.926 25.164 29.9084 25.1551 29.8724L25.1511 29.8545C25.1302 29.812 25.1325 29.8101 25.1325 29.7617L25.1509 29.7432C25.1511 29.7075 25.1497 29.7222 25.1556 29.6858L25.1602 29.6597L25.1325 29.6318C25.1464 29.6058 25.1602 29.5823 25.1661 29.553L25.1787 29.4741L25.1325 29.437V29.3906L25.1509 29.363C25.1273 29.362 25.1311 29.3404 25.1138 29.335C25.0408 29.3118 24.872 29.335 24.7891 29.335C24.7172 29.3829 24.1558 29.3535 24.0284 29.3535C23.9706 29.315 23.8319 29.335 23.7593 29.335V29.3127L26.5982 29.2516C26.6417 29.2081 27.0138 29.2331 27.0992 29.2331C27.1378 29.1945 27.599 29.2145 27.6836 29.2145C27.7454 29.1734 27.9448 29.196 28.0269 29.196C28.0574 29.1654 28.1006 29.1774 28.1428 29.1773L28.1522 29.1355C28.1565 29.098 28.1528 29.0809 28.1706 29.0454L28.1847 29.0196C28.2127 28.9558 28.2745 28.9072 28.3238 28.8572L28.2867 28.8525C28.2593 28.8467 28.2396 28.8368 28.2099 28.834L28.1707 28.8293C28.1293 28.8159 28.0854 28.8106 28.0454 28.7969C27.9257 28.7557 27.7924 28.7345 27.6697 28.6994C27.6111 28.6827 27.5463 28.6678 27.4888 28.6484L27.4563 28.6345C27.4272 28.6265 27.4093 28.6328 27.3786 28.6188C27.333 28.5981 27.2946 28.5902 27.2482 28.5748L27.1641 28.5464L27.0436 28.5119L26.8719 28.4582C26.8357 28.4451 26.8018 28.4381 26.7654 28.4261C26.6877 28.4001 26.5969 28.3828 26.5239 28.3516V28.3274L27.7912 28.6982C28.1734 28.7964 28.5506 28.8802 28.9469 28.8823C29.045 28.8829 29.1559 28.8925 29.2522 28.8743C29.3458 28.8567 29.4724 28.8846 29.5577 28.8445C29.6165 28.8168 29.6768 28.8252 29.7432 28.8249C29.7989 28.7878 29.9673 28.8063 30.0401 28.8063C30.0856 28.7759 30.1608 28.7878 30.2164 28.7878C30.2526 28.7515 30.3924 28.7692 30.4483 28.7692C30.4939 28.7388 30.569 28.7507 30.6246 28.7507L30.6431 28.7321H30.8101C30.8413 28.7009 30.9307 28.7135 30.9771 28.7135C31.0079 28.6827 31.0894 28.695 31.1348 28.695C31.177 28.6669 31.2151 28.6764 31.2647 28.6764C31.3094 28.6466 31.3601 28.6579 31.4131 28.6579C31.4527 28.6315 31.4783 28.6393 31.5245 28.6393C31.5666 28.6112 31.6047 28.6208 31.6543 28.6208C31.6939 28.5944 31.7195 28.6022 31.7657 28.6022L31.7935 28.5837C31.8209 28.5843 31.8459 28.585 31.873 28.5796C31.9207 28.57 31.9699 28.5619 32.0161 28.5465C32.0155 28.5111 32.0154 28.4789 32.0255 28.4444L32.0349 28.4165C32.0504 28.3593 32.0589 28.3114 32.0905 28.2588L32.109 28.2311L32.0905 28.166C32.1157 28.1282 32.109 28.1172 32.1091 28.0732C32.1487 28.0137 32.1099 27.935 32.137 27.8675L32.1462 27.8506C32.1198 27.811 32.1277 27.7854 32.1277 27.7392L32.1091 27.7114C32.1097 27.6777 32.1117 27.6449 32.105 27.6116L32.0997 27.5907L32.0905 27.5537C32.0672 27.5092 32.072 27.4927 32.072 27.4424C32.0467 27.4044 32.0534 27.3938 32.0534 27.3496C31.9972 27.2653 32.0653 27.0947 32.0256 26.9955L32.0163 26.9785L32.0347 26.9508C32.0342 26.9233 32.0335 26.8979 32.0389 26.8707L32.0441 26.8487L32.0534 26.8115C32.0766 26.7672 32.0719 26.7503 32.072 26.7002L32.0903 26.6725L32.0905 26.3383C32.0914 26.2901 32.1055 26.2225 32.0889 26.178C32.0742 26.1387 32.0874 26.1882 32.0757 26.1412C32.0705 26.1202 32.0763 26.1292 32.0625 26.1157L32.0161 26.125C31.9548 26.1457 31.8941 26.1265 31.8492 26.1712L31.7935 26.1621C31.7679 26.1731 31.7388 26.1858 31.71 26.1852L31.6821 26.1807C31.6437 26.1971 31.6261 26.1897 31.5894 26.1992C31.5263 26.2155 31.5839 26.2125 31.5341 26.2152C31.4936 26.2174 31.4522 26.2138 31.4131 26.227C31.3848 26.2366 31.3793 26.2411 31.3473 26.2411L31.3204 26.2409C31.2712 26.2498 31.2329 26.2629 31.1803 26.2577L31.1626 26.2549C31.1131 26.2761 31.079 26.2603 31.0328 26.2734C30.972 26.2906 30.9235 26.2971 30.8591 26.2971L30.8379 26.2965L30.8147 26.3104L30.7823 26.3151C30.744 26.3209 30.7187 26.3158 30.6802 26.3105C30.6277 26.333 30.5693 26.3342 30.5124 26.3342C30.4619 26.3342 30.4049 26.3273 30.3555 26.3383C30.315 26.3474 30.288 26.3555 30.2442 26.3522C30.1828 26.3475 30.097 26.3366 30.0402 26.3617C30.0135 26.3736 30.0284 26.3719 29.9946 26.3719L29.9102 26.3708H29.8545L29.7896 26.3662L29.734 26.3753C29.6103 26.3746 29.4782 26.363 29.3536 26.3708C29.1691 26.3823 28.9812 26.3539 28.7969 26.3708L28.7691 26.3753V26.3472C29.7887 26.4032 30.8466 26.3118 31.8492 26.1284C32.4612 26.0163 33.0713 25.8778 33.6513 25.6479C33.9001 25.5493 34.4419 25.3511 34.5561 25.087Z" fill="#62C4FF"/>
<path d="M13.2206 26.8718L13.2522 26.8908C13.4628 27.0195 13.6601 27.1835 13.8595 27.3297L15.5233 28.561L16.4254 29.1537C16.8926 29.4578 17.3587 29.7582 17.8536 30.0163C19.9907 31.1308 22.4337 31.6631 24.8385 31.6518C25.0284 31.6756 25.2362 31.6538 25.4276 31.6441C26.0307 31.6134 26.6248 31.5319 27.2195 31.4294C27.7856 31.332 28.345 31.2171 28.8942 31.047L29.7564 30.7521L32.4037 29.7404C32.505 29.7053 32.6202 29.6188 32.7276 29.6352L32.2924 30.1312C31.7721 30.7325 31.2308 31.3139 30.6338 31.8412C29.6444 32.7152 28.5706 33.4429 27.4247 34.0941C25.9857 34.9119 24.4296 35.5623 22.8148 35.9418C22.5955 35.5416 22.3238 35.1367 22.0033 34.8111C21.7139 34.5173 21.3606 34.2884 21.0038 34.086C20.0225 33.5293 18.9407 33.1859 17.8289 33.0013L16.3811 32.8102C15.4035 32.6693 14.4956 32.4521 13.6153 31.9903L13.6139 31.9598C13.7421 32.0038 13.8618 32.0984 13.9903 32.1459C14.0203 32.1571 14.0415 32.1592 14.0712 32.1752C14.1856 32.2368 14.3147 32.2835 14.4356 32.3315L14.4727 32.3407C14.5251 32.3641 14.6151 32.4082 14.6704 32.4132C14.7035 32.4162 14.6892 32.4111 14.722 32.426C14.7492 32.4383 14.7711 32.4507 14.8009 32.4567L14.8762 32.4753C14.9258 32.4936 14.8907 32.4858 14.9308 32.4938L15.0061 32.5124C15.0487 32.5282 15.0901 32.5306 15.1313 32.5448C15.168 32.5575 15.1982 32.5576 15.2333 32.568C15.3287 32.5964 15.2071 32.5717 15.2833 32.5869L15.4004 32.6098L15.4468 32.6191C15.4992 32.6371 15.4585 32.6317 15.5086 32.6356C15.5445 32.6384 15.5319 32.6356 15.5636 32.642L15.586 32.6469L15.6324 32.6562C15.6847 32.6742 15.644 32.6688 15.6941 32.6727C15.7301 32.6755 15.7174 32.6727 15.7492 32.6791L15.8643 32.7026C15.9184 32.7159 15.9761 32.7034 16.0266 32.7165C16.0494 32.7224 16.0689 32.7379 16.0916 32.7443C16.1215 32.7528 16.159 32.7405 16.189 32.7489C16.227 32.7597 16.2663 32.7571 16.3003 32.7675C16.3542 32.7839 16.3921 32.7848 16.4488 32.7861L16.4767 32.7721L16.4998 32.7814L16.523 32.7675L16.5555 32.7814L16.6065 32.7582C16.5751 32.7251 16.5483 32.7025 16.509 32.6794L16.4859 32.6933L16.4766 32.6562L16.4951 32.6284C16.4644 32.6205 16.4572 32.6152 16.4349 32.5904L16.4163 32.568L16.356 32.5634C16.3011 32.5488 16.3446 32.5493 16.3032 32.5476L16.2817 32.5478C16.1973 32.5478 16.2122 32.5865 16.1565 32.6144C16.1385 32.6235 16.1143 32.6101 16.0962 32.6191C16.0382 32.6481 16.0643 32.6686 15.9849 32.6747L15.9617 32.633C15.9954 32.5824 16.0484 32.6148 16.1008 32.5773L16.073 32.5402L16.0406 32.5263L16.0266 32.4938L15.9153 32.5587L15.8921 32.5448L15.8504 32.5587C15.8472 32.4992 15.8575 32.4746 15.8086 32.4335C15.7851 32.4137 15.7736 32.4118 15.7576 32.383L15.7483 32.3639L15.7297 32.3732L15.7066 32.3593L15.6741 32.3732L15.6325 32.35L15.6509 32.3316L15.6498 32.3066C15.65 32.2608 15.6592 32.2382 15.6916 32.2057L15.7112 32.1877C15.7074 32.1558 15.7029 32.1356 15.7159 32.1042L15.7298 32.081L15.7531 31.9512L15.804 31.9279L15.781 31.8954L15.8086 31.8583C15.7617 31.7841 15.7879 31.715 15.7333 31.6467C15.6979 31.6026 15.7232 31.5274 15.7118 31.4703L15.6741 31.3063L15.6509 31.3202L15.637 31.2878L15.6138 31.3017C15.6118 31.2907 15.6096 31.2742 15.6045 31.2646C15.5904 31.2375 15.5771 31.2357 15.5703 31.2019L15.5674 31.1811C15.5361 31.1479 15.5093 31.1254 15.47 31.1022C15.4447 31.121 15.4586 31.1132 15.4282 31.1252L15.3772 31.0466L15.3447 31.0605L15.2943 31.0291L15.2752 31.0187L15.2705 30.9306C15.2546 30.9066 15.246 30.894 15.2201 30.8796L15.201 30.8703L15.1963 30.7821C15.1784 30.7636 15.1618 30.7462 15.1406 30.7311L15.1267 30.7218L15.1221 30.6708C15.097 30.6448 15.0722 30.623 15.0432 30.6012L15.0247 30.6105C15.005 30.5777 14.9603 30.5513 14.9458 30.5224C14.9196 30.4701 14.9223 30.4618 14.8762 30.4157L14.8577 30.425C14.8333 30.4006 14.8179 30.3668 14.8096 30.3334C14.8028 30.3063 14.7875 30.3016 14.7696 30.2812C14.7259 30.2314 14.6876 30.1964 14.635 30.1559L14.6165 30.1652L14.598 30.1513L14.6026 30.1234L14.5749 30.1049L14.584 30.0678L14.547 30.0353L14.5469 30.0121L14.5192 29.9936L14.5283 29.9657L14.5007 29.9379C14.4848 29.8679 14.4692 29.8468 14.4124 29.8034L14.3938 29.8127L14.3753 29.8034C14.3542 29.7542 14.333 29.7267 14.2964 29.6874L14.2639 29.7013L14.2407 29.6874C14.2262 29.6147 14.1873 29.613 14.148 29.5575C14.122 29.5209 14.1452 29.4384 14.134 29.3952L14.1201 29.3627L14.1526 29.3302L14.1388 29.3117C14.1388 29.2764 14.1504 29.2426 14.1619 29.2096L14.1805 29.2189C14.2008 29.1985 14.2057 29.1773 14.213 29.1494C14.2212 29.118 14.219 29.1148 14.2414 29.0868C14.2678 29.0538 14.2594 29.0424 14.2595 29.0009L14.2409 28.973L14.25 28.9359L14.2224 28.9174V28.8525C14.1866 28.8083 14.1655 28.7561 14.134 28.7087L14.1109 28.7317L14.0831 28.7039L14.0784 28.6716L14.0459 28.6946L14.0042 28.653L13.981 28.676C13.96 28.6509 13.9406 28.6325 13.916 28.6112L13.8928 28.6297L13.8696 28.6298L13.8511 28.6575L13.8233 28.6298L13.8001 28.6483C13.778 28.6337 13.7914 28.6408 13.7583 28.6298C13.7468 28.6533 13.7358 28.6726 13.7212 28.6946L13.7028 28.6762L13.7119 28.6391L13.6843 28.6205C13.6837 28.5836 13.6828 28.5505 13.6888 28.5138L13.6934 28.4906L13.6657 28.4721L13.7027 28.4443L13.7028 28.2309C13.6722 28.1853 13.6688 28.1322 13.6424 28.0824H13.6145C13.5729 28.0369 13.5544 28.0245 13.5544 27.9618C13.5183 27.933 13.457 27.8752 13.4457 27.83L13.4431 27.8134L13.4245 27.7855C13.4403 27.7457 13.4361 27.7149 13.4431 27.6742L13.4568 27.6325C13.4706 27.5621 13.4656 27.4884 13.4285 27.4266C13.4143 27.4029 13.4162 27.3907 13.406 27.3681C13.3931 27.3397 13.378 27.3283 13.3717 27.2956C13.366 27.2669 13.3623 27.2678 13.3408 27.2473C13.293 27.2014 13.2711 27.1354 13.2134 27.1007L13.1925 27.0897C13.1803 27.0529 13.1893 27.0668 13.1595 27.037L13.1368 27.0154L13.1322 26.9784C13.1251 26.9552 13.1136 26.9623 13.1183 26.9414C13.1272 26.9018 13.1545 26.8929 13.1847 26.8696L13.2206 26.8718Z" fill="url(#paint2_linear_2506_31)"/>
<path d="M5.99485 7.1875C6.0087 7.1967 6.10252 7.25435 6.1042 7.26147C6.39771 7.42 6.69904 7.56557 7.01694 7.66918L7.46027 7.81811L7.58165 7.85423L7.7524 7.90193L8.56272 8.16615C9.20867 8.33468 9.8612 8.39836 10.5133 8.52863C11.4244 8.71057 12.2876 8.96737 13.1378 9.34247C13.5223 9.51213 13.9325 9.70545 14.2552 9.97951C14.4474 10.1427 14.5908 10.3274 14.7171 10.5446C15.0593 11.1325 15.2565 11.8519 15.1089 12.5271L15.1148 12.5458C15.1691 12.7308 15.1716 12.9575 15.1874 13.1501C15.2187 13.5303 15.2177 13.9288 15.3153 14.3002C15.4112 14.6646 15.6267 14.9861 15.8569 15.2783C16.0954 15.5809 16.4077 15.8254 16.6752 16.1015L17.6271 16.8966L18.9027 17.8073C19.5847 18.2871 20.2808 18.7669 20.9994 19.1902L21.8634 19.6431L22.915 20.1652C23.4375 20.398 23.9874 20.5681 24.5278 20.7538C25.7531 21.1748 26.9994 21.5309 28.2816 21.7314C28.6917 21.7955 29.107 21.8249 29.5205 21.8567C30.3972 21.924 31.2866 21.9324 32.164 21.8693C33.0936 21.8024 34.0012 21.6969 34.9065 21.4653L35.6968 21.2213L36.223 21.0241C36.2794 21.0026 36.3572 20.9633 36.4166 20.9767L36.4304 21.0179C36.3029 22.1775 36.0607 23.3005 35.6863 24.4057C35.6192 24.6037 35.5478 24.8716 35.4354 25.0461L34.5561 25.0871C34.6008 24.9823 34.6451 24.8768 34.6536 24.7615C34.6647 24.6105 34.5686 24.4085 34.4687 24.3022C34.2845 24.1062 34.009 24.0787 33.7544 24.0841C33.1389 24.0973 32.5333 24.3161 31.9318 24.4359C30.9988 24.6219 30.0363 24.6846 29.0863 24.6637C28.0689 24.6413 27.057 24.4735 26.0693 24.2356C23.7711 23.6821 21.5199 22.6673 19.6886 21.1567C18.5351 20.2052 17.5183 19.0802 16.4946 17.9943L15.5834 17.0666L15.4318 16.9334C13.553 15.2736 11.2339 14.0045 8.76865 13.4893C7.62875 13.251 6.45951 13.1777 5.29858 13.2495L4.3229 13.3752C3.57504 13.5027 2.80519 13.735 2.13165 14.0875C2.10846 14.0996 2.11822 14.0957 2.08868 14.098C2.5643 12.7406 3.10743 11.4118 3.85303 10.1771C3.97586 9.97372 4.09359 9.74325 4.24165 9.55844C4.25466 9.48126 4.38219 9.33153 4.42984 9.26107L4.91039 8.56634L5.39476 7.95646C5.59323 7.69847 5.77917 7.43198 5.99485 7.1875Z" fill="url(#paint3_linear_2506_31)"/>
<path d="M5.99484 7.1875C6.00869 7.1967 6.10251 7.25435 6.10419 7.26147C6.3977 7.42 6.69903 7.56557 7.01693 7.66918C6.9867 7.67606 6.96706 7.68368 6.94093 7.70045L6.94875 7.71777L6.96221 7.75602C6.91644 7.78932 6.88824 7.77601 6.83307 7.7716C6.83678 7.82717 6.84113 7.85072 6.87309 7.89886C6.84059 7.94191 6.81684 7.96591 6.77171 7.9954L6.72199 7.97377L6.70729 7.97615L6.67048 7.94621L6.6162 7.95804L6.61189 7.98461C6.60675 8.02246 6.60343 8.05165 6.63327 8.0809L6.68879 8.11781C6.70501 8.15259 6.69551 8.14903 6.73525 8.16432L6.74331 8.20133C6.69819 8.26169 6.68765 8.26526 6.68898 8.34373L6.70378 8.36105C6.73559 8.40068 6.75835 8.44081 6.77438 8.4889L6.7446 8.50404L6.72476 8.4843C6.6686 8.42918 6.62718 8.38747 6.54792 8.36882C6.49369 8.35818 6.45401 8.36941 6.4019 8.38247L6.36806 8.41854L6.37815 8.44719L6.41061 8.46109L6.42976 8.47772L6.37108 8.50543C6.36861 8.57643 6.39884 8.6081 6.40601 8.6791L6.41992 8.65594L6.48483 8.58153L6.46647 8.53531C6.48533 8.51557 6.49854 8.50474 6.52194 8.4891C6.53876 8.51344 6.54683 8.51691 6.54722 8.54714C6.54762 8.57336 6.55059 8.59761 6.55445 8.62344L6.57582 8.64174C6.63921 8.69874 6.62585 8.78617 6.71679 8.80438L6.66286 8.81744L6.6878 8.82803C6.71219 8.83887 6.72867 8.84852 6.74935 8.86465L6.754 8.83229L6.7778 8.83313L6.78497 8.85332C6.79512 8.87914 6.80754 8.8979 6.82347 8.92031L6.84212 8.88785L6.83514 8.87039C6.82619 8.84634 6.82822 8.85633 6.82822 8.83229L6.86523 8.80453C6.9056 8.81457 6.90476 8.81705 6.93 8.85074L6.92703 8.88295C6.9248 8.91749 6.93766 8.93431 6.93727 8.96192L6.93089 8.99359L6.9395 9.01774L6.96156 9.05054L6.9815 9.05237L7.00298 9.08493L6.99526 9.10408C7.03915 9.11155 7.09719 9.15593 7.12019 9.14747L7.13974 9.15855L7.14127 9.17706L7.17141 9.19255L7.234 9.14272L7.23152 9.1205L7.28897 9.10136L7.29738 9.1352L7.28273 9.15732L7.23642 9.16627C7.25943 9.18888 7.2671 9.18997 7.29664 9.20595C7.3333 9.2258 7.36492 9.25019 7.40331 9.2682L7.41257 9.30516L7.42553 9.26815L7.46828 9.2684L7.48223 9.29606L7.50044 9.30368C7.51712 9.26578 7.53315 9.25345 7.52102 9.21249C7.57372 9.22416 7.58342 9.2257 7.62221 9.26236L7.70138 9.31679C7.73077 9.2964 7.74828 9.29116 7.78366 9.28695L7.80058 9.29764C7.87337 9.33747 7.94298 9.35306 8.02492 9.34464C8.03848 9.35454 8.0796 9.37775 8.08707 9.39012C8.09256 9.39927 8.09484 9.43316 8.09914 9.43539C8.10453 9.43826 8.17465 9.43539 8.18637 9.43534L8.49804 9.43524C8.48641 9.36404 8.50457 9.45533 8.47627 9.37661L8.47038 9.32391L8.49141 9.30531L8.49829 9.33084C8.51472 9.38769 8.54594 9.42861 8.57914 9.4767C8.08098 9.47369 7.57708 9.48695 7.0818 9.54484C6.68131 9.59169 6.27667 9.67719 5.88183 9.75943C5.63374 9.81104 5.39065 9.8947 5.14404 9.95428L5.20921 9.92227L5.24172 9.90836C5.30841 9.87763 5.40811 9.85562 5.48288 9.8527C5.50668 9.83182 5.51608 9.82474 5.54824 9.81935L5.5757 9.81559C5.609 9.80574 5.64062 9.80168 5.67308 9.79238C5.72513 9.77754 5.77777 9.75616 5.83136 9.74543L5.90038 9.73212L5.9468 9.72281C5.98722 9.70753 5.96015 9.70901 5.99405 9.70683C6.02463 9.7049 6.05322 9.70599 6.08361 9.69991L6.10449 9.69501L6.15085 9.6857C6.2364 9.65344 6.34307 9.65631 6.42922 9.63004C6.4641 9.6194 6.48894 9.62005 6.52194 9.61149C6.55247 9.60357 6.58617 9.60095 6.61476 9.59293C6.6584 9.58066 6.66884 9.57636 6.71679 9.57438C6.73505 9.55612 6.74559 9.54093 6.75924 9.51931L6.69888 9.48962C6.65737 9.5058 6.67454 9.49566 6.6396 9.52302L6.55905 9.57997L6.51561 9.55572C6.50467 9.51362 6.50284 9.51129 6.51897 9.47136L6.48503 9.43524L6.40873 9.4394L6.37568 9.37987C6.34015 9.31219 6.27252 9.33945 6.22526 9.2682C6.17578 9.2683 6.17668 9.28329 6.14268 9.31639C6.12655 9.38012 6.13066 9.37879 6.07564 9.41387L6.02082 9.41664L6.05313 9.42965C6.03541 9.46844 5.99464 9.48126 5.95832 9.50243C5.90385 9.47482 5.90172 9.47077 5.87272 9.41664L5.91429 9.37493C5.87926 9.377 5.85961 9.37196 5.8271 9.35909L5.82626 9.33782C5.84878 9.29818 5.85412 9.29967 5.89108 9.2775C5.89014 9.23881 5.88282 9.18874 5.89949 9.15316L5.90766 9.14054L5.85417 9.10121L5.87272 9.05485L5.83522 9.00908C5.7991 9.02244 5.77273 9.02887 5.73413 9.02966L5.69173 8.98063C5.69722 8.94238 5.69638 8.9591 5.69638 8.93065L5.63869 8.88404L5.62028 8.89527L5.581 8.86054L5.46601 8.89829C5.4757 8.86123 5.48001 8.82714 5.48288 8.78894C5.40698 8.77009 5.35468 8.76331 5.27769 8.77954C5.28179 8.74991 5.28432 8.76282 5.26952 8.73486C5.25824 8.71359 5.2621 8.73135 5.26651 8.69419L5.27056 8.66604L5.186 8.58153L5.17452 8.59004L5.20748 8.63546L5.17794 8.64313C5.14355 8.62185 5.12623 8.60849 5.08398 8.62789L5.02826 8.6693L4.99219 8.65387L4.99462 8.60142L4.93671 8.6077L4.27557 9.5624L4.24164 9.55844C4.25465 9.48126 4.38218 9.33153 4.42983 9.26107L4.91038 8.56634L5.39476 7.95646C5.59322 7.69847 5.77916 7.43198 5.99484 7.1875Z" fill="url(#paint4_linear_2506_31)"/>
<path d="M7.62224 9.26221L7.70141 9.31663C7.67128 9.35043 7.67123 9.35775 7.626 9.37235L7.59528 9.33301L7.62224 9.26221Z" fill="#736FAF"/>
<path d="M5.84313 7.77486C5.81225 7.72024 5.81072 7.72172 5.82264 7.66047L5.85065 7.65527L5.88998 7.74132L5.84313 7.77486Z" fill="#8A8BBC"/>
<path d="M7.29394 9.30518C7.32912 9.3316 7.35262 9.34545 7.36672 9.3884L7.33837 9.43392C7.30428 9.40676 7.28048 9.38909 7.25653 9.35159L7.29394 9.30518Z" fill="#736FAF"/>
<path d="M5.77258 8.61207L5.82617 8.58936L5.89326 8.6186L5.89109 8.64957L5.82617 8.68213C5.80341 8.67199 5.7899 8.66541 5.77075 8.64888L5.77258 8.61207Z" fill="#736FAF"/>
<path d="M6.03139 9.30065C6.07013 9.27334 6.10284 9.23495 6.15083 9.24024L6.14267 9.31624C6.11273 9.35083 6.10408 9.37314 6.05811 9.38452C6.03416 9.34642 6.02362 9.34707 6.03139 9.30065Z" fill="#5056AC"/>
<path d="M6.34432 9.0498L6.3466 9.0648C6.35659 9.10022 6.38702 9.12932 6.41048 9.15688C6.39845 9.1932 6.39336 9.19057 6.36426 9.21234C6.33947 9.19171 6.32478 9.18671 6.31473 9.15584C6.30632 9.12991 6.29791 9.12135 6.27856 9.10349L6.34432 9.0498Z" fill="#5056AC"/>
<path d="M6.70314 8.98973C6.74421 8.98488 6.74564 8.98899 6.78171 9.00359V9.03941C6.74846 9.04683 6.72387 9.05425 6.69319 9.07024L6.66732 9.08463C6.66643 9.11655 6.67103 9.09933 6.64258 9.13208L6.62036 9.11031C6.63976 9.04599 6.65584 9.03496 6.70314 8.98973Z" fill="#736FAF"/>
<path d="M5.88994 7.7417C5.92225 7.80464 5.97192 7.87821 5.96529 7.94917L5.93496 7.94541C5.88702 7.88811 5.86995 7.8797 5.86475 7.80305L5.84308 7.77525L5.88994 7.7417Z" fill="#8282B8"/>
<path d="M5.77073 8.64912L5.72016 8.68553L5.736 8.73942L5.70552 8.77682C5.65623 8.76554 5.64669 8.77039 5.61749 8.73016C5.64104 8.70988 5.66064 8.69642 5.67222 8.66658C5.68048 8.64541 5.68686 8.63299 5.70022 8.61448L5.77256 8.6123L5.77073 8.64912Z" fill="#5C5DAD"/>
<path d="M6.27854 9.10309L6.18794 9.03327C6.18522 8.98196 6.16686 8.95787 6.13802 8.91784C6.12243 8.89626 6.1253 8.88558 6.12292 8.8596L6.16013 8.84619L6.19314 8.869L6.2011 8.94312C6.22718 8.97187 6.24192 8.98622 6.27794 9.0024C6.30951 9.0166 6.32114 9.02442 6.34429 9.0494L6.27854 9.10309Z" fill="#5C5DAD"/>
<path d="M6.48715 7.65088C6.53623 7.66434 6.57131 7.68997 6.60184 7.73287C6.61584 7.75256 6.61713 7.75934 6.6245 7.77953C6.59288 7.7964 6.57304 7.81906 6.53697 7.80916C6.48769 7.79561 6.44662 7.78294 6.42035 7.73752L6.48715 7.65088Z" fill="#9D9CC5"/>
<path d="M5.72195 7.91357L5.75411 7.91729L5.96954 8.14529L5.96534 8.1966L5.90804 8.19184L5.90314 8.17646C5.8736 8.08937 5.82175 8.05969 5.74149 8.01995C5.71102 8.00481 5.71087 7.997 5.69305 7.96919L5.72195 7.91357Z" fill="#8282B8"/>
<path d="M6.24412 8.01141C6.21334 7.99508 6.1835 7.98143 6.15085 7.9692L6.10617 7.9977C6.09078 8.0357 6.08346 8.06059 6.04882 8.08439L6.01874 8.05149L6.02873 7.80206C6.07594 7.7657 6.07168 7.76456 6.13041 7.77124C6.13947 7.80256 6.14407 7.81191 6.1648 7.83922C6.20607 7.84457 6.22388 7.85194 6.25693 7.87727C6.24659 7.91121 6.23897 7.94318 6.22046 7.97366L6.24412 8.01141Z" fill="#8282B8"/>
<path d="M6.10419 7.26123C6.3977 7.41976 6.69903 7.56533 7.01693 7.66894C6.9867 7.67582 6.96705 7.68344 6.94093 7.70021L6.94875 7.71753L6.96221 7.75577C6.91644 7.78907 6.88823 7.77576 6.83307 7.77136L6.83767 7.73687C6.76271 7.70506 6.79714 7.75577 6.74222 7.77393C6.71382 7.78333 6.65623 7.77779 6.62446 7.77923C6.61709 7.75904 6.6158 7.75226 6.6018 7.73257C6.57127 7.68967 6.53619 7.66404 6.48711 7.65058C6.46187 7.61634 6.46207 7.61906 6.41991 7.6108C6.36895 7.63223 6.36979 7.63237 6.34411 7.68146L6.30859 7.68878C6.27583 7.66295 6.27613 7.66948 6.26237 7.62589C6.29839 7.59497 6.30982 7.59858 6.355 7.59046L6.37919 7.55167C6.35445 7.51051 6.31635 7.50338 6.29948 7.4682L6.33639 7.47745L6.35515 7.4496L6.24372 7.38933C6.16613 7.3588 6.14486 7.33139 6.10419 7.26123Z" fill="#8282B8"/>
<path d="M6.25693 7.87745L6.31803 7.87646C6.34203 7.91244 6.33431 7.89259 6.34104 7.9303C6.35103 7.98621 6.38364 8.03846 6.41526 8.08517L6.42921 8.06181L6.44757 8.03415L6.47547 7.97839C6.51699 7.97003 6.51169 7.96231 6.54979 7.9873L6.61619 7.95786L6.61189 7.98443C6.60674 8.02228 6.60343 8.05147 6.63326 8.08071L6.68878 8.11763C6.70501 8.15241 6.69551 8.14885 6.73524 8.16414L6.74331 8.20115C6.69818 8.26151 6.68764 8.26507 6.68898 8.34355L6.70377 8.36087C6.73559 8.4005 6.75835 8.44063 6.77438 8.48872L6.74459 8.50386L6.72475 8.48412C6.66859 8.429 6.62718 8.38729 6.54791 8.36863C6.49032 8.31826 6.47582 8.36908 6.41081 8.34028L6.4258 8.30659C6.44386 8.24108 6.4253 8.2289 6.38706 8.18022C6.35959 8.17161 6.34005 8.16869 6.31066 8.16755L6.28077 8.16696C6.24386 8.11357 6.24911 8.07552 6.24411 8.01159L6.22046 7.97384C6.23896 7.94336 6.24658 7.9114 6.25693 7.87745Z" fill="#736FAF"/>
<path d="M6.83305 7.77137C6.88822 7.77577 6.91642 7.78908 6.96219 7.75578L6.94873 7.71753L6.94091 7.70022C6.96704 7.68344 6.98668 7.67582 7.01691 7.66895L7.46025 7.81788L7.58162 7.854L7.75237 7.9017L8.56269 8.16591L8.42643 8.17878C8.42009 8.1907 8.39827 8.24206 8.38986 8.24751C8.34107 8.27907 8.32633 8.23632 8.31698 8.30911L8.33336 8.3292C8.38145 8.39693 8.33726 8.50821 8.36186 8.54438C8.37606 8.56526 8.40401 8.57224 8.42514 8.58619L8.47689 8.59L8.51415 8.64849L8.54562 8.66066C8.57907 8.6473 8.59901 8.6473 8.63379 8.65294L8.67115 8.65942L8.73349 8.61053L8.77634 8.65719C8.80603 8.65838 8.83126 8.65863 8.8609 8.65492C8.94363 8.69208 9.00038 8.74903 9.0654 8.81088L8.89712 8.97109L8.91553 9.01552C8.96243 8.98079 9.00281 8.94516 9.03611 8.89707C9.08861 8.87609 9.08697 8.88025 9.14046 8.90078L9.13799 8.93398L9.12527 8.94482C9.10944 8.96055 9.09425 8.98524 9.09266 9.0082L9.09543 9.046L9.10251 9.02913L9.12423 8.98504L9.13818 9.05461C9.14491 9.01626 9.15179 8.98999 9.13833 8.95258L9.15149 8.93967C9.16965 8.92136 9.16292 8.92918 9.17707 8.90845L9.20295 8.94115L9.24951 8.98237L9.28341 8.95887L9.29276 8.89687L9.24021 8.85412L9.19855 8.88608C9.14655 8.86931 9.14823 8.86951 9.11978 8.82265L9.1938 8.67308L9.24951 8.66966L9.28029 8.72904C9.31339 8.79222 9.39177 8.8466 9.43432 8.91251C9.42749 8.93324 9.42343 8.94665 9.41022 8.96441C9.43278 8.9985 9.41779 8.98697 9.44817 8.99979C9.47296 9.01023 9.46396 9.00459 9.48053 9.018L9.53224 9.09345C9.54871 9.11587 9.56846 9.12517 9.59226 9.13813C9.5883 9.18449 9.57311 9.20443 9.54574 9.24134C9.58444 9.27242 9.6638 9.32556 9.68255 9.37004C9.71546 9.44817 9.69631 9.45757 9.76518 9.5308C9.79334 9.56073 9.78226 9.54599 9.80229 9.58226L8.57912 9.47647C8.54592 9.42838 8.5147 9.38746 8.49827 9.33061L8.49139 9.30507L8.47036 9.32368L8.47625 9.37637C8.50455 9.4551 8.48639 9.36381 8.49802 9.43501L8.18635 9.43511C8.17463 9.43515 8.10451 9.43802 8.09912 9.43515C8.09482 9.43293 8.09254 9.39903 8.08705 9.38988C8.07958 9.37751 8.03846 9.35431 8.0249 9.34441C7.94297 9.35282 7.87335 9.33724 7.80056 9.2974L7.78364 9.28672C7.74826 9.29092 7.73075 9.29617 7.70136 9.31655L7.62219 9.26213C7.5834 9.22546 7.5737 9.22393 7.52101 9.21225C7.53313 9.25322 7.5171 9.26554 7.50042 9.30344L7.48221 9.29582L7.46826 9.26816L7.42551 9.26792L7.41255 9.30493L7.4033 9.26796C7.3649 9.24995 7.33328 9.22556 7.29662 9.20572C7.26708 9.18974 7.25941 9.18865 7.2364 9.16604L7.28271 9.15708L7.29736 9.13496L7.28895 9.10112L7.2315 9.12027L7.23398 9.14249L7.17139 9.19231L7.14125 9.17682L7.13972 9.15832L7.12018 9.14724C7.09717 9.1557 7.03913 9.11131 6.99524 9.10384L7.00296 9.08469L6.98149 9.05214L6.96155 9.05031L6.93948 9.0175L6.93087 8.99335L6.93725 8.96169C6.93765 8.93408 6.92478 8.91726 6.92701 8.88272L6.92998 8.85051C6.90474 8.81681 6.90558 8.81434 6.86521 8.80429L6.8282 8.83205C6.8282 8.8561 6.82617 8.84611 6.83513 8.87015L6.8421 8.88762L6.82345 8.92008C6.80752 8.89766 6.7951 8.87891 6.78495 8.85308L6.77778 8.83289L6.75398 8.83205L6.74933 8.86441C6.72865 8.84828 6.71217 8.83863 6.68778 8.8278L6.66284 8.81721L6.71677 8.80415C6.62583 8.78594 6.63919 8.69851 6.57581 8.64151L6.55443 8.6232C6.55057 8.59737 6.5476 8.57313 6.54721 8.5469C6.54681 8.51667 6.53875 8.51321 6.52192 8.48886C6.49852 8.5045 6.48531 8.51534 6.46646 8.53508L6.48481 8.58129L6.4199 8.65571L6.40599 8.67887C6.39882 8.60786 6.36859 8.5762 6.37106 8.50519L6.42974 8.47748L6.41059 8.46086L6.37814 8.44696L6.36804 8.41831L6.40189 8.38224C6.45399 8.36917 6.49367 8.35794 6.5479 8.36858C6.62717 8.38723 6.66858 8.42895 6.72474 8.48407L6.74458 8.50381L6.77437 8.48867C6.75833 8.44057 6.73557 8.40045 6.70376 8.36081L6.68896 8.3435C6.68763 8.26502 6.69817 8.26146 6.74329 8.20109L6.73523 8.16408C6.6955 8.14879 6.705 8.15236 6.68877 8.11757L6.63325 8.08066C6.60341 8.05142 6.60673 8.02223 6.61188 7.98438L6.61618 7.9578L6.67046 7.94598L6.70727 7.97591L6.72197 7.97354L6.77169 7.99516C6.81682 7.96567 6.84057 7.94167 6.87308 7.89863C6.84111 7.85048 6.83676 7.82693 6.83305 7.77137Z" fill="url(#paint5_linear_2506_31)"/>
<path d="M8.04721 9.06375L8.10847 9.05762L8.13628 9.08157L8.1193 9.13797L8.07952 9.15272L8.03821 9.11937L8.04721 9.06375Z" fill="#8A8BBC"/>
<path d="M9.22557 9.13818L9.2556 9.16599L9.24413 9.22284L9.19385 9.24085L9.1519 9.21621L9.15155 9.18816L9.22557 9.13818Z" fill="#9D9CC5"/>
<path d="M6.85348 8.30322L6.92408 8.35894L6.91067 8.43316L6.8889 8.43123C6.85011 8.41683 6.8465 8.38402 6.83057 8.34993L6.85348 8.30322Z" fill="#8A8BBC"/>
<path d="M7.21643 8.50105C7.23148 8.47007 7.22376 8.46547 7.21619 8.43326L7.23632 8.40283L7.30634 8.41124L7.26863 8.5723C7.25052 8.53578 7.25814 8.55434 7.24563 8.51673L7.2244 8.51921L7.21643 8.50105Z" fill="#736FAF"/>
<path d="M7.21268 9.00705L7.18829 8.98558L7.17755 8.84125C7.21209 8.81606 7.21085 8.81804 7.25365 8.82264C7.21436 8.89785 7.22312 8.90374 7.2398 8.9832L7.21268 9.00705Z" fill="#736FAF"/>
<path d="M7.62888 8.85986L7.65021 8.86268C7.67866 8.90489 7.69949 8.91835 7.69563 8.97119C7.66248 8.95175 7.62858 8.93715 7.5935 8.92161L7.55956 8.94195C7.5276 8.91904 7.5321 8.91404 7.52032 8.87847L7.55174 8.86659L7.58846 8.89153L7.62888 8.85986Z" fill="#8282B8"/>
<path d="M8.46136 8.99805L8.47937 9.01937L8.49604 9.01438C8.45879 9.06964 8.45354 9.0976 8.45468 9.16445L8.45532 9.18439L8.43316 9.20195C8.41277 9.16682 8.39422 9.13832 8.36586 9.10898L8.34033 9.083C8.39184 9.06856 8.41331 9.04852 8.44904 9.01121L8.46136 8.99805Z" fill="#8A8BBC"/>
<path d="M9.41025 8.96436C9.43281 8.99845 9.41782 8.98692 9.4482 8.99973C9.47299 9.01017 9.46399 9.00453 9.48056 9.01794L9.42282 9.03269L9.40783 9.06386L9.41916 9.08311C9.44325 9.12477 9.45914 9.14466 9.46191 9.19399C9.4391 9.18528 9.43088 9.18295 9.40753 9.16935C9.35761 9.1403 9.32658 9.11923 9.31396 9.06386L9.41025 8.96436Z" fill="#9D9CC5"/>
<path d="M7.21645 8.50075C7.18305 8.47987 7.16643 8.43569 7.14302 8.40348L7.13135 8.38804L7.16237 8.3685C7.22274 8.34138 7.29468 8.34123 7.35677 8.35875L7.36697 8.39586L7.32847 8.43549L7.30635 8.41095L7.23634 8.40254L7.2162 8.43297C7.22377 8.46518 7.23149 8.46978 7.21645 8.50075Z" fill="#8282B8"/>
<path d="M6.72198 7.97363L6.77171 7.99526C6.80961 8.00579 6.84766 8.01767 6.8867 8.02267C6.92376 8.02742 6.9437 8.02658 6.9723 8.05275L6.96641 8.15077L6.93959 8.15478L6.86107 8.08061L6.80031 8.08917L6.72198 7.97363Z" fill="#8A8BBC"/>
<path d="M9.48057 9.01807L9.53228 9.09352C9.54875 9.11594 9.5685 9.12524 9.5923 9.1382C9.58834 9.18456 9.57315 9.2045 9.54579 9.24142L9.46192 9.19411C9.45915 9.14478 9.44326 9.12489 9.41917 9.08323L9.40784 9.06398L9.42283 9.03281L9.48057 9.01807Z" fill="#9592BB"/>
<path d="M7.25535 8.10658L7.30567 8.11741L7.35693 8.06299C7.40434 8.07912 7.40735 8.07946 7.43605 8.12019C7.44639 8.17308 7.4454 8.18728 7.48172 8.22577L7.39404 8.26531L7.35708 8.24735L7.37529 8.21024L7.33833 8.19183L7.30844 8.21321L7.23907 8.18733L7.25535 8.10658Z" fill="#8A8BBC"/>
<path d="M8.37228 8.71729L8.47025 8.76681L8.49806 8.74287C8.55536 8.75029 8.57351 8.76775 8.61547 8.80412L8.57693 8.82728L8.59242 8.84504C8.62106 8.88225 8.6269 8.91243 8.61814 8.9584L8.61161 8.98477L8.60523 8.95196C8.59756 8.91416 8.60375 8.92752 8.59128 8.90615L8.58094 8.97309L8.54031 8.98363L8.49603 9.01446L8.47936 9.01945L8.46135 8.99813C8.44432 8.98774 8.45452 8.99516 8.4328 8.96938L8.4136 8.94637L8.39603 9.00337L8.3658 9.00278L8.33196 8.94024C8.34918 8.88101 8.342 8.87042 8.32458 8.81337C8.33661 8.77389 8.35076 8.75212 8.37228 8.71729Z" fill="#8282B8"/>
<path d="M8.54029 8.98371L8.50714 8.86912L8.5257 8.84131C8.56973 8.85808 8.5679 8.86432 8.59126 8.90623L8.58091 8.97317L8.54029 8.98371Z" fill="#8A8BBC"/>
<path d="M6.83307 7.77137C6.88824 7.77577 6.91644 7.78908 6.96221 7.75578L6.94875 7.71753L6.94093 7.70022C6.96706 7.68344 6.9867 7.67582 7.01693 7.66895L7.46027 7.81788C7.44928 7.85786 7.41816 7.9201 7.44132 7.95691L7.45557 7.97131L7.42157 7.99996C7.4378 8.03168 7.44097 8.04845 7.471 8.06889L7.43607 8.12034C7.40737 8.07962 7.40436 8.07928 7.35695 8.06315L7.30569 8.11757L7.25537 8.10674L7.23909 8.18749C7.21322 8.14216 7.16092 8.14315 7.13103 8.08353C7.1194 8.04088 7.11475 8.02203 7.08611 7.987L7.06513 7.96211C7.0389 7.91723 7.10199 7.88472 7.11782 7.8393L7.09719 7.81313C7.0485 7.81169 7.02243 7.81689 6.97933 7.84034L6.8731 7.89863C6.84113 7.85048 6.83678 7.82693 6.83307 7.77137Z" fill="#8A8BBC"/>
<path d="M7.13104 8.08361L7.14475 8.07955C7.15672 8.03537 7.19121 8.00929 7.22302 7.97852C7.24648 7.9846 7.25781 8.00444 7.27419 8.02176C7.26696 8.04996 7.25796 8.07777 7.25538 8.10682L7.23911 8.18757C7.21323 8.14224 7.16093 8.14323 7.13104 8.08361Z" fill="#8282B8"/>
<path d="M7.27417 8.02193C7.34305 7.98814 7.34453 7.97775 7.42157 8.00021C7.4378 8.03193 7.44097 8.0487 7.471 8.06913L7.43607 8.12059C7.40737 8.07987 7.40435 8.07952 7.35695 8.06339L7.30569 8.11782L7.25537 8.10699C7.25794 8.07794 7.26695 8.05013 7.27417 8.02193Z" fill="#9592BB"/>
<path d="M7.46026 7.81787L7.58164 7.85399L7.75239 7.90169L8.56271 8.16591L8.42644 8.17877C8.36212 8.15344 8.3356 8.14137 8.26935 8.17793C8.24678 8.1904 8.2262 8.21311 8.20814 8.23073L8.17583 8.21484C8.15178 8.228 8.12981 8.23948 8.10839 8.25675L8.10344 8.29173C8.0935 8.35601 8.06767 8.40375 8.02734 8.45427C8.0886 8.42256 8.1119 8.39584 8.18271 8.42226C8.21334 8.43369 8.22773 8.447 8.24386 8.47396L8.22051 8.49762L8.25391 8.54437C8.23273 8.57327 8.2123 8.59331 8.18444 8.61582L8.16104 8.6135C8.18033 8.66164 8.21131 8.70048 8.22917 8.74843L8.25683 8.75397L8.27251 8.73531C8.29522 8.71107 8.30918 8.70622 8.3398 8.69677L8.37226 8.7173C8.35074 8.75214 8.33659 8.77391 8.32457 8.81339C8.34198 8.87044 8.34916 8.88103 8.33194 8.94026C8.33535 8.97638 8.34 8.98029 8.32328 9.01443L8.30784 8.98504L8.28449 9.03293C8.27113 9.01354 8.2593 8.99765 8.24292 8.98048L8.22897 9.00839L8.19171 8.97108C8.1363 8.97905 8.11665 8.94901 8.06663 8.94793L8.03561 8.95139L8.02472 8.93397L8.07603 8.92348L8.01092 8.88054L7.95995 8.8978L7.91359 8.85995C7.89736 8.8836 7.90924 8.87306 7.87183 8.88296C7.88573 8.82893 7.88187 8.82354 7.86238 8.77054L7.83952 8.76703C7.84828 8.80345 7.85427 8.80454 7.83937 8.84105C7.80815 8.76851 7.81963 8.73264 7.751 8.68074L7.75912 8.656C7.72151 8.61058 7.72151 8.57634 7.7181 8.52038L7.57644 8.39891L7.57327 8.33171L7.54339 8.31717L7.53646 8.2754L7.48174 8.22593C7.44542 8.18743 7.44641 8.17323 7.43607 8.12034L7.471 8.06888C7.44097 8.04844 7.4378 8.03167 7.42157 7.99995L7.45556 7.97131L7.44131 7.95691C7.41816 7.92009 7.44928 7.85785 7.46026 7.81787Z" fill="url(#paint6_linear_2506_31)"/>
<path d="M8.01093 8.8805C8.05823 8.83671 8.07718 8.79836 8.14333 8.79985L8.15808 8.82988L8.07604 8.92345L8.01093 8.8805Z" fill="#8282B8"/>
<path d="M7.47103 8.06885C7.53456 8.13728 7.53308 8.18562 7.53649 8.27537L7.48177 8.22589C7.44545 8.1874 7.44644 8.1732 7.4361 8.12031L7.47103 8.06885Z" fill="#9D9CC5"/>
<path d="M7.75545 8.51562C7.78642 8.56298 7.80067 8.60192 7.82383 8.65135L7.85431 8.69608C7.80819 8.69177 7.79661 8.68138 7.75916 8.65624C7.72155 8.61082 7.72155 8.57658 7.71814 8.52062L7.75545 8.51562Z" fill="#8282B8"/>
<path d="M7.4603 7.81787L7.58167 7.85399C7.53729 7.89155 7.49434 7.92786 7.4556 7.97131L7.44135 7.95691C7.41819 7.92009 7.44931 7.85785 7.4603 7.81787Z" fill="#9D9CC5"/>
<path d="M8.16103 8.61344L8.13214 8.59533C8.12506 8.54496 8.131 8.54719 8.16183 8.50562L8.22051 8.49756L8.25391 8.54432C8.23273 8.57321 8.21229 8.59325 8.18444 8.61576L8.16103 8.61344Z" fill="#9592BB"/>
<path d="M7.5733 8.33203C7.59522 8.3495 7.6684 8.41991 7.69097 8.42594C7.74089 8.43935 7.74094 8.39007 7.78562 8.44262C7.77562 8.46607 7.76271 8.49135 7.75544 8.5157L7.71813 8.5207L7.57647 8.39922L7.5733 8.33203Z" fill="#8A8BBC"/>
<path d="M7.75237 7.90186L8.5627 8.16607L8.42643 8.17894C8.36211 8.15361 8.33559 8.14153 8.26933 8.1781C8.24677 8.19057 8.22619 8.21328 8.20813 8.23089L8.17582 8.21501C8.15177 8.22817 8.1298 8.23965 8.10838 8.25692L8.10343 8.2919C8.09348 8.35617 8.06766 8.40392 8.02733 8.45444C8.00744 8.47913 7.99893 8.49442 7.96919 8.50723C7.93693 8.48368 7.90398 8.46424 7.88661 8.42698C7.87345 8.39887 7.88542 8.41159 7.86553 8.39101C7.83223 8.35652 7.80037 8.33059 7.78132 8.28532L7.77118 8.26043C7.73763 8.21179 7.72259 8.2111 7.70478 8.15074L7.59137 7.99715L7.6074 7.95757L7.64451 7.95445L7.69092 8.00299L7.71828 7.99715L7.75237 7.90186Z" fill="#8A8BBC"/>
<path d="M7.75237 7.90186L8.5627 8.16607L8.42643 8.17894C8.36211 8.15361 8.33559 8.14153 8.26933 8.1781C8.24677 8.19057 8.22619 8.21328 8.20813 8.23089L8.17582 8.21501C8.13594 8.20675 8.13554 8.20684 8.09913 8.2251L8.07443 8.1924C8.08918 8.17335 8.10269 8.159 8.121 8.14297L8.1398 8.12704L8.13638 8.06212C8.05974 8.04485 8.04979 8.07464 7.98681 8.11011L7.88063 8.17345L7.83951 8.15484C7.88458 8.10739 7.89977 8.10101 7.90863 8.03426C7.88463 7.9976 7.89616 8.00062 7.84861 7.98943C7.81036 8.02085 7.81041 8.03258 7.79542 8.08062L7.83916 8.15484C7.79567 8.17394 7.74975 8.1588 7.70478 8.15074L7.59137 7.99715L7.6074 7.95757L7.64451 7.95445L7.69092 8.00299L7.71828 7.99715L7.75237 7.90186Z" fill="#9D9CC5"/>
<path d="M8.56273 8.16602C9.20868 8.33454 9.86121 8.39822 10.5133 8.5285C11.4244 8.71044 12.2876 8.96723 13.1378 9.34233C13.5223 9.512 13.9325 9.70531 14.2553 9.97938C14.4474 10.1426 14.5908 10.3273 14.7172 10.5444C15.0593 11.1323 15.2565 11.8517 15.1089 12.527L15.0497 12.4269C14.7356 11.9288 14.2644 11.5614 13.7846 11.2337C13.3508 10.9374 12.9057 10.6584 12.4325 10.4287C12.0763 10.2558 11.7018 10.1284 11.3276 10.0016C11.0896 9.92099 10.8537 9.83139 10.6108 9.76617L9.80233 9.58236C9.78229 9.54609 9.79338 9.56083 9.76522 9.5309C9.69635 9.45767 9.7155 9.44827 9.68259 9.37014C9.66384 9.32566 9.58448 9.27252 9.54578 9.24145C9.57314 9.20453 9.58834 9.18459 9.59229 9.13823C9.56849 9.12527 9.54875 9.11597 9.53227 9.09355L9.48057 9.0181C9.46399 9.00469 9.473 9.01033 9.44821 8.99989C9.41783 8.98707 9.43282 8.9986 9.41026 8.96451C9.42347 8.94675 9.42753 8.93334 9.43436 8.91261C9.3918 8.8467 9.31343 8.79232 9.28033 8.72914L9.24955 8.66976L9.19384 8.67318L9.11982 8.82275C9.14827 8.86961 9.14658 8.86941 9.19859 8.88618L9.24025 8.85422L9.2928 8.89697L9.28344 8.95897L9.24955 8.98247L9.20299 8.94126L9.17711 8.90855C9.16296 8.92928 9.16969 8.92146 9.15153 8.93977L9.13837 8.95269C9.15183 8.99009 9.14495 9.01636 9.13822 9.05471L9.12427 8.98514L9.10255 9.02923L9.09547 9.0461L9.0927 9.0083C9.09429 8.98534 9.10948 8.96065 9.12531 8.94492L9.13802 8.93408L9.1405 8.90088C9.08701 8.88035 9.08864 8.87619 9.03615 8.89717C9.00285 8.94526 8.96247 8.98089 8.91557 9.01562L8.89716 8.97119L9.06544 8.81098C9.00042 8.74913 8.94367 8.69218 8.86094 8.65502C8.8313 8.65873 8.80607 8.65848 8.77638 8.65729L8.73353 8.61064L8.67119 8.65952L8.63383 8.65304C8.59905 8.6474 8.57911 8.6474 8.54566 8.66076L8.51419 8.64859L8.47693 8.5901L8.42518 8.58629C8.40405 8.57234 8.37609 8.56536 8.36189 8.54448C8.3373 8.50831 8.38149 8.39703 8.33339 8.3293L8.31702 8.30921C8.32637 8.23642 8.34111 8.27917 8.3899 8.24761C8.39831 8.24216 8.42013 8.1908 8.42646 8.17888L8.56273 8.16602Z" fill="url(#paint7_linear_2506_31)"/>
<path d="M10.2229 8.61865L10.2668 8.6187C10.2777 8.66749 10.2717 8.66269 10.2515 8.70484L10.2186 8.71999L10.1994 8.67427L10.2229 8.61865Z" fill="#BBB9CB"/>
<path d="M13.1291 10.4L13.1924 10.3921L13.2272 10.4371L13.204 10.4927L13.1817 10.4894C13.1406 10.4523 13.1355 10.4542 13.1291 10.4Z" fill="#BBB9CB"/>
<path d="M9.77158 8.71158L9.8124 8.70703C9.84679 8.72267 9.87039 8.74102 9.89889 8.76566L9.88038 8.7956C9.82996 8.7856 9.78672 8.77962 9.74402 8.74869L9.77158 8.71158Z" fill="#9D9CC5"/>
<path d="M9.35363 8.52577C9.40192 8.51701 9.43463 8.52933 9.47639 8.55343L9.46427 8.59999C9.43077 8.60548 9.3948 8.60197 9.36081 8.60137L9.33453 8.57248L9.35363 8.52577Z" fill="#9D9CC5"/>
<path d="M11.528 9.54655C11.5495 9.54299 11.5657 9.54457 11.5873 9.54655C11.6029 9.59677 11.5845 9.63621 11.5689 9.68391L11.5253 9.6701L11.4808 9.58366L11.528 9.54655Z" fill="#BBB9CB"/>
<path d="M9.65479 8.91568L9.6924 8.91553C9.69546 8.95145 9.7016 8.98386 9.71476 9.0177C9.72862 9.05333 9.73396 9.06594 9.73198 9.10563L9.67335 9.10291L9.66494 9.08816C9.6308 9.01993 9.63441 8.98539 9.65479 8.91568Z" fill="#9D9CC5"/>
<path d="M9.78778 8.82275L9.85255 8.80469L9.94216 8.83645L9.96388 8.84264L9.96695 8.86693L9.90831 8.87257L9.89911 8.89697C9.92657 8.90765 9.94334 8.91488 9.97313 8.91572L10.0102 8.87861L10.0845 8.92482L10.0721 8.94244C10.0545 8.97188 10.0442 8.98469 10.0195 9.00815C9.98317 8.984 9.98946 8.98257 9.9762 8.94382C9.9331 8.94412 9.91103 8.95619 9.8711 8.97203C9.85141 8.93323 9.8526 8.91221 9.84923 8.86916L9.78778 8.82275Z" fill="#9D9CC5"/>
<path d="M8.47693 8.58994L8.5223 8.54788L8.53378 8.4886C8.54902 8.44526 8.56129 8.43982 8.60008 8.42334C8.6552 8.46931 8.69137 8.50325 8.72452 8.56742C8.66198 8.58741 8.60226 8.6025 8.53734 8.6126L8.51419 8.64842L8.47693 8.58994Z" fill="#9592BB"/>
<defs>
<linearGradient id="paint0_linear_2506_31" x1="18.8479" y1="17.8222" x2="27.8893" y2="3.58926" gradientUnits="userSpaceOnUse">
<stop stop-color="#009EFF"/>
<stop offset="1" stop-color="#B0FFFD"/>
</linearGradient>
<linearGradient id="paint1_linear_2506_31" x1="13.9343" y1="32.153" x2="19.1903" y2="17.0362" gradientUnits="userSpaceOnUse">
<stop stop-color="#70E6FD"/>
<stop offset="1" stop-color="white"/>
</linearGradient>
<linearGradient id="paint2_linear_2506_31" x1="28.1215" y1="24.2163" x2="16.689" y2="33.6147" gradientUnits="userSpaceOnUse">
<stop stop-color="#3DAFFF"/>
<stop offset="1" stop-color="#90E3FE"/>
</linearGradient>
<linearGradient id="paint3_linear_2506_31" x1="17.9721" y1="21.1827" x2="21.1244" y2="14.1337" gradientUnits="userSpaceOnUse">
<stop stop-color="#003BAB"/>
<stop offset="1" stop-color="#0264C7"/>
</linearGradient>
<linearGradient id="paint4_linear_2506_31" x1="6.15828" y1="9.49191" x2="7.17608" y2="8.01148" gradientUnits="userSpaceOnUse">
<stop stop-color="#4044A1"/>
<stop offset="1" stop-color="#8582B6"/>
</linearGradient>
<linearGradient id="paint5_linear_2506_31" x1="7.53872" y1="9.56837" x2="8.6369" y2="8.18576" gradientUnits="userSpaceOnUse">
<stop stop-color="#5C5BA9"/>
<stop offset="1" stop-color="#A29BBA"/>
</linearGradient>
<linearGradient id="paint6_linear_2506_31" x1="7.68681" y1="8.76538" x2="8.05418" y2="8.12624" gradientUnits="userSpaceOnUse">
<stop stop-color="#7975AF"/>
<stop offset="1" stop-color="#8F8DB9"/>
</linearGradient>
<linearGradient id="paint7_linear_2506_31" x1="10.984" y1="11.1089" x2="13.1618" y2="8.89496" gradientUnits="userSpaceOnUse">
<stop stop-color="#9296C0"/>
<stop offset="1" stop-color="#E1DBDA"/>
</linearGradient>
</defs>
</svg>
