<svg width="300" height="300" viewBox="0 0 300 300" fill="none" xmlns="http://www.w3.org/2000/svg">
<rect width="300" height="300" rx="150" fill="white"/>
<path opacity="0.3" d="M221.5 170.5C221.5 190.526 215.031 209.041 204.069 224.069C189.041 235.031 170.526 241.5 150.5 241.5C100.242 241.5 59.5 200.758 59.5 150.5C59.5 130.474 65.9687 111.959 76.9305 96.9305C91.9592 85.9687 110.474 79.5 130.5 79.5C180.758 79.5 221.5 120.242 221.5 170.5Z" stroke="url(#paint0_linear_1050_523)" stroke-width="7" stroke-linejoin="round"/>
<g opacity="0.2">
<path d="M179.04 107.04C172.059 101.545 162.851 98.7228 153.792 98.2772V91H147.851V98.4257C132.703 99.6139 119.485 108.376 119.634 125.604C119.931 142.98 134.337 148.772 147.851 154.564V195.257C138.495 194.366 129.287 188.723 122.455 182.485L118 194.069C126.762 200.752 136.713 203.871 147.703 203.871H147.851V211H153.792V203.426C184.089 199.119 196.267 163.178 166.416 148.327C162.257 146.248 157.95 144.465 153.792 142.832V106.446C160.03 107.634 167.158 111.05 174.881 117.733L179.04 107.04ZM153.792 157.238C163.891 161.99 172.059 167.782 171.168 179.96C170.723 185.901 166.861 191.099 158.99 194.069C157.208 194.663 155.426 195.109 153.792 195.257V157.238ZM147.851 140.307C144.584 138.97 141.465 137.337 138.792 135.703C123.347 125.455 130.327 106.297 147.851 105.851V140.307Z" fill="url(#paint1_linear_1050_523)"/>
<path d="M178.04 108.04C171.059 102.545 161.851 99.7228 152.792 99.2772V92H146.851V99.4257C131.703 100.614 118.485 109.376 118.634 126.604C118.931 143.98 133.337 149.772 146.851 155.564V196.257C137.495 195.366 128.287 189.723 121.455 183.485L117 195.069C125.762 201.752 135.713 204.871 146.703 204.871H146.851V212H152.792V204.426C183.089 200.119 195.267 164.178 165.416 149.327C161.257 147.248 156.95 145.465 152.792 143.832V107.446C159.03 108.634 166.158 112.05 173.881 118.733L178.04 108.04ZM152.792 158.238C162.891 162.99 171.059 168.782 170.168 180.96C169.723 186.901 165.861 192.099 157.99 195.069C156.208 195.663 154.426 196.109 152.792 196.257V158.238ZM146.851 141.307C143.584 139.97 140.465 138.337 137.792 136.703C122.347 126.455 129.327 107.297 146.851 106.851V141.307Z" fill="url(#paint2_linear_1050_523)"/>
<path d="M177.04 109.04C170.059 103.545 160.851 100.723 151.792 100.277V93H145.851V100.426C130.703 101.614 117.485 110.376 117.634 127.604C117.931 144.98 132.337 150.772 145.851 156.564V197.257C136.495 196.366 127.287 190.723 120.455 184.485L116 196.069C124.762 202.752 134.713 205.871 145.703 205.871H145.851V213H151.792V205.426C182.089 201.119 194.267 165.178 164.416 150.327C160.257 148.248 155.95 146.465 151.792 144.832V108.446C158.03 109.634 165.158 113.05 172.881 119.733L177.04 109.04ZM151.792 159.238C161.891 163.99 170.059 169.782 169.168 181.96C168.723 187.901 164.861 193.099 156.99 196.069C155.208 196.663 153.426 197.109 151.792 197.257V159.238ZM145.851 142.307C142.584 140.97 139.465 139.337 136.792 137.703C121.347 127.455 128.327 108.297 145.851 107.851V142.307Z" fill="url(#paint3_linear_1050_523)"/>
<path d="M176.04 110.04C169.059 104.545 159.851 101.723 150.792 101.277V94H144.851V101.426C129.703 102.614 116.485 111.376 116.634 128.604C116.931 145.98 131.337 151.772 144.851 157.564V198.257C135.495 197.366 126.287 191.723 119.455 185.485L115 197.069C123.762 203.752 133.713 206.871 144.703 206.871H144.851V214H150.792V206.426C181.089 202.119 193.267 166.178 163.416 151.327C159.257 149.248 154.95 147.465 150.792 145.832V109.446C157.03 110.634 164.158 114.05 171.881 120.733L176.04 110.04ZM150.792 160.238C160.891 164.99 169.059 170.782 168.168 182.96C167.723 188.901 163.861 194.099 155.99 197.069C154.208 197.663 152.426 198.109 150.792 198.257V160.238ZM144.851 143.307C141.584 141.97 138.465 140.337 135.792 138.703C120.347 128.455 127.327 109.297 144.851 108.851V143.307Z" fill="url(#paint4_linear_1050_523)"/>
<path d="M175.04 111.04C168.059 105.545 158.851 102.723 149.792 102.277V95H143.851V102.426C128.703 103.614 115.485 112.376 115.634 129.604C115.931 146.98 130.337 152.772 143.851 158.564V199.257C134.495 198.366 125.287 192.723 118.455 186.485L114 198.069C122.762 204.752 132.713 207.871 143.703 207.871H143.851V215H149.792V207.426C180.089 203.119 192.267 167.178 162.416 152.327C158.257 150.248 153.95 148.465 149.792 146.832V110.446C156.03 111.634 163.158 115.05 170.881 121.733L175.04 111.04ZM149.792 161.238C159.891 165.99 168.059 171.782 167.168 183.96C166.723 189.901 162.861 195.099 154.99 198.069C153.208 198.663 151.426 199.109 149.792 199.257V161.238ZM143.851 144.307C140.584 142.97 137.465 141.337 134.792 139.703C119.347 129.455 126.327 110.297 143.851 109.851V144.307Z" fill="url(#paint5_linear_1050_523)"/>
<path d="M174.04 112.04C167.059 106.545 157.851 103.723 148.792 103.277V96H142.851V103.426C127.703 104.614 114.485 113.376 114.634 130.604C114.931 147.98 129.337 153.772 142.851 159.564V200.257C133.495 199.366 124.287 193.723 117.455 187.485L113 199.069C121.762 205.752 131.713 208.871 142.703 208.871H142.851V216H148.792V208.426C179.089 204.119 191.267 168.178 161.416 153.327C157.257 151.248 152.95 149.465 148.792 147.832V111.446C155.03 112.634 162.158 116.05 169.881 122.733L174.04 112.04ZM148.792 162.238C158.891 166.99 167.059 172.782 166.168 184.96C165.723 190.901 161.861 196.099 153.99 199.069C152.208 199.663 150.426 200.109 148.792 200.257V162.238ZM142.851 145.307C139.584 143.97 136.465 142.337 133.792 140.703C118.347 130.455 125.327 111.297 142.851 110.851V145.307Z" fill="url(#paint6_linear_1050_523)"/>
<path d="M173.04 113.04C166.059 107.545 156.851 104.723 147.792 104.277V97H141.851V104.426C126.703 105.614 113.485 114.376 113.634 131.604C113.931 148.98 128.337 154.772 141.851 160.564V201.257C132.495 200.366 123.287 194.723 116.455 188.485L112 200.069C120.762 206.752 130.713 209.871 141.703 209.871H141.851V217H147.792V209.426C178.089 205.119 190.267 169.178 160.416 154.327C156.257 152.248 151.95 150.465 147.792 148.832V112.446C154.03 113.634 161.158 117.05 168.881 123.733L173.04 113.04ZM147.792 163.238C157.891 167.99 166.059 173.782 165.168 185.96C164.723 191.901 160.861 197.099 152.99 200.069C151.208 200.663 149.426 201.109 147.792 201.257V163.238ZM141.851 146.307C138.584 144.97 135.465 143.337 132.792 141.703C117.347 131.455 124.327 112.297 141.851 111.851V146.307Z" fill="url(#paint7_linear_1050_523)"/>
<path d="M172.04 114.04C165.059 108.545 155.851 105.723 146.792 105.277V98H140.851V105.426C125.703 106.614 112.485 115.376 112.634 132.604C112.931 149.98 127.337 155.772 140.851 161.564V202.257C131.495 201.366 122.287 195.723 115.455 189.485L111 201.069C119.762 207.752 129.713 210.871 140.703 210.871H140.851V218H146.792V210.426C177.089 206.119 189.267 170.178 159.416 155.327C155.257 153.248 150.95 151.465 146.792 149.832V113.446C153.03 114.634 160.158 118.05 167.881 124.733L172.04 114.04ZM146.792 164.238C156.891 168.99 165.059 174.782 164.168 186.96C163.723 192.901 159.861 198.099 151.99 201.069C150.208 201.663 148.426 202.109 146.792 202.257V164.238ZM140.851 147.307C137.584 145.97 134.465 144.337 131.792 142.703C116.347 132.455 123.327 113.297 140.851 112.851V147.307Z" fill="url(#paint8_linear_1050_523)"/>
<path d="M171.04 115.04C164.059 109.545 154.851 106.723 145.792 106.277V99H139.851V106.426C124.703 107.614 111.485 116.376 111.634 133.604C111.931 150.98 126.337 156.772 139.851 162.564V203.257C130.495 202.366 121.287 196.723 114.455 190.485L110 202.069C118.762 208.752 128.713 211.871 139.703 211.871H139.851V219H145.792V211.426C176.089 207.119 188.267 171.178 158.416 156.327C154.257 154.248 149.95 152.465 145.792 150.832V114.446C152.03 115.634 159.158 119.05 166.881 125.733L171.04 115.04ZM145.792 165.238C155.891 169.99 164.059 175.782 163.168 187.96C162.723 193.901 158.861 199.099 150.99 202.069C149.208 202.663 147.426 203.109 145.792 203.257V165.238ZM139.851 148.307C136.584 146.97 133.465 145.337 130.792 143.703C115.347 133.455 122.327 114.297 139.851 113.851V148.307Z" fill="url(#paint9_linear_1050_523)"/>
<path d="M170.04 116.04C163.059 110.545 153.851 107.723 144.792 107.277V100H138.851V107.426C123.703 108.614 110.485 117.376 110.634 134.604C110.931 151.98 125.337 157.772 138.851 163.564V204.257C129.495 203.366 120.287 197.723 113.455 191.485L109 203.069C117.762 209.752 127.713 212.871 138.703 212.871H138.851V220H144.792V212.426C175.089 208.119 187.267 172.178 157.416 157.327C153.257 155.248 148.95 153.465 144.792 151.832V115.446C151.03 116.634 158.158 120.05 165.881 126.733L170.04 116.04ZM144.792 166.238C154.891 170.99 163.059 176.782 162.168 188.96C161.723 194.901 157.861 200.099 149.99 203.069C148.208 203.663 146.426 204.109 144.792 204.257V166.238ZM138.851 149.307C135.584 147.97 132.465 146.337 129.792 144.703C114.347 134.455 121.327 115.297 138.851 114.851V149.307Z" fill="url(#paint10_linear_1050_523)"/>
<path d="M169.04 117.04C162.059 111.545 152.851 108.723 143.792 108.277V101H137.851V108.426C122.703 109.614 109.485 118.376 109.634 135.604C109.931 152.98 124.337 158.772 137.851 164.564V205.257C128.495 204.366 119.287 198.723 112.455 192.485L108 204.069C116.762 210.752 126.713 213.871 137.703 213.871H137.851V221H143.792V213.426C174.089 209.119 186.267 173.178 156.416 158.327C152.257 156.248 147.95 154.465 143.792 152.832V116.446C150.03 117.634 157.158 121.05 164.881 127.733L169.04 117.04ZM143.792 167.238C153.891 171.99 162.059 177.782 161.168 189.96C160.723 195.901 156.861 201.099 148.99 204.069C147.208 204.663 145.426 205.109 143.792 205.257V167.238ZM137.851 150.307C134.584 148.97 131.465 147.337 128.792 145.703C113.347 135.455 120.327 116.297 137.851 115.851V150.307Z" fill="url(#paint11_linear_1050_523)"/>
<path d="M168.04 118.04C161.059 112.545 151.851 109.723 142.792 109.277V102H136.851V109.426C121.703 110.614 108.485 119.376 108.634 136.604C108.931 153.98 123.337 159.772 136.851 165.564V206.257C127.495 205.366 118.287 199.723 111.455 193.485L107 205.069C115.762 211.752 125.713 214.871 136.703 214.871H136.851V222H142.792V214.426C173.089 210.119 185.267 174.178 155.416 159.327C151.257 157.248 146.95 155.465 142.792 153.832V117.446C149.03 118.634 156.158 122.05 163.881 128.733L168.04 118.04ZM142.792 168.238C152.891 172.99 161.059 178.782 160.168 190.96C159.723 196.901 155.861 202.099 147.99 205.069C146.208 205.663 144.426 206.109 142.792 206.257V168.238ZM136.851 151.307C133.584 149.97 130.465 148.337 127.792 146.703C112.347 136.455 119.327 117.297 136.851 116.851V151.307Z" fill="url(#paint12_linear_1050_523)"/>
<path d="M167.04 119.04C160.059 113.545 150.851 110.723 141.792 110.277V103H135.851V110.426C120.703 111.614 107.485 120.376 107.634 137.604C107.931 154.98 122.337 160.772 135.851 166.564V207.257C126.495 206.366 117.287 200.723 110.455 194.485L106 206.069C114.762 212.752 124.713 215.871 135.703 215.871H135.851V223H141.792V215.426C172.089 211.119 184.267 175.178 154.416 160.327C150.257 158.248 145.95 156.465 141.792 154.832V118.446C148.03 119.634 155.158 123.05 162.881 129.733L167.04 119.04ZM141.792 169.238C151.891 173.99 160.059 179.782 159.168 191.96C158.723 197.901 154.861 203.099 146.99 206.069C145.208 206.663 143.426 207.109 141.792 207.257V169.238ZM135.851 152.307C132.584 150.97 129.465 149.337 126.792 147.703C111.347 137.455 118.327 118.297 135.851 117.851V152.307Z" fill="url(#paint13_linear_1050_523)"/>
<path d="M166.04 120.04C159.059 114.545 149.851 111.723 140.792 111.277V104H134.851V111.426C119.703 112.614 106.485 121.376 106.634 138.604C106.931 155.98 121.337 161.772 134.851 167.564V208.257C125.495 207.366 116.287 201.723 109.455 195.485L105 207.069C113.762 213.752 123.713 216.871 134.703 216.871H134.851V224H140.792V216.426C171.089 212.119 183.267 176.178 153.416 161.327C149.257 159.248 144.95 157.465 140.792 155.832V119.446C147.03 120.634 154.158 124.05 161.881 130.733L166.04 120.04ZM140.792 170.238C150.891 174.99 159.059 180.782 158.168 192.96C157.723 198.901 153.861 204.099 145.99 207.069C144.208 207.663 142.426 208.109 140.792 208.257V170.238ZM134.851 153.307C131.584 151.97 128.465 150.337 125.792 148.703C110.347 138.455 117.327 119.297 134.851 118.851V153.307Z" fill="url(#paint14_linear_1050_523)"/>
<path d="M165.04 121.04C158.059 115.545 148.851 112.723 139.792 112.277V105H133.851V112.426C118.703 113.614 105.485 122.376 105.634 139.604C105.931 156.98 120.337 162.772 133.851 168.564V209.257C124.495 208.366 115.287 202.723 108.455 196.485L104 208.069C112.762 214.752 122.713 217.871 133.703 217.871H133.851V225H139.792V217.426C170.089 213.119 182.267 177.178 152.416 162.327C148.257 160.248 143.95 158.465 139.792 156.832V120.446C146.03 121.634 153.158 125.05 160.881 131.733L165.04 121.04ZM139.792 171.238C149.891 175.99 158.059 181.782 157.168 193.96C156.723 199.901 152.861 205.099 144.99 208.069C143.208 208.663 141.426 209.109 139.792 209.257V171.238ZM133.851 154.307C130.584 152.97 127.465 151.337 124.792 149.703C109.347 139.455 116.327 120.297 133.851 119.851V154.307Z" fill="url(#paint15_linear_1050_523)"/>
<path d="M164.04 122.04C157.059 116.545 147.851 113.723 138.792 113.277V106H132.851V113.426C117.703 114.614 104.485 123.376 104.634 140.604C104.931 157.98 119.337 163.772 132.851 169.564V210.257C123.495 209.366 114.287 203.723 107.455 197.485L103 209.069C111.762 215.752 121.713 218.871 132.703 218.871H132.851V226H138.792V218.426C169.089 214.119 181.267 178.178 151.416 163.327C147.257 161.248 142.95 159.465 138.792 157.832V121.446C145.03 122.634 152.158 126.05 159.881 132.733L164.04 122.04ZM138.792 172.238C148.891 176.99 157.059 182.782 156.168 194.96C155.723 200.901 151.861 206.099 143.99 209.069C142.208 209.663 140.426 210.109 138.792 210.257V172.238ZM132.851 155.307C129.584 153.97 126.465 152.337 123.792 150.703C108.347 140.455 115.327 121.297 132.851 120.851V155.307Z" fill="url(#paint16_linear_1050_523)"/>
<path d="M163.04 123.04C156.059 117.545 146.851 114.723 137.792 114.277V107H131.851V114.426C116.703 115.614 103.485 124.376 103.634 141.604C103.931 158.98 118.337 164.772 131.851 170.564V211.257C122.495 210.366 113.287 204.723 106.455 198.485L102 210.069C110.762 216.752 120.713 219.871 131.703 219.871H131.851V227H137.792V219.426C168.089 215.119 180.267 179.178 150.416 164.327C146.257 162.248 141.95 160.465 137.792 158.832V122.446C144.03 123.634 151.158 127.05 158.881 133.733L163.04 123.04ZM137.792 173.238C147.891 177.99 156.059 183.782 155.168 195.96C154.723 201.901 150.861 207.099 142.99 210.069C141.208 210.663 139.426 211.109 137.792 211.257V173.238ZM131.851 156.307C128.584 154.97 125.465 153.337 122.792 151.703C107.347 141.455 114.327 122.297 131.851 121.851V156.307Z" fill="url(#paint17_linear_1050_523)"/>
<path d="M162.04 124.04C155.059 118.545 145.851 115.723 136.792 115.277V108H130.851V115.426C115.703 116.614 102.485 125.376 102.634 142.604C102.931 159.98 117.337 165.772 130.851 171.564V212.257C121.495 211.366 112.287 205.723 105.455 199.485L101 211.069C109.762 217.752 119.713 220.871 130.703 220.871H130.851V228H136.792V220.426C167.089 216.119 179.267 180.178 149.416 165.327C145.257 163.248 140.95 161.465 136.792 159.832V123.446C143.03 124.634 150.158 128.05 157.881 134.733L162.04 124.04ZM136.792 174.238C146.891 178.99 155.059 184.782 154.168 196.96C153.723 202.901 149.861 208.099 141.99 211.069C140.208 211.663 138.426 212.109 136.792 212.257V174.238ZM130.851 157.307C127.584 155.97 124.465 154.337 121.792 152.703C106.347 142.455 113.327 123.297 130.851 122.851V157.307Z" fill="url(#paint18_linear_1050_523)"/>
<path d="M161.04 125.04C154.059 119.545 144.851 116.723 135.792 116.277V109H129.851V116.426C114.703 117.614 101.485 126.376 101.634 143.604C101.931 160.98 116.337 166.772 129.851 172.564V213.257C120.495 212.366 111.287 206.723 104.455 200.485L100 212.069C108.762 218.752 118.713 221.871 129.703 221.871H129.851V229H135.792V221.426C166.089 217.119 178.267 181.178 148.416 166.327C144.257 164.248 139.95 162.465 135.792 160.832V124.446C142.03 125.634 149.158 129.05 156.881 135.733L161.04 125.04ZM135.792 175.238C145.891 179.99 154.059 185.782 153.168 197.96C152.723 203.901 148.861 209.099 140.99 212.069C139.208 212.663 137.426 213.109 135.792 213.257V175.238ZM129.851 158.307C126.584 156.97 123.465 155.337 120.792 153.703C105.347 143.455 112.327 124.297 129.851 123.851V158.307Z" fill="url(#paint19_linear_1050_523)"/>
<path d="M160.04 126.04C153.059 120.545 143.851 117.723 134.792 117.277V110H128.851V117.426C113.703 118.614 100.485 127.376 100.634 144.604C100.931 161.98 115.337 167.772 128.851 173.564V214.257C119.495 213.366 110.287 207.723 103.455 201.485L99 213.069C107.762 219.752 117.713 222.871 128.703 222.871H128.851V230H134.792V222.426C165.089 218.119 177.267 182.178 147.416 167.327C143.257 165.248 138.95 163.465 134.792 161.832V125.446C141.03 126.634 148.158 130.05 155.881 136.733L160.04 126.04ZM134.792 176.238C144.891 180.99 153.059 186.782 152.168 198.96C151.723 204.901 147.861 210.099 139.99 213.069C138.208 213.663 136.426 214.109 134.792 214.257V176.238ZM128.851 159.307C125.584 157.97 122.465 156.337 119.792 154.703C104.347 144.455 111.327 125.297 128.851 124.851V159.307Z" fill="url(#paint20_linear_1050_523)"/>
<path d="M159.04 127.04C152.059 121.545 142.851 118.723 133.792 118.277V111H127.851V118.426C112.703 119.614 99.4851 128.376 99.6337 145.604C99.9307 162.98 114.337 168.772 127.851 174.564V215.257C118.495 214.366 109.287 208.723 102.455 202.485L98 214.069C106.762 220.752 116.713 223.871 127.703 223.871H127.851V231H133.792V223.426C164.089 219.119 176.267 183.178 146.416 168.327C142.257 166.248 137.95 164.465 133.792 162.832V126.446C140.03 127.634 147.158 131.05 154.881 137.733L159.04 127.04ZM133.792 177.238C143.891 181.99 152.059 187.782 151.168 199.96C150.723 205.901 146.861 211.099 138.99 214.069C137.208 214.663 135.426 215.109 133.792 215.257V177.238ZM127.851 160.307C124.584 158.97 121.465 157.337 118.792 155.703C103.347 145.455 110.327 126.297 127.851 125.851V160.307Z" fill="url(#paint21_linear_1050_523)"/>
</g>
<path d="M242.5 149.5C242.5 199.758 201.758 240.5 151.5 240.5C101.242 240.5 60.5 199.758 60.5 149.5C60.5 99.2421 101.242 58.5 151.5 58.5C201.758 58.5 242.5 99.2421 242.5 149.5Z" stroke="#2FA3FF" stroke-width="7" stroke-linejoin="round"/>
<path d="M180.04 106.04C173.059 100.545 163.851 97.7228 154.792 97.2772V90H148.851V97.4257C133.703 98.6139 120.485 107.376 120.634 124.604C120.931 141.98 135.337 147.772 148.851 153.564V194.257C139.495 193.366 130.287 187.723 123.455 181.485L119 193.069C127.762 199.752 137.713 202.871 148.703 202.871H148.851V210H154.792V202.426C185.089 198.119 197.267 162.178 167.416 147.327C163.257 145.248 158.95 143.465 154.792 141.832V105.446C161.03 106.634 168.158 110.05 175.881 116.733L180.04 106.04ZM154.792 156.238C164.891 160.99 173.059 166.782 172.168 178.96C171.723 184.901 167.861 190.099 159.99 193.069C158.208 193.663 156.426 194.109 154.792 194.257V156.238ZM148.851 139.307C145.584 137.97 142.465 136.337 139.792 134.703C124.347 124.455 131.327 105.297 148.851 104.851V139.307Z" fill="#2FA3FF"/>
<defs>
<linearGradient id="paint0_linear_1050_523" x1="229.5" y1="84.5" x2="61" y2="250.5" gradientUnits="userSpaceOnUse">
<stop stop-color="#2FA3FF" stop-opacity="0.29"/>
<stop offset="1" stop-color="#C1C1C1" stop-opacity="0.26"/>
</linearGradient>
<linearGradient id="paint1_linear_1050_523" x1="218.5" y1="84.5" x2="48" y2="231" gradientUnits="userSpaceOnUse">
<stop stop-color="#2FA3FF" stop-opacity="0.28"/>
<stop offset="1" stop-color="#C1C1C1" stop-opacity="0"/>
</linearGradient>
<linearGradient id="paint2_linear_1050_523" x1="218.5" y1="84.5" x2="48" y2="231" gradientUnits="userSpaceOnUse">
<stop stop-color="#2FA3FF" stop-opacity="0.28"/>
<stop offset="1" stop-color="#C1C1C1" stop-opacity="0"/>
</linearGradient>
<linearGradient id="paint3_linear_1050_523" x1="218.5" y1="84.5" x2="48" y2="231" gradientUnits="userSpaceOnUse">
<stop stop-color="#2FA3FF" stop-opacity="0.28"/>
<stop offset="1" stop-color="#C1C1C1" stop-opacity="0"/>
</linearGradient>
<linearGradient id="paint4_linear_1050_523" x1="218.5" y1="84.5" x2="48" y2="231" gradientUnits="userSpaceOnUse">
<stop stop-color="#2FA3FF" stop-opacity="0.28"/>
<stop offset="1" stop-color="#C1C1C1" stop-opacity="0"/>
</linearGradient>
<linearGradient id="paint5_linear_1050_523" x1="218.5" y1="84.5" x2="48" y2="231" gradientUnits="userSpaceOnUse">
<stop stop-color="#2FA3FF" stop-opacity="0.28"/>
<stop offset="1" stop-color="#C1C1C1" stop-opacity="0"/>
</linearGradient>
<linearGradient id="paint6_linear_1050_523" x1="218.5" y1="84.5" x2="48" y2="231" gradientUnits="userSpaceOnUse">
<stop stop-color="#2FA3FF" stop-opacity="0.28"/>
<stop offset="1" stop-color="#C1C1C1" stop-opacity="0"/>
</linearGradient>
<linearGradient id="paint7_linear_1050_523" x1="218.5" y1="84.5" x2="48" y2="231" gradientUnits="userSpaceOnUse">
<stop stop-color="#2FA3FF" stop-opacity="0.28"/>
<stop offset="1" stop-color="#C1C1C1" stop-opacity="0"/>
</linearGradient>
<linearGradient id="paint8_linear_1050_523" x1="218.5" y1="84.5" x2="48" y2="231" gradientUnits="userSpaceOnUse">
<stop stop-color="#2FA3FF" stop-opacity="0.28"/>
<stop offset="1" stop-color="#C1C1C1" stop-opacity="0"/>
</linearGradient>
<linearGradient id="paint9_linear_1050_523" x1="218.5" y1="84.5" x2="48" y2="231" gradientUnits="userSpaceOnUse">
<stop stop-color="#2FA3FF" stop-opacity="0.28"/>
<stop offset="1" stop-color="#C1C1C1" stop-opacity="0"/>
</linearGradient>
<linearGradient id="paint10_linear_1050_523" x1="218.5" y1="84.5" x2="48" y2="231" gradientUnits="userSpaceOnUse">
<stop stop-color="#2FA3FF" stop-opacity="0.28"/>
<stop offset="1" stop-color="#C1C1C1" stop-opacity="0"/>
</linearGradient>
<linearGradient id="paint11_linear_1050_523" x1="218.5" y1="84.5" x2="48" y2="231" gradientUnits="userSpaceOnUse">
<stop stop-color="#2FA3FF" stop-opacity="0.28"/>
<stop offset="1" stop-color="#C1C1C1" stop-opacity="0"/>
</linearGradient>
<linearGradient id="paint12_linear_1050_523" x1="218.5" y1="84.5" x2="48" y2="231" gradientUnits="userSpaceOnUse">
<stop stop-color="#2FA3FF" stop-opacity="0.28"/>
<stop offset="1" stop-color="#C1C1C1" stop-opacity="0"/>
</linearGradient>
<linearGradient id="paint13_linear_1050_523" x1="218.5" y1="84.5" x2="48" y2="231" gradientUnits="userSpaceOnUse">
<stop stop-color="#2FA3FF" stop-opacity="0.28"/>
<stop offset="1" stop-color="#C1C1C1" stop-opacity="0"/>
</linearGradient>
<linearGradient id="paint14_linear_1050_523" x1="218.5" y1="84.5" x2="48" y2="231" gradientUnits="userSpaceOnUse">
<stop stop-color="#2FA3FF" stop-opacity="0.28"/>
<stop offset="1" stop-color="#C1C1C1" stop-opacity="0"/>
</linearGradient>
<linearGradient id="paint15_linear_1050_523" x1="218.5" y1="84.5" x2="48" y2="231" gradientUnits="userSpaceOnUse">
<stop stop-color="#2FA3FF" stop-opacity="0.28"/>
<stop offset="1" stop-color="#C1C1C1" stop-opacity="0"/>
</linearGradient>
<linearGradient id="paint16_linear_1050_523" x1="218.5" y1="84.5" x2="48" y2="231" gradientUnits="userSpaceOnUse">
<stop stop-color="#2FA3FF" stop-opacity="0.28"/>
<stop offset="1" stop-color="#C1C1C1" stop-opacity="0"/>
</linearGradient>
<linearGradient id="paint17_linear_1050_523" x1="218.5" y1="84.5" x2="48" y2="231" gradientUnits="userSpaceOnUse">
<stop stop-color="#2FA3FF" stop-opacity="0.28"/>
<stop offset="1" stop-color="#C1C1C1" stop-opacity="0"/>
</linearGradient>
<linearGradient id="paint18_linear_1050_523" x1="218.5" y1="84.5" x2="48" y2="231" gradientUnits="userSpaceOnUse">
<stop stop-color="#2FA3FF" stop-opacity="0.28"/>
<stop offset="1" stop-color="#C1C1C1" stop-opacity="0"/>
</linearGradient>
<linearGradient id="paint19_linear_1050_523" x1="218.5" y1="84.5" x2="48" y2="231" gradientUnits="userSpaceOnUse">
<stop stop-color="#2FA3FF" stop-opacity="0.28"/>
<stop offset="1" stop-color="#C1C1C1" stop-opacity="0"/>
</linearGradient>
<linearGradient id="paint20_linear_1050_523" x1="218.5" y1="84.5" x2="48" y2="231" gradientUnits="userSpaceOnUse">
<stop stop-color="#2FA3FF" stop-opacity="0.28"/>
<stop offset="1" stop-color="#C1C1C1" stop-opacity="0"/>
</linearGradient>
<linearGradient id="paint21_linear_1050_523" x1="218.5" y1="84.5" x2="48" y2="231" gradientUnits="userSpaceOnUse">
<stop stop-color="#2FA3FF" stop-opacity="0.28"/>
<stop offset="1" stop-color="#C1C1C1" stop-opacity="0"/>
</linearGradient>
</defs>
</svg>
