<svg width="246" height="199" viewBox="0 0 246 199" fill="none" xmlns="http://www.w3.org/2000/svg">
<g clip-path="url(#clip0_915_38)">
<g opacity="0.5">
<path opacity="0.5" d="M1.45997 69.6303L1.57997 69.4103L1.66997 69.2503L1.75997 69.0903C2.74291 67.2039 4.30175 65.6801 6.20997 64.7403L6.70997 64.5203L68.11 37.7503L129.51 10.9703L130.02 10.7503C130.776 10.3764 131.617 10.2091 132.458 10.2653C133.299 10.3215 134.111 10.5992 134.81 11.0703L134.92 11.1503L135.03 11.2203L142.14 16.5103L137.54 17.8703L143.64 100.3C143.746 102.522 143.208 104.727 142.09 106.65L141.99 106.82L141.91 106.97C140.927 108.857 139.368 110.38 137.46 111.32L15 164.68L15.48 169.87L8.74997 164.87L8.63997 164.79C7.92155 164.245 7.33536 163.544 6.92504 162.741C6.51471 161.938 6.29081 161.052 6.26997 160.15L-2.70046e-05 75.7603C-0.0962769 73.6206 0.409547 71.4968 1.45997 69.6303Z" fill="white"/>
<path opacity="0.5" d="M20.63 170.44L144.45 116.44C148.19 114.81 150.94 109.6 150.58 104.82L144.43 21.6203C144.07 16.8403 140.75 14.2803 137.01 15.9103L13.19 69.9103C9.45 71.5103 6.7 76.7502 7.06 81.5103L13.21 164.7C13.57 169.51 16.89 172.08 20.63 170.44Z" fill="url(#paint0_linear_915_38)"/>
<path opacity="0.5" d="M13.7 69.6903L75.1 42.9203L82.34 140.71L21.14 170.22C17.14 171.98 13.59 169.79 13.26 165.33L6.99997 80.9403C6.92221 78.6204 7.51226 76.3269 8.69999 74.3326C9.88772 72.3383 11.6231 70.727 13.7 69.6903Z" fill="url(#paint1_linear_915_38)"/>
<path opacity="0.5" d="M136.5 16.1403L75.1 42.9203L82.29 140.1L143.94 116.67C146.015 115.635 147.749 114.025 148.935 112.032C150.121 110.039 150.709 107.748 150.63 105.43L144.38 21.0303C144.05 16.5803 140.52 14.3903 136.5 16.1403Z" fill="url(#paint2_linear_915_38)"/>
<path opacity="0.5" d="M149.19 111.56C148.052 113.796 146.206 115.593 143.94 116.67L21.14 170.22C20.2531 170.679 19.2583 170.889 18.2616 170.828C17.2649 170.766 16.3035 170.435 15.48 169.87L77.89 80.5103L149.19 111.56Z" fill="url(#paint3_linear_915_38)"/>
<path opacity="0.5" d="M8.44995 74.8003C9.59428 72.5688 11.4384 70.7739 13.7 69.6903L136.5 16.1403C137.387 15.6815 138.383 15.4727 139.38 15.5361C140.377 15.5995 141.338 15.9328 142.16 16.5003L79.76 105.82L8.44995 74.8003Z" fill="url(#paint4_linear_915_38)"/>
<path opacity="0.5" d="M34.83 85.6802C34.83 85.6002 34.9 85.5202 34.94 85.4302C34.9708 85.3756 34.9975 85.3188 35.02 85.2603L35.11 85.0702C36.0188 82.9758 37.5703 81.2247 39.54 80.0702L40.06 79.7902L103.94 45.9803L167.82 12.1703L168.35 11.9003C169.136 11.4407 170.03 11.1984 170.94 11.1984C171.85 11.1984 172.744 11.4407 173.53 11.9003L173.65 11.9703L173.77 12.0403L181.85 17.1103L177 18.8603L190.28 107.05C190.581 109.447 190.178 111.879 189.12 114.05C189.089 114.108 189.062 114.168 189.04 114.23L188.95 114.41C188.047 116.509 186.494 118.261 184.52 119.41L57.14 186.84L58.08 192.38L50.43 187.56L50.31 187.49C49.4894 186.965 48.7991 186.26 48.2915 185.428C47.7839 184.596 47.4722 183.66 47.38 182.69L33.78 92.4002C33.4952 90.1061 33.859 87.7781 34.83 85.6802Z" fill="white"/>
<path opacity="0.5" d="M63.67 192.58L192.48 124.4C196.38 122.34 198.91 116.52 198.14 111.4L184.74 22.4003C183.97 17.2803 180.18 14.8003 176.29 16.8603L47.48 85.0302C43.58 87.0902 41.05 92.9102 41.82 98.0302L55.22 187.03C56 192.16 59.78 194.64 63.67 192.58Z" fill="url(#paint5_linear_915_38)"/>
<path opacity="0.5" d="M48 84.7503L111.88 50.9403L127.64 155.57L64.2 192.3C60.01 194.52 56.04 192.45 55.32 187.68L41.72 97.3903C41.4472 94.9033 41.894 92.3903 43.0072 90.1497C44.1204 87.9091 45.8533 86.0351 48 84.7503Z" fill="url(#paint6_linear_915_38)"/>
<path opacity="0.5" d="M175.76 17.1303L111.88 50.9403L127.54 154.94L192 124.68C194.147 123.395 195.88 121.521 196.993 119.281C198.106 117.04 198.553 114.527 198.28 112.04L184.68 21.7503C183.92 16.9803 180 14.9103 175.76 17.1303Z" fill="url(#paint7_linear_915_38)"/>
<path opacity="0.5" d="M197.19 118.75C196.145 121.247 194.307 123.331 191.96 124.68L64.2 192.3C63.2832 192.868 62.2292 193.175 61.1511 193.189C60.0729 193.203 59.0113 192.924 58.08 192.38L118 91.2003L197.19 118.75Z" fill="url(#paint8_linear_915_38)"/>
<path opacity="0.5" d="M42.77 90.6803C43.8126 88.1815 45.6511 86.0969 48 84.7503L175.76 17.1303C176.677 16.5627 177.731 16.2554 178.809 16.2413C179.887 16.2272 180.949 16.5069 181.88 17.0503L122 118.23L42.77 90.6803Z" fill="url(#paint9_linear_915_38)"/>
</g>
<path d="M70.15 85.3003C70.15 85.2103 70.22 85.1202 70.26 85.0303C70.2824 84.9652 70.3091 84.9017 70.34 84.8403L70.42 84.6403C71.2967 82.3558 72.8804 80.4113 74.94 79.0903L75.49 78.7803L142.21 40.2403L208.93 1.71025L209.48 1.39025C210.296 0.864308 211.237 0.564076 212.206 0.520159C213.176 0.476241 214.14 0.690209 215 1.14025L215.13 1.21025L215.26 1.28025L224.07 6.36025L219 8.51025L236.62 101.93C237.019 104.465 236.671 107.06 235.62 109.4L235.53 109.6C235.508 109.662 235.481 109.722 235.45 109.78C234.583 112.07 232.997 114.017 230.93 115.33L97.9 192.19L99.12 198.05L90.78 193.22L90.65 193.15C89.7562 192.621 88.994 191.896 88.4207 191.03C87.8474 190.164 87.4779 189.18 87.34 188.15L69.3 92.5103C68.8979 90.0749 69.1925 87.5754 70.15 85.3003Z" fill="white"/>
<path d="M105.09 198.05L239.63 120.34C243.7 117.99 246.16 111.69 245.14 106.26L227.36 11.9703C226.36 6.54025 222.2 4.05025 218.14 6.40025L83.6 84.1002C79.53 86.4502 77.06 92.7603 78.08 98.1803L95.87 192.51C96.89 197.9 101 200.4 105.09 198.05Z" fill="url(#paint10_linear_915_38)"/>
<path d="M84.1499 83.7802L150.87 45.2503L171.77 156.09L105.64 197.73C101.26 200.25 96.9499 198.21 95.9999 193.16L77.9999 97.5103C76.9999 92.4503 79.7699 86.3102 84.1499 83.7802Z" fill="url(#paint11_linear_915_38)"/>
<path d="M217.59 6.71025L150.87 45.2503L171.64 155.4L239.08 120.66C243.45 118.13 246.22 111.99 245.27 106.94L227.27 11.2803C226.28 6.23025 222 4.19025 217.59 6.71025Z" fill="url(#paint12_linear_915_38)"/>
<path d="M244.42 114.13C243.405 116.834 241.528 119.128 239.08 120.66L105.64 197.73C104.684 198.368 103.572 198.734 102.424 198.791C101.276 198.847 100.134 198.591 99.12 198.05L158.91 87.9003L244.42 114.13Z" fill="url(#paint13_linear_915_38)"/>
<path d="M78.7999 90.3103C79.8152 87.6036 81.6959 85.3081 84.1499 83.7802L217.59 6.71025C218.544 6.07257 219.654 5.70599 220.801 5.64963C221.947 5.59327 223.087 5.84925 224.1 6.39025L164.31 116.51L78.7999 90.3103Z" fill="url(#paint14_linear_915_38)"/>
</g>
<defs>
<linearGradient id="paint0_linear_915_38" x1="156.016" y1="64.0633" x2="14.3864" y2="74.7523" gradientUnits="userSpaceOnUse">
<stop stop-color="#7BDAFF"/>
<stop offset="1" stop-color="#59BDEF"/>
</linearGradient>
<linearGradient id="paint1_linear_915_38" x1="-7.00723" y1="231.39" x2="77.9917" y2="106.975" gradientUnits="userSpaceOnUse">
<stop offset="0.77" stop-color="#59BDEF"/>
<stop offset="0.85" stop-color="#55B8EB"/>
<stop offset="0.93" stop-color="#49ABE1"/>
<stop offset="1" stop-color="#3A9BD5"/>
</linearGradient>
<linearGradient id="paint2_linear_915_38" x1="169.147" y1="139.503" x2="75.6972" y2="86.6649" gradientUnits="userSpaceOnUse">
<stop offset="0.77" stop-color="#59BDEF"/>
<stop offset="0.85" stop-color="#55B8EB"/>
<stop offset="0.93" stop-color="#49ABE1"/>
<stop offset="1" stop-color="#3A9BD5"/>
</linearGradient>
<linearGradient id="paint3_linear_915_38" x1="98.4085" y1="244.464" x2="42.4285" y2="115.399" gradientUnits="userSpaceOnUse">
<stop offset="0.77" stop-color="#3A9BD5"/>
<stop offset="0.84" stop-color="#3896D2"/>
<stop offset="0.92" stop-color="#3189C9"/>
<stop offset="1" stop-color="#2573BA"/>
</linearGradient>
<linearGradient id="paint4_linear_915_38" x1="127.719" y1="2.37845" x2="-13.2127" y2="86.6842" gradientUnits="userSpaceOnUse">
<stop stop-color="#7BDAFF"/>
<stop offset="1" stop-color="#59BDEF"/>
</linearGradient>
<linearGradient id="paint5_linear_915_38" x1="199.353" y1="71.9752" x2="47.9535" y2="95.0456" gradientUnits="userSpaceOnUse">
<stop stop-color="#7BDAFF"/>
<stop offset="1" stop-color="#59BDEF"/>
</linearGradient>
<linearGradient id="paint6_linear_915_38" x1="37.702" y1="264.833" x2="118.99" y2="124.345" gradientUnits="userSpaceOnUse">
<stop offset="0.77" stop-color="#59BDEF"/>
<stop offset="0.85" stop-color="#55B8EB"/>
<stop offset="0.93" stop-color="#49ABE1"/>
<stop offset="1" stop-color="#3A9BD5"/>
</linearGradient>
<linearGradient id="paint7_linear_915_38" x1="225.108" y1="139.11" x2="120.273" y2="89.84" gradientUnits="userSpaceOnUse">
<stop offset="0.77" stop-color="#59BDEF"/>
<stop offset="0.85" stop-color="#55B8EB"/>
<stop offset="0.93" stop-color="#49ABE1"/>
<stop offset="1" stop-color="#3A9BD5"/>
</linearGradient>
<linearGradient id="paint8_linear_915_38" x1="152.142" y1="270.467" x2="81.6031" y2="136.107" gradientUnits="userSpaceOnUse">
<stop offset="0.77" stop-color="#3A9BD5"/>
<stop offset="0.84" stop-color="#3896D2"/>
<stop offset="0.92" stop-color="#3189C9"/>
<stop offset="1" stop-color="#2573BA"/>
</linearGradient>
<linearGradient id="paint9_linear_915_38" x1="163.883" y1="7.93986" x2="19.3317" y2="109.973" gradientUnits="userSpaceOnUse">
<stop stop-color="#7BDAFF"/>
<stop offset="1" stop-color="#59BDEF"/>
</linearGradient>
<linearGradient id="paint10_linear_915_38" x1="232.077" y1="63.0382" x2="72.3625" y2="93.7526" gradientUnits="userSpaceOnUse">
<stop stop-color="#7BDAFF"/>
<stop offset="1" stop-color="#59BDEF"/>
</linearGradient>
<linearGradient id="paint11_linear_915_38" x1="68.5333" y1="274.674" x2="149.072" y2="122.092" gradientUnits="userSpaceOnUse">
<stop offset="0.77" stop-color="#59BDEF"/>
<stop offset="0.85" stop-color="#55B8EB"/>
<stop offset="0.93" stop-color="#49ABE1"/>
<stop offset="1" stop-color="#3A9BD5"/>
</linearGradient>
<linearGradient id="paint12_linear_915_38" x1="295.183" y1="139.584" x2="181.89" y2="91.6996" gradientUnits="userSpaceOnUse">
<stop offset="0.77" stop-color="#59BDEF"/>
<stop offset="0.85" stop-color="#55B8EB"/>
<stop offset="0.93" stop-color="#49ABE1"/>
<stop offset="1" stop-color="#3A9BD5"/>
</linearGradient>
<linearGradient id="paint13_linear_915_38" x1="190.191" y1="275.866" x2="109.613" y2="136.198" gradientUnits="userSpaceOnUse">
<stop offset="0.77" stop-color="#3A9BD5"/>
<stop offset="0.84" stop-color="#3896D2"/>
<stop offset="0.92" stop-color="#3189C9"/>
<stop offset="1" stop-color="#2573BA"/>
</linearGradient>
<linearGradient id="paint14_linear_915_38" x1="191.794" y1="-3.50625" x2="42.4938" y2="110.766" gradientUnits="userSpaceOnUse">
<stop stop-color="#7BDAFF"/>
<stop offset="1" stop-color="#59BDEF"/>
</linearGradient>
<clipPath id="clip0_915_38">
<rect width="245.46" height="198.42" fill="white" transform="translate(0 0.510254)"/>
</clipPath>
</defs>
</svg>
