<svg width="147" height="28" viewBox="0 0 147 28" fill="none" xmlns="http://www.w3.org/2000/svg">
<path d="M128.872 14.1197C128.117 13.6275 127.294 13.2712 126.513 12.83C126.004 12.55 125.461 12.2954 125.02 11.9306C124.273 11.3197 124.426 10.1063 125.207 9.58026C126.335 8.83359 128.193 9.24935 128.397 10.7766C128.397 10.8106 128.431 10.836 128.465 10.836H130.162C130.204 10.836 130.238 10.8021 130.221 10.7512C130.206 10.2708 130.088 9.79923 129.874 9.36874C129.66 8.93826 129.356 8.55893 128.982 8.25662C128.292 7.72407 127.445 7.43471 126.573 7.43359C122.093 7.43359 121.677 12.1766 124.095 13.67C124.375 13.8397 126.742 15.0275 127.574 15.5451C128.422 16.0627 128.677 17.013 128.321 17.7512C127.981 18.4384 127.133 18.9136 126.267 18.8542C125.334 18.8033 124.604 18.2942 124.35 17.5051C124.307 17.3609 124.282 17.0809 124.282 16.9706C124.28 16.9532 124.272 16.937 124.26 16.9246C124.247 16.9123 124.231 16.9045 124.214 16.9027H122.373C122.347 16.9027 122.313 16.9366 122.313 16.9706C122.313 18.2942 122.644 19.0324 123.544 19.7027C124.392 20.339 125.325 20.6106 126.276 20.6106C128.796 20.6106 130.094 19.1851 130.348 17.7172C130.586 16.2748 130.162 14.9766 128.872 14.1197ZM48.9447 7.67965H47.2308C47.2181 7.68121 47.2061 7.6859 47.1957 7.69331C47.1853 7.70072 47.177 7.71061 47.1714 7.72208L45.6611 12.6942C45.6611 12.7122 45.654 12.7295 45.6412 12.7422C45.6285 12.7549 45.6112 12.7621 45.5932 12.7621C45.5752 12.7621 45.558 12.7549 45.5452 12.7422C45.5325 12.7295 45.5253 12.7122 45.5253 12.6942L44.015 7.72208C44.0066 7.68814 43.9811 7.67965 43.9472 7.67965H41.1387C41.1047 7.67965 41.0708 7.71359 41.0708 7.73905V20.4324C41.0708 20.4663 41.1047 20.5003 41.1387 20.5003H42.9799C43.0138 20.5003 43.0478 20.4663 43.0478 20.4324V10.7766C43.0478 10.7003 43.1581 10.6918 43.175 10.7597L44.7023 15.7657L44.8126 16.1051C44.8126 16.1475 44.8381 16.156 44.872 16.156H46.289C46.3229 16.156 46.3399 16.1306 46.3484 16.1136L46.4587 15.7572L47.986 10.7512C48.0029 10.6833 48.1132 10.7003 48.1132 10.7766V20.4239C48.1132 20.4578 48.1472 20.4918 48.1811 20.4918H50.0223C50.0563 20.4918 50.0902 20.4578 50.0902 20.4239V7.73905C50.0902 7.71359 50.0563 7.67965 50.0223 7.67965H48.9447ZM100.685 7.67965C100.671 7.67975 100.657 7.68377 100.645 7.69126C100.633 7.69875 100.624 7.70942 100.617 7.72208L99.1072 12.6942C99.1072 12.7122 99.1 12.7295 99.0873 12.7422C99.0746 12.7549 99.0573 12.7621 99.0393 12.7621C99.0213 12.7621 99.004 12.7549 98.9913 12.7422C98.9786 12.7295 98.9714 12.7122 98.9714 12.6942L97.4611 7.72208C97.4611 7.68814 97.4356 7.67965 97.4017 7.67965H94.6017C94.5678 7.67965 94.5338 7.71359 94.5338 7.73905V20.4324C94.5338 20.4663 94.5678 20.5003 94.6017 20.5003H96.4429C96.4684 20.5003 96.5023 20.4663 96.5023 20.4324V10.7766C96.5023 10.7003 96.6126 10.6918 96.6381 10.7597L98.1653 15.7657L98.2672 16.1051C98.2841 16.1475 98.3011 16.156 98.335 16.156H99.7435C99.7575 16.1551 99.7709 16.1507 99.7828 16.1433C99.7946 16.1359 99.8045 16.1257 99.8114 16.1136L99.9217 15.7572L101.449 10.7512C101.466 10.6833 101.576 10.7003 101.576 10.7766V20.4239C101.576 20.4578 101.61 20.4918 101.644 20.4918H103.485C103.519 20.4918 103.553 20.4578 103.553 20.4239V7.73905C103.553 7.71359 103.519 7.67965 103.485 7.67965H100.685ZM76.9363 7.67965H68.2393C68.2138 7.67965 68.1799 7.71359 68.1799 7.73905V9.3342C68.1799 9.36814 68.2138 9.40208 68.2393 9.40208H71.6078V20.4324C71.6078 20.4748 71.6417 20.5087 71.6672 20.5087H73.5084C73.5423 20.5087 73.5763 20.4748 73.5763 20.4409V9.39359H76.9363C76.9702 9.39359 77.0041 9.35965 77.0041 9.32571V7.73905C77.0041 7.71359 76.9872 7.67965 76.9363 7.67965ZM87.7969 20.5003H89.4769C89.5193 20.5003 89.5532 20.4494 89.5363 20.4154L86.0744 7.67965C86.0744 7.64571 86.049 7.62874 86.015 7.62874H83.5969C83.5833 7.63109 83.5706 7.63705 83.5602 7.64602C83.5497 7.65498 83.5419 7.6666 83.5375 7.67965L80.0757 20.4069C80.0587 20.4494 80.0926 20.4918 80.135 20.4918H81.815C81.849 20.4918 81.866 20.4748 81.8829 20.4494L82.8841 16.75C82.8926 16.716 82.9181 16.7075 82.952 16.7075H86.6514C86.6853 16.7075 86.7108 16.7245 86.7193 16.75L87.7205 20.4494C87.7375 20.4748 87.7714 20.5003 87.7884 20.5003H87.7969ZM83.4017 14.8918L84.7423 9.92814C84.7423 9.91014 84.7495 9.89287 84.7622 9.88014C84.7749 9.86741 84.7922 9.86026 84.8102 9.86026C84.8282 9.86026 84.8455 9.86741 84.8582 9.88014C84.8709 9.89287 84.8781 9.91014 84.8781 9.92814L86.2187 14.8918C86.2356 14.9342 86.2017 14.9766 86.1593 14.9766H83.4696C83.4187 14.9766 83.3847 14.9342 83.4017 14.8918ZM116.365 20.5003H118.045C118.088 20.5003 118.122 20.4494 118.113 20.4154L114.651 7.67117C114.634 7.63723 114.617 7.62026 114.584 7.62026H112.182C112.167 7.62108 112.153 7.62636 112.141 7.63542C112.129 7.64448 112.119 7.65692 112.114 7.67117L108.653 20.3984C108.644 20.4409 108.678 20.4833 108.721 20.4833H110.392C110.426 20.4833 110.451 20.4663 110.46 20.4409L111.461 16.7415C111.478 16.7075 111.495 16.699 111.529 16.699H115.237C115.262 16.699 115.288 16.716 115.296 16.7415L116.306 20.4409C116.306 20.4663 116.34 20.4918 116.365 20.4918V20.5003ZM111.97 14.8918L113.319 9.92814C113.324 9.91515 113.333 9.90394 113.344 9.89603C113.356 9.88812 113.369 9.88388 113.383 9.88388C113.397 9.88388 113.41 9.88812 113.422 9.89603C113.433 9.90394 113.442 9.91515 113.447 9.92814L114.796 14.8918C114.796 14.9342 114.77 14.9766 114.728 14.9766H112.038C111.996 14.9766 111.953 14.9342 111.97 14.8918ZM57.5653 18.6166V14.6797C57.5653 14.6457 57.5908 14.6118 57.6247 14.6118H62.529C62.5629 14.6118 62.5969 14.5778 62.5969 14.5524V12.9657C62.595 12.9483 62.5873 12.9321 62.5749 12.9198C62.5626 12.9074 62.5464 12.8997 62.529 12.8978H57.6332C57.5993 12.8978 57.5738 12.8639 57.5738 12.83V9.46996C57.5738 9.43602 57.5993 9.40208 57.6332 9.40208H63.2163C63.2502 9.40208 63.2841 9.36814 63.2841 9.3342V7.75602C63.2823 7.73865 63.2745 7.72243 63.2622 7.71008C63.2498 7.69773 63.2336 7.68998 63.2163 7.68814H55.6647C55.6474 7.68998 55.6312 7.69773 55.6188 7.71008C55.6065 7.72243 55.5987 7.73865 55.5969 7.75602V20.4324C55.5969 20.4663 55.6308 20.5003 55.6647 20.5003H63.4453C63.4793 20.5003 63.5132 20.4663 63.5132 20.4324V18.7524C63.5114 18.735 63.5036 18.7188 63.4913 18.7064C63.4789 18.6941 63.4627 18.6863 63.4453 18.6845H57.6247C57.5908 18.676 57.5738 18.6506 57.5738 18.6081L57.5653 18.6166ZM145.689 20.39L139.325 13.8227C139.316 13.8106 139.31 13.7957 139.31 13.7803C139.31 13.7648 139.316 13.7499 139.325 13.7378L145.053 7.79844C145.067 7.79169 145.079 7.77941 145.084 7.76429C145.09 7.74917 145.089 7.73246 145.082 7.71784C145.076 7.70321 145.063 7.69186 145.048 7.68629C145.033 7.68072 145.016 7.68139 145.002 7.68814H142.66C142.634 7.68814 142.626 7.69662 142.617 7.71359L137.756 12.7451C137.746 12.7528 137.735 12.7578 137.723 12.7597C137.712 12.7616 137.699 12.7604 137.688 12.7561C137.677 12.7518 137.667 12.7445 137.66 12.7352C137.652 12.7258 137.647 12.7146 137.645 12.7027V7.75602C137.644 7.73865 137.636 7.72243 137.623 7.71008C137.611 7.69773 137.595 7.68998 137.577 7.68814H135.736C135.719 7.68998 135.703 7.69773 135.69 7.71008C135.678 7.72243 135.67 7.73865 135.668 7.75602V20.4409C135.668 20.4748 135.702 20.5087 135.736 20.5087H137.577C137.611 20.5087 137.645 20.4748 137.645 20.4409V14.8578C137.645 14.7984 137.722 14.773 137.756 14.8154L143.271 20.4833C143.28 20.4945 143.291 20.5033 143.305 20.5087H145.655C145.697 20.5003 145.74 20.4239 145.689 20.39Z" fill="#161616"/>
<path d="M28.4963 0.847656L17.3472 9.09493L19.426 4.23311L28.4963 0.847656Z" fill="#E17726" stroke="#E17726" stroke-width="0.30303" stroke-linecap="round" stroke-linejoin="round"/>
<path d="M2.7873 0.847656L13.8346 9.16281L11.8576 4.2416L2.7873 0.847656ZM24.4831 19.964L21.5134 24.4949L27.8685 26.2428L29.6843 20.0658L24.4831 19.964ZM1.60791 20.0658L3.41518 26.2428L9.75336 24.4949L6.80064 19.964L1.60791 20.0658Z" fill="#E27625" stroke="#E27625" stroke-width="0.30303" stroke-linecap="round" stroke-linejoin="round"/>
<path d="M9.41377 12.3106L7.64893 14.9748L13.9277 15.2633L13.7241 8.50086L9.41377 12.319V12.3106ZM21.8695 12.319L17.4914 8.41602L17.3471 15.2633L23.6259 14.9748L21.8695 12.319ZM9.75317 24.4948L13.5629 22.6621L10.2877 20.1166L9.75317 24.4948ZM17.7289 22.6536L21.5132 24.4948L21.0041 20.1081L17.7289 22.6536Z" fill="#E27625" stroke="#E27625" stroke-width="0.30303" stroke-linecap="round" stroke-linejoin="round"/>
<path d="M21.5134 24.4948L17.7292 22.6621L18.0346 25.1227L18.0007 26.1664L21.5134 24.4948ZM9.75342 24.4948L13.2831 26.1664L13.2577 25.1227L13.5631 22.6621L9.75342 24.4948Z" fill="#D5BFB2" stroke="#D5BFB2" stroke-width="0.30303" stroke-linecap="round" stroke-linejoin="round"/>
<path d="M13.3425 18.4801L10.2031 17.5638L12.4262 16.5456L13.351 18.4801H13.3425ZM17.9328 18.4801L18.8662 16.5371L21.0977 17.5553L17.9328 18.4886V18.4801Z" fill="#233447" stroke="#233447" stroke-width="0.30303" stroke-linecap="round" stroke-linejoin="round"/>
<path d="M9.75351 24.4966L10.305 19.9657L6.80078 20.0675L9.75351 24.4966ZM20.979 19.9657L21.5135 24.4966L24.4832 20.0675L20.979 19.9657ZM23.6347 14.9766L17.3559 15.265L17.9329 18.4893L18.8662 16.5378L21.0978 17.556L23.6347 14.9766ZM10.2032 17.5644L12.4262 16.5463L13.3511 18.4808L13.9365 15.2566L7.65775 14.9766L10.2032 17.5644Z" fill="#CC6228" stroke="#CC6228" stroke-width="0.30303" stroke-linecap="round" stroke-linejoin="round"/>
<path d="M7.65771 14.9766L10.288 20.1099L10.2032 17.5644L7.65771 14.9766ZM21.0977 17.5644L20.9959 20.1099L23.6262 14.9766L21.0977 17.5644ZM13.9365 15.265L13.3426 18.4893L14.0892 22.2905L14.2589 17.276L13.9365 15.265ZM17.3474 15.265L17.042 17.2675L17.1947 22.2905L17.9329 18.4808L17.3474 15.2566V15.265Z" fill="#E27525" stroke="#E27525" stroke-width="0.30303" stroke-linecap="round" stroke-linejoin="round"/>
<path d="M17.9325 18.4808L17.1943 22.2905L17.7289 22.6638L20.9955 20.1184L21.0974 17.5645L17.9325 18.4808ZM10.2028 17.5645L10.2877 20.1099L13.5628 22.6554L14.0889 22.2905L13.3507 18.4808L10.1943 17.5645H10.2028Z" fill="#F5841F" stroke="#F5841F" stroke-width="0.30303" stroke-linecap="round" stroke-linejoin="round"/>
<path d="M18.0092 26.1676L18.0346 25.124L17.7461 24.8864H13.5377L13.2577 25.124L13.2831 26.1676L9.75342 24.4961L10.9922 25.5143L13.4952 27.2367H17.7801L20.2916 25.5058L21.5134 24.4961L18.0007 26.1676H18.0092Z" fill="#C0AC9D" stroke="#C0AC9D" stroke-width="0.30303" stroke-linecap="round" stroke-linejoin="round"/>
<path d="M17.7293 22.6539L17.1948 22.2891H14.0893L13.5633 22.6624L13.2578 25.123L13.5378 24.8854H17.7463L18.0348 25.123L17.7293 22.6624V22.6539Z" fill="#161616" stroke="#161616" stroke-width="0.30303" stroke-linecap="round" stroke-linejoin="round"/>
<path d="M28.9716 9.62947L29.905 5.09008L28.4965 0.847656L17.7207 8.82341L21.8698 12.3107L27.7244 14.0161L29.0141 12.5143L28.4541 12.1071L29.345 11.2925L28.6662 10.7664L29.5571 10.0877L28.9631 9.62947H28.9716ZM1.37891 5.0816L2.32921 9.62947L1.7183 10.0792L2.62618 10.758L1.94739 11.2925L2.82982 12.1071L2.26982 12.5143L3.55951 14.0161L9.41406 12.3192L13.5631 8.81493L2.78739 0.847656L1.37891 5.0816Z" fill="#763E1A" stroke="#763E1A" stroke-width="0.30303" stroke-linecap="round" stroke-linejoin="round"/>
<path d="M27.7243 14.0174L21.8697 12.3204L23.6346 14.9762L21.0043 20.1095L24.4831 20.0671H29.6843L27.7243 14.0174ZM9.41397 12.312L3.55943 14.0174L1.60791 20.0671H6.80912L10.2879 20.1095L7.65761 14.9762L9.42245 12.312H9.41397ZM17.3473 15.2647L17.7291 8.81619L19.4261 4.23438H11.8576L13.5546 8.81619L13.9364 15.2647L14.0806 17.2841V22.2901H17.1946L17.2115 17.2841L17.3473 15.2647Z" fill="#F5841F" stroke="#F5841F" stroke-width="0.30303" stroke-linecap="round" stroke-linejoin="round"/>
</svg>
