<svg width="199" height="52" viewBox="0 0 199 52" fill="none" xmlns="http://www.w3.org/2000/svg">
<path d="M97.3717 17.382V30H101.116V26.598H103.096C106.354 26.598 108.226 24.87 108.226 21.864C108.226 19.002 106.354 17.382 103.096 17.382H97.3717ZM101.116 20.262H102.916C104.032 20.262 104.68 20.874 104.68 21.972C104.68 23.106 104.032 23.718 102.916 23.718H101.116V20.262ZM119.973 20.262V17.382H109.659V30H120.153V27.12H113.403V25.122H119.361V22.242H113.403V20.262H119.973ZM130.442 27.984L131.18 30H135.176L129.974 17.382H126.122L120.74 30H124.592L125.348 27.984H130.442ZM129.452 25.248H126.392L127.94 21.126L129.452 25.248ZM144.196 30H148.678L143.818 22.512L148.39 17.382H144.07L139.84 22.242V17.382H136.096V30H139.84V26.976L141.262 25.392L144.196 30ZM149.79 17.382V30H155.19C159.348 30 162.102 27.48 162.102 23.682C162.102 19.884 159.402 17.382 155.316 17.382H149.79ZM153.534 20.334H155.244C157.044 20.334 158.286 21.684 158.286 23.718C158.286 25.734 157.134 27.066 155.424 27.066H153.534V20.334ZM173.815 20.262V17.382H163.501V30H173.995V27.12H167.245V25.122H173.203V22.242H167.245V20.262H173.815ZM185.58 20.262V17.382H175.788V30H179.532V25.662H185.148V22.782H179.532V20.262H185.58ZM190.676 30V17.382H186.932V30H190.676ZM98.5057 35.4H99.4237V47.172H106.678V48H98.5057V35.4ZM111.933 38.532C113.097 38.532 113.991 38.832 114.615 39.432C115.239 40.02 115.551 40.89 115.551 42.042V48H114.687V46.326C114.387 46.878 113.949 47.31 113.373 47.622C112.797 47.922 112.107 48.072 111.303 48.072C110.259 48.072 109.431 47.826 108.819 47.334C108.219 46.842 107.919 46.194 107.919 45.39C107.919 44.61 108.195 43.98 108.747 43.5C109.311 43.008 110.205 42.762 111.429 42.762H114.651V42.006C114.651 41.13 114.411 40.464 113.931 40.008C113.463 39.552 112.773 39.324 111.861 39.324C111.237 39.324 110.637 39.432 110.061 39.648C109.497 39.864 109.017 40.152 108.621 40.512L108.171 39.864C108.639 39.444 109.203 39.12 109.863 38.892C110.523 38.652 111.213 38.532 111.933 38.532ZM111.429 47.334C112.209 47.334 112.869 47.154 113.409 46.794C113.961 46.434 114.375 45.912 114.651 45.228V43.464H111.447C110.523 43.464 109.851 43.632 109.431 43.968C109.023 44.304 108.819 44.766 108.819 45.354C108.819 45.966 109.047 46.452 109.503 46.812C109.959 47.16 110.601 47.334 111.429 47.334ZM127.485 38.604V48H126.621V45.984C126.309 46.644 125.847 47.16 125.235 47.532C124.623 47.892 123.903 48.072 123.075 48.072C121.851 48.072 120.891 47.73 120.195 47.046C119.499 46.362 119.151 45.378 119.151 44.094V38.604H120.051V44.022C120.051 45.078 120.321 45.882 120.861 46.434C121.401 46.986 122.163 47.262 123.147 47.262C124.203 47.262 125.037 46.932 125.649 46.272C126.273 45.612 126.585 44.724 126.585 43.608V38.604H127.485ZM135.89 38.532C137.066 38.532 137.996 38.874 138.68 39.558C139.364 40.242 139.706 41.226 139.706 42.51V48H138.806V42.582C138.806 41.526 138.536 40.722 137.996 40.17C137.468 39.618 136.724 39.342 135.764 39.342C134.66 39.342 133.79 39.672 133.154 40.332C132.518 40.992 132.2 41.88 132.2 42.996V48H131.3V38.604H132.164V40.638C132.488 39.978 132.968 39.462 133.604 39.09C134.252 38.718 135.014 38.532 135.89 38.532ZM147.155 48.072C146.243 48.072 145.427 47.868 144.707 47.46C143.987 47.052 143.423 46.488 143.015 45.768C142.607 45.036 142.403 44.214 142.403 43.302C142.403 42.378 142.607 41.556 143.015 40.836C143.423 40.104 143.987 39.54 144.707 39.144C145.427 38.736 146.243 38.532 147.155 38.532C147.911 38.532 148.595 38.682 149.207 38.982C149.831 39.27 150.335 39.696 150.719 40.26L150.053 40.746C149.717 40.278 149.297 39.93 148.793 39.702C148.301 39.462 147.755 39.342 147.155 39.342C146.423 39.342 145.763 39.51 145.175 39.846C144.599 40.17 144.143 40.632 143.807 41.232C143.483 41.832 143.321 42.522 143.321 43.302C143.321 44.082 143.483 44.772 143.807 45.372C144.143 45.972 144.599 46.44 145.175 46.776C145.763 47.1 146.423 47.262 147.155 47.262C147.755 47.262 148.301 47.148 148.793 46.92C149.297 46.68 149.717 46.326 150.053 45.858L150.719 46.344C150.335 46.908 149.831 47.34 149.207 47.64C148.595 47.928 147.911 48.072 147.155 48.072ZM157.845 38.532C159.021 38.532 159.951 38.874 160.635 39.558C161.319 40.242 161.661 41.226 161.661 42.51V48H160.761V42.582C160.761 41.526 160.491 40.722 159.951 40.17C159.423 39.618 158.679 39.342 157.719 39.342C156.615 39.342 155.745 39.672 155.109 40.332C154.473 40.992 154.155 41.88 154.155 42.996V48H153.255V34.644H154.155V40.566C154.479 39.918 154.959 39.42 155.595 39.072C156.231 38.712 156.981 38.532 157.845 38.532ZM170.082 38.532C170.958 38.532 171.75 38.736 172.458 39.144C173.166 39.552 173.718 40.116 174.114 40.836C174.522 41.556 174.726 42.378 174.726 43.302C174.726 44.226 174.522 45.054 174.114 45.786C173.718 46.506 173.166 47.07 172.458 47.478C171.75 47.874 170.958 48.072 170.082 48.072C169.254 48.072 168.504 47.88 167.832 47.496C167.16 47.1 166.638 46.554 166.266 45.858V51.492H165.366V38.604H166.23V40.818C166.602 40.098 167.124 39.54 167.796 39.144C168.48 38.736 169.242 38.532 170.082 38.532ZM170.028 47.262C170.748 47.262 171.396 47.094 171.972 46.758C172.548 46.422 172.998 45.954 173.322 45.354C173.658 44.754 173.826 44.07 173.826 43.302C173.826 42.534 173.658 41.85 173.322 41.25C172.998 40.65 172.548 40.182 171.972 39.846C171.396 39.51 170.748 39.342 170.028 39.342C169.308 39.342 168.66 39.51 168.084 39.846C167.52 40.182 167.07 40.65 166.734 41.25C166.41 41.85 166.248 42.534 166.248 43.302C166.248 44.07 166.41 44.754 166.734 45.354C167.07 45.954 167.52 46.422 168.084 46.758C168.66 47.094 169.308 47.262 170.028 47.262ZM180.645 38.532C181.809 38.532 182.703 38.832 183.327 39.432C183.951 40.02 184.263 40.89 184.263 42.042V48H183.399V46.326C183.099 46.878 182.661 47.31 182.085 47.622C181.509 47.922 180.819 48.072 180.015 48.072C178.971 48.072 178.143 47.826 177.531 47.334C176.931 46.842 176.631 46.194 176.631 45.39C176.631 44.61 176.907 43.98 177.459 43.5C178.023 43.008 178.917 42.762 180.141 42.762H183.363V42.006C183.363 41.13 183.123 40.464 182.643 40.008C182.175 39.552 181.485 39.324 180.573 39.324C179.949 39.324 179.349 39.432 178.773 39.648C178.209 39.864 177.729 40.152 177.333 40.512L176.883 39.864C177.351 39.444 177.915 39.12 178.575 38.892C179.235 38.652 179.925 38.532 180.645 38.532ZM180.141 47.334C180.921 47.334 181.581 47.154 182.121 46.794C182.673 46.434 183.087 45.912 183.363 45.228V43.464H180.159C179.235 43.464 178.563 43.632 178.143 43.968C177.735 44.304 177.531 44.766 177.531 45.354C177.531 45.966 177.759 46.452 178.215 46.812C178.671 47.16 179.313 47.334 180.141 47.334ZM196.341 34.644V48H195.459V45.786C195.087 46.518 194.565 47.082 193.893 47.478C193.221 47.874 192.459 48.072 191.607 48.072C190.731 48.072 189.939 47.868 189.231 47.46C188.523 47.052 187.965 46.488 187.557 45.768C187.161 45.048 186.963 44.226 186.963 43.302C186.963 42.378 187.161 41.556 187.557 40.836C187.965 40.104 188.523 39.54 189.231 39.144C189.939 38.736 190.731 38.532 191.607 38.532C192.447 38.532 193.197 38.73 193.857 39.126C194.529 39.522 195.057 40.074 195.441 40.782V34.644H196.341ZM191.661 47.262C192.381 47.262 193.023 47.094 193.587 46.758C194.163 46.422 194.613 45.954 194.937 45.354C195.273 44.754 195.441 44.07 195.441 43.302C195.441 42.534 195.273 41.85 194.937 41.25C194.613 40.65 194.163 40.182 193.587 39.846C193.023 39.51 192.381 39.342 191.661 39.342C190.941 39.342 190.293 39.51 189.717 39.846C189.153 40.182 188.703 40.65 188.367 41.25C188.043 41.85 187.881 42.534 187.881 43.302C187.881 44.07 188.043 44.754 188.367 45.354C188.703 45.954 189.153 46.422 189.717 46.758C190.293 47.094 190.941 47.262 191.661 47.262Z" fill="white"/>
<path d="M23.1156 48H55.4775L38.704 36.5065L23.1156 48Z" fill="white"/>
<path d="M25.0122 27.1565L0 16.7942L17.189 46.5118L25.0122 27.1565Z" fill="white"/>
<path d="M52.9878 27.1565L60.811 46.5118L78 16.7942L52.9878 27.1565Z" fill="white"/>
<path d="M28.687 18.8491L18.9661 7.2063V22.5112L25.9303 24.8344L28.687 18.8491Z" fill="white"/>
<path d="M58.9909 22.5112V7.2063L49.2711 18.8491L52.0267 24.8344L58.9909 22.5112Z" fill="white"/>
<path d="M38.8816 33.3505L58.9736 48L38.8816 0L18.9661 48L38.8816 33.3505Z" fill="white"/>
</svg>
