<svg width="111" height="28" viewBox="0 0 111 28" fill="none" xmlns="http://www.w3.org/2000/svg">
<path d="M36.3667 23.5231V9.54187H38.4469L38.645 10.6704H38.7441C39.3384 9.89741 40.3484 9.34375 41.7547 9.34375C44.3284 9.34375 46.3891 11.4434 46.3891 14.5514C46.3891 17.6593 44.3302 19.7589 41.7547 19.7589C40.3679 19.7589 39.3985 19.184 38.8838 18.5313H38.7847V23.5213H36.3685L36.3667 23.5231ZM43.9711 14.5531C43.9711 12.7312 42.8019 11.5832 41.3761 11.5832C39.9504 11.5832 38.7812 12.7312 38.7812 14.5531C38.7812 16.3751 39.9504 17.5231 41.3761 17.5231C42.8019 17.5231 43.9711 16.3751 43.9711 14.5531Z" fill="black"/>
<path d="M47.6157 14.5533C47.6157 11.5232 49.7932 9.3457 52.7048 9.3457C55.6163 9.3457 57.7938 11.5232 57.7938 14.5533C57.7938 17.5834 55.6163 19.7609 52.7048 19.7609C49.7932 19.7609 47.6157 17.5622 47.6157 14.5533ZM55.3581 14.5533C55.3581 12.7703 54.1694 11.5834 52.7048 11.5834C51.2401 11.5834 50.032 12.7721 50.032 14.5533C50.032 16.3346 51.2401 17.5038 52.7048 17.5038C54.1694 17.5038 55.3581 16.3363 55.3581 14.5533Z" fill="black"/>
<path d="M59.5435 19.5621V5.70117H61.9597V19.5638H59.5435V19.5621Z" fill="black"/>
<path d="M70.9304 9.54102H73.5041L69.1473 21.7197C68.7122 22.9278 68.1178 23.5221 66.5524 23.5221H64.2157V21.2845H66.1969C66.5542 21.2845 66.7505 21.1059 66.8708 20.8087L67.1078 20.156L63.0288 9.54102H65.6025L68.1975 16.4927H68.5937L70.9304 9.54102Z" fill="black"/>
<path d="M73.9661 20.0578H76.4213C76.5204 20.7106 77.1731 21.6021 78.7191 21.6021C80.1642 21.6021 81.1159 20.6911 81.1159 19.3043V17.8981H81.0168C80.4826 18.4729 79.4921 18.9877 78.2238 18.9877C75.6501 18.9877 73.6689 17.0065 73.6689 14.1551C73.6689 11.3037 75.6501 9.34375 78.2238 9.34375C79.5504 9.34375 80.5216 9.87795 81.1353 10.6315H81.2344L81.4325 9.54187H83.5322V19.3043C83.5322 21.9576 81.7491 23.7212 78.7191 23.7212C75.3335 23.7212 74.0263 21.503 73.9661 20.0578ZM81.1159 14.1569C81.1159 12.5932 80.0068 11.5036 78.6006 11.5036C77.1943 11.5036 76.1047 12.5932 76.1047 14.1569C76.1047 15.7206 77.2138 16.8297 78.6006 16.8297C79.9874 16.8297 81.1159 15.74 81.1159 14.1569Z" fill="black"/>
<path d="M85.2114 14.5533C85.2114 11.5232 87.3889 9.3457 90.3005 9.3457C93.212 9.3457 95.3895 11.5232 95.3895 14.5533C95.3895 17.5834 93.212 19.7609 90.3005 19.7609C87.3889 19.7609 85.2114 17.5622 85.2114 14.5533ZM92.9538 14.5533C92.9538 12.7703 91.7651 11.5834 90.3005 11.5834C88.8358 11.5834 87.6277 12.7721 87.6277 14.5533C87.6277 16.3346 88.8358 17.5038 90.3005 17.5038C91.7651 17.5038 92.9538 16.3363 92.9538 14.5533Z" fill="black"/>
<path d="M97.0716 19.5626V9.54187H99.15L99.3481 10.4918H99.4472C99.8434 10.0372 100.834 9.34375 102.338 9.34375C104.635 9.34375 106.298 11.0065 106.298 13.5413V19.5608H103.882V13.858C103.882 12.5702 102.971 11.6398 101.724 11.6398C100.477 11.6398 99.4861 12.6109 99.4861 13.858V19.5608H97.0698L97.0716 19.5626Z" fill="black"/>
<path d="M22.3026 18.3941L28.2424 14.9643C28.5573 14.7821 28.7519 14.4442 28.7519 14.0816V7.22193C28.7519 6.85931 28.5573 6.52146 28.2424 6.33926L22.3026 2.90942C21.9877 2.72723 21.5968 2.729 21.2837 2.90942L15.3438 6.33926C15.029 6.52146 14.8344 6.85931 14.8344 7.22193V19.4802L10.6687 21.8841L6.50301 19.4802V14.6707L10.6687 12.2668L13.4158 13.8534V10.627L11.1781 9.33396C11.0242 9.24552 10.8474 9.19776 10.6687 9.19776C10.49 9.19776 10.3132 9.24552 10.1593 9.33396L4.2194 12.7638C3.90454 12.946 3.70996 13.2839 3.70996 13.6465V20.5062C3.70996 20.8688 3.90454 21.2066 4.2194 21.3888L10.1593 24.8187C10.4741 24.9991 10.8633 24.9991 11.1781 24.8187L17.118 21.3888C17.4329 21.2066 17.6274 20.8688 17.6274 20.5062V8.24611L17.7017 8.20365L21.7914 5.84221L25.9571 8.24611V13.0557L21.7914 15.4596L19.0478 13.8764V17.1029L21.2819 18.3924C21.5968 18.5728 21.9877 18.5728 22.3008 18.3924L22.3026 18.3941Z" fill="url(#paint0_linear_1902_276)"/>
<defs>
<linearGradient id="paint0_linear_1902_276" x1="3.62859" y1="21.1783" x2="27.6764" y2="7.22016" gradientUnits="userSpaceOnUse">
<stop stop-color="#A726C1"/>
<stop offset="0.88" stop-color="#803BDF"/>
<stop offset="1" stop-color="#7B3FE4"/>
</linearGradient>
</defs>
</svg>
