<svg width="170" height="20" viewBox="0 0 170 20" fill="none" xmlns="http://www.w3.org/2000/svg">
<path d="M6.68278 3.92727C11.966 -1.24398 20.5332 -1.24398 25.8164 3.92727L26.4525 4.54939C26.5152 4.61016 26.5651 4.68292 26.5992 4.76333C26.6332 4.84375 26.6508 4.93019 26.6508 5.01752C26.6508 5.10484 26.6332 5.19128 26.5992 5.2717C26.5651 5.35211 26.5152 5.42487 26.4525 5.48564L24.2773 7.61452C24.2131 7.67669 24.1273 7.71145 24.038 7.71145C23.9486 7.71145 23.8628 7.67669 23.7987 7.61452L22.9237 6.75789C19.2382 3.15114 13.2619 3.15114 9.57553 6.75789L8.6384 7.67489C8.57425 7.73706 8.48842 7.77183 8.39909 7.77183C8.30976 7.77183 8.22393 7.73706 8.15978 7.67489L5.98453 5.54602C5.92182 5.48524 5.87195 5.41249 5.8379 5.33207C5.80385 5.25166 5.7863 5.16522 5.7863 5.07789C5.7863 4.99056 5.80385 4.90412 5.8379 4.82371C5.87195 4.74329 5.92182 4.67054 5.98453 4.60977L6.68278 3.92727ZM30.3157 8.32939L32.2512 10.2246C32.3139 10.2854 32.3637 10.3582 32.3978 10.4386C32.4318 10.519 32.4494 10.6054 32.4494 10.6928C32.4494 10.7801 32.4318 10.8665 32.3978 10.9469C32.3637 11.0274 32.3139 11.1001 32.2512 11.1609L23.5222 19.7044C23.394 19.8289 23.2223 19.8986 23.0435 19.8986C22.8648 19.8986 22.6931 19.8289 22.5649 19.7044L16.3699 13.6406C16.3379 13.6093 16.2948 13.5918 16.25 13.5918C16.2052 13.5918 16.1622 13.6093 16.1302 13.6406L9.93515 19.7044C9.80696 19.8289 9.63526 19.8986 9.45653 19.8986C9.27779 19.8986 9.1061 19.8289 8.9779 19.7044L0.248028 11.1609C0.185316 11.1001 0.135453 11.0274 0.101402 10.9469C0.0673508 10.8665 0.0498047 10.7801 0.0498047 10.6928C0.0498047 10.6054 0.0673508 10.519 0.101402 10.4386C0.135453 10.3582 0.185316 10.2854 0.248028 10.2246L2.1844 8.32939C2.31256 8.20511 2.48407 8.1356 2.66259 8.1356C2.84111 8.1356 3.01262 8.20511 3.14078 8.32939L9.33578 14.3931C9.36782 14.4245 9.41085 14.442 9.45565 14.442C9.50046 14.442 9.54349 14.4245 9.57553 14.3931L15.7705 8.32939C15.8987 8.20485 16.0704 8.13518 16.2492 8.13518C16.4279 8.13518 16.5996 8.20485 16.7278 8.32939L22.9237 14.3931C22.9557 14.4245 22.9987 14.442 23.0435 14.442C23.0883 14.442 23.1314 14.4245 23.1634 14.3931L29.3584 8.32939C29.4866 8.20485 29.6583 8.13518 29.837 8.13518C30.0158 8.13518 30.1875 8.20485 30.3157 8.32939ZM44.0925 16.9481L46.4314 7.59439C46.5697 7.07814 46.6887 6.52339 46.847 5.65189C46.966 6.52339 47.1052 7.07814 47.204 7.59439L49.2253 16.9481H53.4078L56.9349 3.07502H53.7237L51.782 11.5975C51.5892 12.4084 51.4374 13.2284 51.327 14.0545C51.1678 13.1235 51.0094 12.4296 50.8309 11.6168L48.9479 3.07502H44.7462L42.7048 11.6168C42.522 12.4244 42.3635 13.2373 42.2297 14.0545C42.0955 13.2373 41.9368 12.4244 41.7537 11.6168L39.8514 3.07502H36.5019L40.0098 16.9481H44.0925ZM59.3289 17.3051C60.9144 17.3051 61.925 16.6506 62.4404 15.6995C62.3809 15.997 62.3617 16.2945 62.3617 16.592V16.9481H65.0173V11.2204C65.0173 8.48601 63.7687 6.90052 60.7167 6.90052C58.0803 6.90052 56.3565 8.36702 56.1982 10.3883H59.1119C59.2099 9.49577 59.8443 8.96202 60.8155 8.96202C61.7273 8.96202 62.2225 9.47651 62.2225 10.0715C62.2225 10.5073 61.9653 10.7645 61.1918 10.8634L59.8049 11.0226C57.7434 11.2799 55.9803 12.0333 55.9803 14.2129C55.9803 16.1948 57.6253 17.3051 59.3289 17.3051ZM60.2214 15.2638C59.4479 15.2638 58.8739 14.828 58.8739 14.0738C58.8739 13.3414 59.5275 12.9844 60.5189 12.8059L61.1927 12.6869C61.7667 12.5679 62.0843 12.469 62.282 12.2905V13.2023C62.282 14.4316 61.3895 15.2638 60.2205 15.2638H60.2214ZM66.398 3.07502V16.9481H69.2715V3.07502H66.398ZM70.934 3.07502V16.9481H73.8075V3.07502H70.934ZM80.0804 17.3051C82.8157 17.3051 84.5788 15.759 84.7774 13.7378H81.8838C81.7447 14.6294 80.9913 15.1246 80.0804 15.1246C78.8519 15.1246 77.9594 14.1341 77.9402 12.7665H84.8369V12.2118C84.8369 9.00052 83.0729 6.90052 80.0209 6.90052C77.0879 6.90052 75.0264 8.96114 75.0264 12.0726C75.0264 15.4414 77.1474 17.3051 80.0804 17.3051ZM77.9192 10.8835C78.039 9.77402 78.8519 8.96114 80.0017 8.96114C81.1112 8.96114 81.8829 9.73377 81.9039 10.8835H77.92H77.9192ZM90.919 17.1459C91.5534 17.1459 92.1677 17.047 92.445 16.9683V14.7869C92.2159 14.8264 91.9837 14.8463 91.7512 14.8464C90.7012 14.8464 90.3249 14.2514 90.3249 13.2801V9.47564H92.6629V7.23564H90.3249V3.78814H87.4707V7.23564H85.3698V9.47564H87.4707V13.6774C87.4707 15.976 88.6204 17.145 90.919 17.145V17.1459ZM100.619 17.3051C104.544 17.3051 106.922 15.0056 107.219 11.6964H104.108C103.87 13.4989 102.601 14.7283 100.738 14.7283C98.5385 14.7283 96.9924 12.945 96.9924 9.93239C96.9924 6.97927 98.598 5.29489 100.798 5.29489C102.681 5.29489 103.751 6.44464 103.969 8.12902H107.16C106.842 4.68064 104.306 2.71802 100.818 2.71802C96.834 2.71802 93.782 5.41302 93.782 9.93239C93.782 14.6093 96.4578 17.3051 100.619 17.3051ZM113.449 17.3051C116.442 17.3051 118.563 15.4221 118.563 12.1321C118.563 8.90164 116.442 6.89964 113.449 6.89964C110.476 6.89964 108.356 8.90164 108.356 12.1321C108.356 15.4221 110.457 17.3051 113.449 17.3051ZM113.449 15.0853C112.121 15.0853 111.269 13.995 111.269 12.1321C111.269 10.2299 112.161 9.15977 113.449 9.15977C114.758 9.15977 115.649 10.2299 115.649 12.1321C115.649 13.9959 114.777 15.0853 113.449 15.0853ZM122.569 16.9481V11.2606C122.569 10.0514 123.322 9.15977 124.392 9.15977C125.403 9.15977 125.998 9.93239 125.998 11.2204V16.9481H128.871V10.8048C128.871 8.46589 127.643 6.89964 125.442 6.89964C123.916 6.89964 122.985 7.63289 122.49 8.50527C122.541 8.21049 122.567 7.91194 122.569 7.61277V7.23652H119.695V16.9481H122.569ZM133.464 16.9481V11.2606C133.464 10.0514 134.217 9.15977 135.287 9.15977C136.298 9.15977 136.892 9.93239 136.892 11.2204V16.9481H139.766V10.8048C139.766 8.46589 138.537 6.89964 136.338 6.89964C134.812 6.89964 133.88 7.63289 133.385 8.50527C133.444 8.14827 133.464 7.87089 133.464 7.61277V7.23652H130.59V16.9481H133.464ZM145.95 17.3051C148.684 17.3051 150.448 15.759 150.647 13.7378H147.753C147.614 14.6294 146.861 15.1246 145.95 15.1246C144.72 15.1246 143.829 14.1341 143.809 12.7665H150.706V12.2118C150.706 9.00052 148.942 6.90052 145.89 6.90052C142.957 6.90052 140.896 8.96114 140.896 12.0726C140.896 15.4414 143.017 17.3051 145.95 17.3051ZM143.789 10.8835C143.908 9.77402 144.72 8.96114 145.87 8.96114C146.979 8.96114 147.753 9.73377 147.772 10.8835H143.789ZM156.877 17.3051C159.889 17.3051 161.534 15.6601 161.851 13.1034H158.977C158.878 14.1735 158.263 15.0853 156.975 15.0853C155.667 15.0853 154.776 13.876 154.776 12.0928C154.776 10.1503 155.806 9.15977 157.035 9.15977C158.244 9.15977 158.838 10.0313 158.918 11.0419H161.791C161.574 8.68377 159.968 6.89964 157.015 6.89964C154.141 6.89964 151.862 8.80277 151.862 12.0928C151.862 15.3425 153.784 17.3051 156.877 17.3051ZM168.067 17.1459C168.701 17.1459 169.316 17.047 169.593 16.9683V14.7869C169.364 14.8264 169.132 14.8463 168.899 14.8464C167.849 14.8464 167.472 14.2514 167.472 13.2801V9.47564H169.811V7.23564H167.472V3.78814H164.619V7.23564H162.518V9.47564H164.619V13.6774C164.619 15.976 165.767 17.145 168.067 17.145V17.1459Z" fill="black"/>
</svg>
