<svg width="100" height="100" viewBox="0 0 100 100" fill="none" xmlns="http://www.w3.org/2000/svg">
<path d="M90.7135 33.8735C88.3044 54.2195 70.9943 70 50 70C29.0057 70 11.6956 54.2195 9.28654 33.8736C9.04147 31.8038 10.7518 30 12.9954 30L86.9935 30C89.2404 30 90.9582 31.8069 90.7135 33.8735Z" stroke="url(#paint0_angular_1039_22)" stroke-width="2"/>
<path d="M27.32 39.4975C27.32 40.1934 26.7559 40.7575 26.06 40.7575C25.3641 40.7575 24.8 40.1934 24.8 39.4975C24.8 38.8017 25.3641 38.2375 26.06 38.2375C26.7559 38.2375 27.32 38.8017 27.32 39.4975Z" stroke="url(#paint1_angular_1039_22)" stroke-width="1.2"/>
<path d="M41.6 45.3775C41.6 46.0734 41.0359 46.6375 40.34 46.6375C39.6441 46.6375 39.08 46.0734 39.08 45.3775C39.08 44.6817 39.6441 44.1175 40.34 44.1175C41.0359 44.1175 41.6 44.6817 41.6 45.3775Z" stroke="url(#paint2_angular_1039_22)" stroke-width="1.2"/>
<path d="M51.68 54.6175C51.68 55.3134 51.1159 55.8775 50.42 55.8775C49.7241 55.8775 49.16 55.3134 49.16 54.6175C49.16 53.9217 49.7241 53.3575 50.42 53.3575C51.1159 53.3575 51.68 53.9217 51.68 54.6175Z" stroke="url(#paint3_angular_1039_22)" stroke-width="1.2"/>
<path d="M55.04 64.6975C55.04 65.3934 54.4759 65.9575 53.78 65.9575C53.0841 65.9575 52.52 65.3934 52.52 64.6975C52.52 64.0017 53.0841 63.4375 53.78 63.4375C54.4759 63.4375 55.04 64.0017 55.04 64.6975Z" stroke="url(#paint4_angular_1039_22)" stroke-width="1.2"/>
<path d="M64.28 36.9775C64.28 37.6734 63.7159 38.2375 63.02 38.2375C62.3241 38.2375 61.76 37.6734 61.76 36.9775C61.76 36.2817 62.3241 35.7175 63.02 35.7175C63.7159 35.7175 64.28 36.2817 64.28 36.9775Z" stroke="url(#paint5_angular_1039_22)" stroke-width="1.2"/>
<path d="M53.36 42.8575C53.36 43.5534 52.7959 44.1175 52.1 44.1175C51.4041 44.1175 50.84 43.5534 50.84 42.8575C50.84 42.1617 51.4041 41.5975 52.1 41.5975C52.7959 41.5975 53.36 42.1617 53.36 42.8575Z" stroke="url(#paint6_angular_1039_22)" stroke-width="1.2"/>
<path d="M34.88 57.5575C34.88 58.0214 34.5039 58.3975 34.04 58.3975C33.5761 58.3975 33.2 58.0214 33.2 57.5575C33.2 57.0936 33.5761 56.7175 34.04 56.7175C34.5039 56.7175 34.88 57.0936 34.88 57.5575Z" stroke="url(#paint7_angular_1039_22)" stroke-width="1.2"/>
<path d="M65.96 59.2375C65.96 59.7014 65.5839 60.0775 65.12 60.0775C64.6561 60.0775 64.28 59.7014 64.28 59.2375C64.28 58.7736 64.6561 58.3975 65.12 58.3975C65.5839 58.3975 65.96 58.7736 65.96 59.2375Z" stroke="url(#paint8_angular_1039_22)" stroke-width="1.2"/>
<path d="M35.72 38.2375C35.72 38.7014 35.3439 39.0775 34.88 39.0775C34.4161 39.0775 34.04 38.7014 34.04 38.2375C34.04 37.7736 34.4161 37.3975 34.88 37.3975C35.3439 37.3975 35.72 37.7736 35.72 38.2375Z" stroke="url(#paint9_angular_1039_22)" stroke-width="1.2"/>
<path d="M72.68 44.1175C72.68 44.5814 72.3039 44.9575 71.84 44.9575C71.3761 44.9575 71 44.5814 71 44.1175C71 43.6536 71.3761 43.2775 71.84 43.2775C72.3039 43.2775 72.68 43.6536 72.68 44.1175Z" stroke="url(#paint10_angular_1039_22)" stroke-width="1.2"/>
<path d="M74.36 36.5575C74.36 37.0214 73.9839 37.3975 73.52 37.3975C73.0561 37.3975 72.68 37.0214 72.68 36.5575C72.68 36.0936 73.0561 35.7175 73.52 35.7175C73.9839 35.7175 74.36 36.0936 74.36 36.5575Z" stroke="url(#paint11_angular_1039_22)" stroke-width="1.2"/>
<defs>
<radialGradient id="paint0_angular_1039_22" cx="0" cy="0" r="1" gradientUnits="userSpaceOnUse" gradientTransform="translate(50 50) rotate(90) scale(21 42)">
<stop stop-color="#1039A5"/>
<stop offset="0.286458" stop-color="#2FA3FF"/>
<stop offset="0.526042" stop-color="#00EFFF"/>
<stop offset="0.744792" stop-color="#2592FF"/>
<stop offset="1" stop-color="#163992"/>
</radialGradient>
<radialGradient id="paint1_angular_1039_22" cx="0" cy="0" r="1" gradientUnits="userSpaceOnUse" gradientTransform="translate(49.58 50.8375) rotate(90) scale(15.12 24.78)">
<stop stop-color="#1039A5"/>
<stop offset="0.286458" stop-color="#2FA3FF"/>
<stop offset="0.526042" stop-color="#00EFFF"/>
<stop offset="0.744792" stop-color="#2592FF"/>
<stop offset="1" stop-color="#163992"/>
</radialGradient>
<radialGradient id="paint2_angular_1039_22" cx="0" cy="0" r="1" gradientUnits="userSpaceOnUse" gradientTransform="translate(49.58 50.8375) rotate(90) scale(15.12 24.78)">
<stop stop-color="#1039A5"/>
<stop offset="0.286458" stop-color="#2FA3FF"/>
<stop offset="0.526042" stop-color="#00EFFF"/>
<stop offset="0.744792" stop-color="#2592FF"/>
<stop offset="1" stop-color="#163992"/>
</radialGradient>
<radialGradient id="paint3_angular_1039_22" cx="0" cy="0" r="1" gradientUnits="userSpaceOnUse" gradientTransform="translate(49.58 50.8375) rotate(90) scale(15.12 24.78)">
<stop stop-color="#1039A5"/>
<stop offset="0.286458" stop-color="#2FA3FF"/>
<stop offset="0.526042" stop-color="#00EFFF"/>
<stop offset="0.744792" stop-color="#2592FF"/>
<stop offset="1" stop-color="#163992"/>
</radialGradient>
<radialGradient id="paint4_angular_1039_22" cx="0" cy="0" r="1" gradientUnits="userSpaceOnUse" gradientTransform="translate(49.58 50.8375) rotate(90) scale(15.12 24.78)">
<stop stop-color="#1039A5"/>
<stop offset="0.286458" stop-color="#2FA3FF"/>
<stop offset="0.526042" stop-color="#00EFFF"/>
<stop offset="0.744792" stop-color="#2592FF"/>
<stop offset="1" stop-color="#163992"/>
</radialGradient>
<radialGradient id="paint5_angular_1039_22" cx="0" cy="0" r="1" gradientUnits="userSpaceOnUse" gradientTransform="translate(49.58 50.8375) rotate(90) scale(15.12 24.78)">
<stop stop-color="#1039A5"/>
<stop offset="0.286458" stop-color="#2FA3FF"/>
<stop offset="0.526042" stop-color="#00EFFF"/>
<stop offset="0.744792" stop-color="#2592FF"/>
<stop offset="1" stop-color="#163992"/>
</radialGradient>
<radialGradient id="paint6_angular_1039_22" cx="0" cy="0" r="1" gradientUnits="userSpaceOnUse" gradientTransform="translate(49.58 50.8375) rotate(90) scale(15.12 24.78)">
<stop stop-color="#1039A5"/>
<stop offset="0.286458" stop-color="#2FA3FF"/>
<stop offset="0.526042" stop-color="#00EFFF"/>
<stop offset="0.744792" stop-color="#2592FF"/>
<stop offset="1" stop-color="#163992"/>
</radialGradient>
<radialGradient id="paint7_angular_1039_22" cx="0" cy="0" r="1" gradientUnits="userSpaceOnUse" gradientTransform="translate(49.58 50.8375) rotate(90) scale(15.12 24.78)">
<stop stop-color="#1039A5"/>
<stop offset="0.286458" stop-color="#2FA3FF"/>
<stop offset="0.526042" stop-color="#00EFFF"/>
<stop offset="0.744792" stop-color="#2592FF"/>
<stop offset="1" stop-color="#163992"/>
</radialGradient>
<radialGradient id="paint8_angular_1039_22" cx="0" cy="0" r="1" gradientUnits="userSpaceOnUse" gradientTransform="translate(49.58 50.8375) rotate(90) scale(15.12 24.78)">
<stop stop-color="#1039A5"/>
<stop offset="0.286458" stop-color="#2FA3FF"/>
<stop offset="0.526042" stop-color="#00EFFF"/>
<stop offset="0.744792" stop-color="#2592FF"/>
<stop offset="1" stop-color="#163992"/>
</radialGradient>
<radialGradient id="paint9_angular_1039_22" cx="0" cy="0" r="1" gradientUnits="userSpaceOnUse" gradientTransform="translate(49.58 50.8375) rotate(90) scale(15.12 24.78)">
<stop stop-color="#1039A5"/>
<stop offset="0.286458" stop-color="#2FA3FF"/>
<stop offset="0.526042" stop-color="#00EFFF"/>
<stop offset="0.744792" stop-color="#2592FF"/>
<stop offset="1" stop-color="#163992"/>
</radialGradient>
<radialGradient id="paint10_angular_1039_22" cx="0" cy="0" r="1" gradientUnits="userSpaceOnUse" gradientTransform="translate(49.58 50.8375) rotate(90) scale(15.12 24.78)">
<stop stop-color="#1039A5"/>
<stop offset="0.286458" stop-color="#2FA3FF"/>
<stop offset="0.526042" stop-color="#00EFFF"/>
<stop offset="0.744792" stop-color="#2592FF"/>
<stop offset="1" stop-color="#163992"/>
</radialGradient>
<radialGradient id="paint11_angular_1039_22" cx="0" cy="0" r="1" gradientUnits="userSpaceOnUse" gradientTransform="translate(49.58 50.8375) rotate(90) scale(15.12 24.78)">
<stop stop-color="#1039A5"/>
<stop offset="0.286458" stop-color="#2FA3FF"/>
<stop offset="0.526042" stop-color="#00EFFF"/>
<stop offset="0.744792" stop-color="#2592FF"/>
<stop offset="1" stop-color="#163992"/>
</radialGradient>
</defs>
</svg>
