<?xml version="1.0" standalone="no"?>
<svg xmlns:xlink="http://www.w3.org/1999/xlink" id="wave" style="transform:rotate(0deg); transition: 0.3s" viewBox="0 0 1440 130" version="1.1" xmlns="http://www.w3.org/2000/svg"><defs><linearGradient id="sw-gradient-0" x1="0" x2="0" y1="1" y2="0"><stop stop-color="rgba(255, 255, 255, 1)" offset="0%"/><stop stop-color="rgba(255, 255, 255, 1)" offset="100%"/></linearGradient></defs><path style="transform:translate(0, 0px); opacity:1" fill="url(#sw-gradient-0)" d="M0,104L60,99.7C120,95,240,87,360,73.7C480,61,600,43,720,45.5C840,48,960,69,1080,67.2C1200,65,1320,39,1440,43.3C1560,48,1680,82,1800,93.2C1920,104,2040,91,2160,91C2280,91,2400,104,2520,104C2640,104,2760,91,2880,75.8C3000,61,3120,43,3240,30.3C3360,17,3480,9,3600,21.7C3720,35,3840,69,3960,71.5C4080,74,4200,43,4320,36.8C4440,30,4560,48,4680,52C4800,56,4920,48,5040,56.3C5160,65,5280,91,5400,99.7C5520,108,5640,100,5760,95.3C5880,91,6000,91,6120,84.5C6240,78,6360,65,6480,67.2C6600,69,6720,87,6840,82.3C6960,78,7080,52,7200,43.3C7320,35,7440,43,7560,45.5C7680,48,7800,43,7920,43.3C8040,43,8160,48,8280,49.8C8400,52,8520,52,8580,52L8640,52L8640,130L8580,130C8520,130,8400,130,8280,130C8160,130,8040,130,7920,130C7800,130,7680,130,7560,130C7440,130,7320,130,7200,130C7080,130,6960,130,6840,130C6720,130,6600,130,6480,130C6360,130,6240,130,6120,130C6000,130,5880,130,5760,130C5640,130,5520,130,5400,130C5280,130,5160,130,5040,130C4920,130,4800,130,4680,130C4560,130,4440,130,4320,130C4200,130,4080,130,3960,130C3840,130,3720,130,3600,130C3480,130,3360,130,3240,130C3120,130,3000,130,2880,130C2760,130,2640,130,2520,130C2400,130,2280,130,2160,130C2040,130,1920,130,1800,130C1680,130,1560,130,1440,130C1320,130,1200,130,1080,130C960,130,840,130,720,130C600,130,480,130,360,130C240,130,120,130,60,130L0,130Z"/></svg>