<svg width="38" height="38" viewBox="0 0 38 38" fill="none" xmlns="http://www.w3.org/2000/svg">
<g clip-path="url(#clip0_2502_21)">
<path d="M18.0994 1.01244L18.5739 0.99681C19.6871 0.973575 20.8328 1.03675 21.9327 1.21314C25.4571 1.77833 28.8643 3.40542 31.4454 5.88243C34.7596 9.06296 36.7412 13.6569 36.8333 18.2443C36.8483 18.9896 36.8407 19.7437 36.7691 20.4861C36.3862 24.4544 34.6805 28.3815 31.9034 31.2603C30.5767 32.6355 29.0532 33.7498 27.3672 34.6431C25.0479 35.8719 22.4478 36.6378 19.8118 36.6874C17.5444 36.7938 15.1943 36.517 13.0515 35.7525C12.4249 35.529 11.8207 35.2513 11.2209 34.9651L9.95966 34.3213C8.90258 33.7136 7.8802 32.9571 6.97814 32.1373C5.48491 30.7802 4.24826 29.2375 3.28611 27.4632L2.68135 26.2109C2.32834 25.437 1.99922 24.637 1.77626 23.8149C1.4077 22.4559 1.24189 21.053 1.17629 19.6494C1.08946 17.7918 1.24444 15.9333 1.71632 14.1312C1.85171 13.6141 2.03326 13.1183 2.21898 12.618C2.83739 10.9521 3.66917 9.37646 4.73304 7.95101C5.11287 7.44212 5.53562 6.95658 5.96397 6.48806C9.03128 3.13303 13.5914 1.21936 18.0994 1.01244Z" fill="white"/>
<path d="M16.5501 34.8853L16.54 34.8846C15.4747 34.7493 14.4287 34.4437 13.4227 34.076C12.689 33.8079 11.9738 33.5094 11.2806 33.1474C9.21567 32.069 7.38751 30.5341 5.9774 28.6801C4.68092 26.9754 3.72646 24.9602 3.22424 22.8775C2.70474 20.7231 2.64703 18.3747 2.94483 16.1833C3.20067 14.3005 3.86833 12.4931 4.77524 10.8302C5.6025 9.31338 6.60514 7.95513 7.87795 6.78079C8.16775 6.5134 8.46259 6.2473 8.77694 6.00881C9.46712 5.48513 10.1931 4.98266 10.9554 4.57024C11.4041 4.32752 11.8835 4.12028 12.3545 3.92433C14.4263 3.06252 16.691 2.56444 18.9415 2.56105C19.724 2.55987 20.517 2.63703 21.2915 2.74447C22.5008 2.91223 23.7117 3.20023 24.8549 3.63103C25.4502 3.85538 26.032 4.13309 26.5947 4.42932C27.8114 5.06994 28.9804 5.85879 29.9957 6.78856C30.8045 7.52916 31.5265 8.36471 32.1875 9.23797C32.285 9.33683 32.3624 9.46691 32.4421 9.58032L33.0343 10.5079C34.2292 12.562 34.9009 14.8506 35.1114 17.2141C35.16 17.7595 35.2016 18.31 35.1971 18.858C35.1924 19.4256 35.1417 19.9915 35.0802 20.5554C34.9743 21.5262 34.8067 22.5055 34.5304 23.4436C34.2806 24.2913 33.9493 25.1168 33.5737 25.9157C33.3118 26.4729 33.0358 27.0182 32.7088 27.5407C32.0494 28.5947 31.215 29.6085 30.3265 30.4795C29.4146 31.3733 28.4166 32.1107 27.32 32.7612C26.1127 33.4774 24.8561 34.0409 23.5088 34.4417C23.1101 34.5604 22.7167 34.6772 22.309 34.7629C21.154 35.0057 19.9493 35.0965 18.7699 35.0833L17.3665 34.9985C17.1 34.9717 16.8103 34.9463 16.5501 34.8853Z" fill="url(#paint0_linear_2502_21)"/>
<path d="M16.3956 32.8029L15.8082 32.6787C15.1643 32.5309 14.5301 32.3154 13.9104 32.0881C13.1919 31.8245 12.4906 31.5405 11.8193 31.1688C11.3365 30.9015 10.8566 30.598 10.4216 30.258C10.1167 30.0197 9.83605 29.7509 9.55209 29.4885C8.72119 28.721 7.94526 27.8312 7.34388 26.8706C6.76805 25.9508 6.2739 24.9986 5.91982 23.9704C5.75541 23.493 5.63527 22.9918 5.52651 22.4986C5.02143 20.2081 4.96621 17.7123 5.49891 15.4213C6.01007 13.2231 7.11 11.1069 8.60536 9.41788C8.84593 9.14619 9.08669 8.87232 9.35225 8.62443C10.1048 7.92168 10.9503 7.33778 11.8244 6.79771C12.2185 6.55427 12.6377 6.34859 13.0562 6.15107C13.4552 5.9628 13.8571 5.77958 14.2713 5.62654C14.8579 5.40967 15.4785 5.2452 16.0879 5.10785C17.1837 4.86089 18.2938 4.71539 19.4194 4.73519C20.461 4.7535 21.4934 4.91794 22.5052 5.15871C23.5633 5.41051 24.5956 5.8057 25.5644 6.29787C25.875 6.45566 26.1908 6.61513 26.4864 6.79959C26.7426 6.95946 26.9825 7.14718 27.2256 7.3258C27.8748 7.80273 28.4799 8.29124 29.0551 8.85718C29.4012 9.19765 29.7182 9.55256 30.0199 9.93306C30.1573 10.1063 30.3058 10.2815 30.4217 10.4699C30.9899 11.2943 31.4969 12.1305 31.9115 13.0443C32.0125 13.2669 32.1437 13.5115 32.2038 13.7473L32.3499 14.1667L32.3591 14.1947C32.3714 14.2311 32.3836 14.2466 32.3756 14.2848C32.4931 14.6057 32.5648 14.933 32.6393 15.2655L32.819 16.1245C32.8585 16.3604 32.8759 16.6053 32.9273 16.8381C32.9575 16.9701 32.9619 17.1117 32.9695 17.2468L33.001 17.869L33.0165 19.4919L32.9993 19.5105C32.9988 19.577 33.0164 19.8035 32.9808 19.8444C32.98 19.9223 32.964 19.9954 32.9609 20.0701C32.9549 20.2157 32.9659 20.38 32.9311 20.5217L32.7702 21.6535L32.7571 21.7092C32.7354 21.7995 32.7064 21.9001 32.6973 21.9917C32.6807 22.1571 32.6239 22.3386 32.5837 22.5011C32.4732 22.9476 32.3512 23.3785 32.1971 23.8126L32.1822 23.8239L31.4429 25.4882C31.3041 25.8349 31.0916 26.1753 30.8948 26.4929C30.5134 27.1087 30.0869 27.6524 29.6128 28.1984C29.0664 28.8278 28.4766 29.4192 27.8243 29.9396C27.4977 30.2002 27.1464 30.4372 26.8024 30.674C26.2513 31.0534 25.6638 31.4282 25.0455 31.689L24.126 32.0844C22.9745 32.5173 21.7773 32.7976 20.5586 32.9548C19.9624 33.0317 19.3538 33.0937 18.7519 33.0794C17.9544 33.0604 17.1791 32.9442 16.3956 32.8029Z" fill="url(#paint1_linear_2502_21)"/>
<path d="M10.2574 11.6092L10.2306 11.5831C11.3968 9.9295 13.1157 8.72206 14.9895 7.9962C15.6211 7.75152 16.2884 7.54534 16.9566 7.42936C19.8859 6.92086 22.9567 7.49665 25.3997 9.23174C26.1054 9.73296 26.7935 10.3513 27.3183 11.0397C27.4454 11.2065 27.5416 11.39 27.6637 11.559C27.6774 11.5779 27.673 11.5696 27.6783 11.5937L27.5586 11.5898C27.3055 11.557 27.0275 11.5784 26.7719 11.5782L24.9839 11.5712L24.9584 11.5353C24.5362 10.7856 22.6122 10.0317 21.7901 9.80045C20.909 9.55261 19.9754 9.41249 19.0596 9.41259C17.2479 9.41288 15.4233 9.92915 13.8499 10.8188C13.5836 10.9694 13.1227 11.2286 13.027 11.5441L13.023 11.5612C12.8717 11.6134 12.628 11.5781 12.4632 11.5782L11.1179 11.578C10.8705 11.578 10.6102 11.5607 10.3646 11.5901L10.2574 11.6092Z" fill="#20499E"/>
<path d="M12.3931 28.2152C12.2884 28.1582 12.1911 28.0745 12.0963 28.0021L11.5749 27.5826C10.02 26.2533 8.82487 24.4511 8.17046 22.515C7.9239 21.7856 7.77373 21.023 7.68506 20.2595C7.47136 18.4189 7.63514 16.4489 8.28638 14.7069C8.36892 14.4861 8.43957 14.2516 8.54437 14.0405C8.68776 14.4057 8.90483 14.756 9.10828 15.0913L9.76146 16.1588L11.8981 19.591L12.8557 21.0991C13.0144 21.3515 13.1988 21.6097 13.334 21.8747C13.3459 21.8783 13.3724 21.9284 13.3812 21.942L16.3669 26.5513L16.9254 27.4331C17.1039 27.7134 17.2934 28.0394 17.5735 28.2301C17.9444 28.4828 18.4439 28.6545 18.8947 28.6686C19.124 28.6757 19.3494 28.6408 19.5741 28.5992C19.9367 28.532 20.3274 28.3515 20.5935 28.0909C20.8967 27.7941 21.1397 27.392 21.3736 27.0391L22.0533 26.0273L24.9469 21.6252L26.0502 19.9098L26.5092 19.1876C26.5109 19.1698 26.5407 19.1293 26.5512 19.1117L26.6979 18.8717L27.6497 17.3759L28.7512 15.5964C29.0316 15.1403 29.3339 14.6879 29.5488 14.1963C29.7507 14.4938 29.8519 14.9259 29.9492 15.2705C30.4877 17.1765 30.5599 19.1825 30.1872 21.1272C30.1748 21.1914 30.1654 21.2556 30.1412 21.3166C30.1106 21.5322 30.0492 21.7425 29.9907 21.9517C29.8866 22.3248 29.7649 22.6913 29.6205 23.0508C28.8162 25.0539 27.5375 26.7799 25.8092 28.0804C23.3604 29.9231 20.3391 30.7099 17.303 30.2745L17.1206 30.2477C15.6543 29.9902 14.2246 29.4118 12.9698 28.6118C12.7826 28.4924 12.5525 28.3675 12.3931 28.2152Z" fill="url(#paint2_linear_2502_21)"/>
<path d="M13.0231 11.5612L13.027 11.5441C13.1227 11.2286 13.5837 10.9694 13.8499 10.8188C15.4233 9.92916 17.2479 9.41289 19.0596 9.4126C19.9754 9.4125 20.9091 9.55262 21.7901 9.80046C22.6122 10.0317 24.5362 10.7856 24.9584 11.5353L24.984 11.5712L26.7719 11.5783C27.0275 11.5784 27.3055 11.557 27.5587 11.5898L27.6783 11.5937C27.9837 11.8153 28.2866 12.0328 28.5466 12.3087C28.8305 12.61 29.0488 12.9752 29.2146 13.3531C29.2746 13.4899 29.3258 13.6278 29.3728 13.7696C29.3993 13.8495 29.4218 13.9503 29.4667 14.0212C29.4821 14.0822 29.5015 14.152 29.5488 14.1961C29.3339 14.6877 29.0316 15.1401 28.7512 15.5962L27.6497 17.3757L26.6979 18.8715L26.5512 19.1116C26.5407 19.1291 26.5109 19.1696 26.5092 19.1874L26.0501 19.9096L24.9469 21.6251L22.0533 26.0271L21.3736 27.0389C21.1397 27.3918 20.8967 27.7939 20.5935 28.0907C20.3274 28.3513 19.9367 28.5319 19.5741 28.599C19.3494 28.6406 19.124 28.6755 18.8947 28.6684C18.4438 28.6543 17.9444 28.4826 17.5735 28.2299C17.2934 28.0392 17.1039 27.7132 16.9253 27.4329L16.3669 26.5511L13.3812 21.9418C13.3723 21.9282 13.3459 21.8781 13.334 21.8745C13.1988 21.6095 13.0143 21.3513 12.8557 21.0989L11.898 19.5908L9.76144 16.1586L9.10826 15.0911C8.9048 14.7559 8.68774 14.4055 8.54435 14.0403C8.53722 14.0231 8.52174 13.9892 8.52149 13.9715C8.52109 13.9449 8.54563 13.8926 8.55444 13.8658L8.68917 13.5109C8.9341 12.9191 9.32211 12.2969 9.8215 11.8902C9.94916 11.7862 10.1059 11.6724 10.2574 11.6092L10.3646 11.5901C10.6103 11.5607 10.8705 11.578 11.1179 11.578L12.4632 11.5782C12.628 11.5781 12.8717 11.6134 13.0231 11.5612Z" fill="white"/>
<path d="M24.9584 11.5356L24.9839 11.5715L26.7719 11.5786C27.0275 11.5787 27.3055 11.5574 27.5586 11.5901C27.5129 11.7136 27.426 11.8423 27.3613 11.9577L26.7474 12.9698L25.3598 15.1898L24.6483 16.3637L22.9995 19.012L20.6451 22.8244L19.9395 23.929C19.7417 24.2592 19.5635 24.6121 19.345 24.9283C19.2991 24.9947 19.2472 25.0686 19.173 25.1057C19.0907 25.1468 18.9483 25.1648 18.8645 25.1214C18.8 25.088 18.7404 25.0141 18.6999 24.9551C18.5312 24.7091 18.3876 24.4437 18.23 24.1902L17.3802 22.8569L16.0133 20.7559L14.9841 19.0823L13.1947 16.2228L10.9315 12.5797C10.7457 12.2572 10.5151 11.93 10.3646 11.5905C10.6102 11.561 10.8705 11.5783 11.1179 11.5783L12.4632 11.5785C12.628 11.5784 12.8717 11.6138 13.023 11.5615C13.2619 11.7725 13.415 12.0203 13.5914 12.2826L14.1719 13.177L14.8287 14.1998L17.5391 18.4427L18.4271 19.8704C18.6341 20.2127 18.824 20.5691 19.0562 20.895L20.3296 18.8511L21.9475 16.2464L24.2009 12.6021L24.7411 11.7426C24.7805 11.6835 24.8156 11.6206 24.8834 11.5913C24.9182 11.5763 24.9332 11.5659 24.9584 11.5356Z" fill="#62C4FF"/>
<path d="M13.0231 11.5612L13.027 11.5441C13.1227 11.2286 13.5837 10.9694 13.8499 10.8188C15.4234 9.92916 17.2479 9.41289 19.0596 9.4126C19.9754 9.4125 20.9091 9.55262 21.7901 9.80046C22.6122 10.0317 24.5362 10.7856 24.9584 11.5353C24.9332 11.5656 24.9182 11.5759 24.8834 11.591C24.8156 11.6203 24.7806 11.6831 24.7411 11.7423L24.201 12.6017L21.9475 16.246L20.3297 18.8508L19.0562 20.8946C18.8241 20.5688 18.6341 20.2124 18.4271 19.8701L17.5391 18.4424L14.8287 14.1994L14.1719 13.1766L13.5914 12.2823C13.415 12.02 13.262 11.7722 13.0231 11.5612Z" fill="white"/>
</g>
<defs>
<linearGradient id="paint0_linear_2502_21" x1="32.7981" y1="27.3703" x2="5.10259" y2="10.2192" gradientUnits="userSpaceOnUse">
<stop stop-color="#5CCDFE"/>
<stop offset="1" stop-color="#DCFFFE"/>
</linearGradient>
<linearGradient id="paint1_linear_2502_21" x1="30.973" y1="26.3387" x2="7.0893" y2="11.4889" gradientUnits="userSpaceOnUse">
<stop stop-color="#4BAFFF"/>
<stop offset="1" stop-color="#98FFFD"/>
</linearGradient>
<linearGradient id="paint2_linear_2502_21" x1="19.3106" y1="30.3741" x2="18.8674" y2="13.7878" gradientUnits="userSpaceOnUse">
<stop stop-color="#000B7E"/>
<stop offset="1" stop-color="#0460FF"/>
</linearGradient>
<clipPath id="clip0_2502_21">
<rect width="38" height="38" fill="white"/>
</clipPath>
</defs>
</svg>
