<svg width="152" height="152" viewBox="0 0 152 152" fill="none" xmlns="http://www.w3.org/2000/svg">
<g filter="url(#filter0_d_0_1)">
<circle cx="76" cy="68" r="60" fill="url(#paint0_linear_0_1)"/>
<circle cx="76" cy="68" r="56" stroke="white" stroke-width="8"/>
</g>
<path d="M76 68.104C79.99 68.104 83 65.094 83 61.104C83 57.114 79.99 54.104 76 54.104C72.01 54.104 69 57.114 69 61.104C69 65.094 72.01 68.104 76 68.104ZM78 70H74C68.486 70 64 74.486 64 80V82H88V80C88 74.486 83.514 70 78 70Z" fill="white"/>
<defs>
<filter id="filter0_d_0_1" x="0" y="0" width="152" height="152" filterUnits="userSpaceOnUse" color-interpolation-filters="sRGB">
<feFlood flood-opacity="0" result="BackgroundImageFix"/>
<feColorMatrix in="SourceAlpha" type="matrix" values="0 0 0 0 0 0 0 0 0 0 0 0 0 0 0 0 0 0 127 0" result="hardAlpha"/>
<feOffset dy="8"/>
<feGaussianBlur stdDeviation="8"/>
<feComposite in2="hardAlpha" operator="out"/>
<feColorMatrix type="matrix" values="0 0 0 0 0 0 0 0 0 0 0 0 0 0 0 0 0 0 0.1 0"/>
<feBlend mode="normal" in2="BackgroundImageFix" result="effect1_dropShadow_0_1"/>
<feBlend mode="normal" in="SourceGraphic" in2="effect1_dropShadow_0_1" result="shape"/>
</filter>
<linearGradient id="paint0_linear_0_1" x1="76" y1="8" x2="76" y2="128" gradientUnits="userSpaceOnUse">
<stop stop-color="#0AA7F5"/>
<stop offset="1" stop-color="#3CE7FF"/>
</linearGradient>
</defs>
</svg>
