<svg width="36" height="36" viewBox="0 0 36 36" fill="none" xmlns="http://www.w3.org/2000/svg">
<circle cx="18" cy="18" r="17" fill="url(#paint0_linear_1188_197)" stroke="white" stroke-width="2"/>
<g clip-path="url(#clip0_1188_197)">
<path d="M12.515 27.3034C12.0325 27.5509 11.485 27.1171 11.5825 26.5634L12.62 20.6509L8.21628 16.4559C7.80503 16.0634 8.01878 15.3459 8.57003 15.2684L14.6925 14.3984L17.4225 8.98965C17.6688 8.50215 18.335 8.50215 18.5813 8.98965L21.3113 14.3984L27.4338 15.2684C27.985 15.3459 28.1988 16.0634 27.7863 16.4559L23.3838 20.6509L24.4213 26.5634C24.5188 27.1171 23.9713 27.5509 23.4888 27.3034L18 24.4834L12.5138 27.3034H12.515Z" fill="white"/>
</g>
<defs>
<linearGradient id="paint0_linear_1188_197" x1="18" y1="0" x2="18" y2="36" gradientUnits="userSpaceOnUse">
<stop stop-color="#0AA7F5"/>
<stop offset="1" stop-color="#3CE7FF"/>
</linearGradient>
<clipPath id="clip0_1188_197">
<rect width="20" height="20" fill="white" transform="translate(8 8)"/>
</clipPath>
</defs>
</svg>
