<svg width="24" height="24" viewBox="0 0 24 24" fill="none" xmlns="http://www.w3.org/2000/svg">
<path fill-rule="evenodd" clip-rule="evenodd" d="M1.49988 12C1.49988 12.1989 1.5789 12.3896 1.71955 12.5303C1.8602 12.671 2.05097 12.75 2.24988 12.75L19.9394 12.75L15.2189 17.469C15.078 17.6098 14.9989 17.8008 14.9989 18C14.9989 18.1991 15.078 18.3901 15.2189 18.531C15.3597 18.6718 15.5507 18.7509 15.7499 18.7509C15.949 18.7509 16.14 18.6718 16.2809 18.531L22.2809 12.531C22.3507 12.4613 22.4061 12.3785 22.4439 12.2874C22.4818 12.1963 22.5012 12.0986 22.5012 12C22.5012 11.9013 22.4818 11.8036 22.4439 11.7125C22.4061 11.6214 22.3507 11.5386 22.2809 11.469L16.2809 5.46897C16.2111 5.39924 16.1284 5.34392 16.0373 5.30619C15.9461 5.26845 15.8485 5.24902 15.7499 5.24902C15.5507 5.24902 15.3597 5.32814 15.2189 5.46897C15.0781 5.6098 14.9989 5.80081 14.9989 5.99997C14.9989 6.19913 15.0781 6.39014 15.2189 6.53097L19.9394 11.25L2.24988 11.25C2.05097 11.25 1.8602 11.329 1.71955 11.4696C1.5789 11.6103 1.49988 11.8011 1.49988 12Z" fill="#1039A5"/>
</svg>
