<svg width="36" height="36" viewBox="0 0 36 36" fill="none" xmlns="http://www.w3.org/2000/svg">
<circle cx="18" cy="18" r="17" fill="url(#paint0_linear_1402_110)" stroke="white" stroke-width="2"/>
<path d="M24.3858 8C22.3898 8 20.7717 9.61814 20.7717 11.6141C20.7717 11.6984 20.7785 11.781 20.7845 11.8638L14.1082 14.9973C13.4594 14.3773 12.5822 13.9946 11.6142 13.9946C9.61814 13.9946 8 15.6128 8 17.6087C8 19.6048 9.61814 21.2229 11.6141 21.2229C12.2438 21.2229 12.8357 21.0611 13.3511 20.7781L16.2409 23.2131C16.1144 23.5815 16.0426 23.9749 16.0426 24.3859C16.0426 26.3819 17.6607 28 19.6567 28C21.6528 28 23.2708 26.3819 23.2708 24.3859C23.2708 22.3899 21.6528 20.7718 19.6567 20.7718C19.0271 20.7718 18.4352 20.9336 17.9197 21.2165L15.0299 18.7815C15.1565 18.4133 15.2282 18.0198 15.2282 17.6087C15.2282 17.5245 15.2214 17.4421 15.2155 17.3591L21.8918 14.2256C22.5405 14.8455 23.4177 15.2283 24.3858 15.2283C26.3817 15.2283 27.9999 13.6101 27.9999 11.6142C27.9999 9.61818 26.3818 8 24.3858 8Z" fill="white"/>
<defs>
<linearGradient id="paint0_linear_1402_110" x1="18" y1="0" x2="18" y2="36" gradientUnits="userSpaceOnUse">
<stop stop-color="#0AA7F5"/>
<stop offset="1" stop-color="#3CE7FF"/>
</linearGradient>
</defs>
</svg>
